{
.appVersion = "3151";
.formatVersion = 3;
DisplayStrings = (
"̀/gravecomb.case `/grave.case"
);
classes = (
{
automatic = 1;
code = "A Aacute Abreve Acircumflex Adieresis Agrave Amacron Aogonek Aring Aringacute Atilde AE AEacute B C Cacute Ccaron Ccedilla Ccircumflex Cdotaccent D Eth Dcaron Dcroat E Eacute Ebreve Ecaron Ecircumflex Edieresis Edotaccent Egrave Emacron Eogonek F G Gbreve Gcircumflex Gcommaaccent Gdotaccent H Hbar Hcircumflex I IJ Iacute Ibreve Icircumflex Idieresis Idotaccent Igrave Imacron Iogonek Itilde J Jcircumflex K Kcommaaccent L Lacute Lcaron Lcommaaccent Ldot Lslash M N Nacute Ncaron Ncommaaccent Ntilde Eng O Oacute Obreve Ocircumflex Odieresis Ograve Ohungarumlaut Omacron Oslash Oslashacute Otilde OE P Thorn Q R Racute Rcaron Rcommaaccent S Sacute Scaron Scedilla Scircumflex Scommaaccent T Tbar Tcaron Tcedilla Tcommaaccent U Uacute Ubreve Ucircumflex Udieresis Ugrave Uhungarumlaut Umacron Uogonek Uring Utilde V W Wacute Wcircumflex Wdieresis Wgrave X Y Yacute Ycircumflex Ydieresis Ygrave Z Zacute Zcaron Zdotaccent Delta Omega";
name = Uppercase;
}
);
customParameters = (
{
name = "Use Typo Metrics";
value = 1;
},
{
name = fsType;
value = (
);
}
);
date = "2023-02-17 10:28:46 +0000";
familyName = Strait;
featurePrefixes = (
{
automatic = 1;
code = "languagesystem DFLT dflt;

languagesystem latn dflt;
languagesystem latn ROM;
languagesystem latn MOL;
languagesystem latn CAT;
";
name = Languagesystems;
}
);
features = (
{
automatic = 1;
code = "feature locl;
feature subs;
feature sinf;
feature sups;
feature frac;
feature ordn;
feature case;
feature salt;
";
tag = aalt;
},
{
automatic = 1;
code = "lookup ccmp_Other_1 {
	@CombiningTopAccents = [acutecomb brevecomb caroncomb circumflexcomb dieresiscomb dotaccentcomb gravecomb hungarumlautcomb macroncomb ringcomb tildecomb];
	@CombiningNonTopAccents = [cedillacomb ogonekcomb];
	sub [i j]' @CombiningTopAccents by [idotless jdotless];

glyphs = (
{
glyphname = A;
kernLeft = A;
kernRight = A;
lastChange = "2023-02-17 10:55:32 +0000";
layers = (
{
anchors = (
{
name = bottom;
pos = (274,0);
},
{
name = ogonek;
pos = (520,15);
},
{
name = top;
pos = (274,700);
}
);
background = {
shapes = (
{
closed = 1;
nodes = (
(123,0,l),
(164,177,l),
(384,177,l),
(425,0,l),
(513,0,l),
(347,700,l),
(201,700,l),
(35,0,l,{
name = hr00;
})
);
},
{
closed = 1;
nodes = (
(367,247,l),
(180,247,l),
(271,636,l),
(277,636,l)
);
}
);
};
layerId = master01;
shapes = (
{
closed = 1;
nodes = (
(123,0,l),
(164,177,l),
(384,177,l),
(425,0,l),
(513,0,l),
(347,700,l),
(201,700,l),
(35,0,l,{
name = hr00;
})
);
},
{
closed = 1;
nodes = (
(367,247,l),
(180,247,l),
(271,636,l),
(277,636,l)
);
}
);
width = 548;
}
);
unicode = 65;
},
{
glyphname = Aacute;
kernLeft = A;
kernRight = A;
lastChange = "2023-02-17 10:55:32 +0000";
layers = (
{
background = {
shapes = (
{
closed = 1;
nodes = (
(123,0,l),
(164,177,l),
(384,177,l),
(425,0,l),
(513,0,l),
(347,700,l),
(201,700,l),
(35,0,l,{
name = hr00;
})
);
},
{
closed = 1;
nodes = (
(367,247,l),
(180,247,l),
(271,636,l),
(277,636,l)
);
},
{
closed = 1;
nodes = (
(191,731,l),
(379,834,l),
(333,901,l),
(168,765,l,{
name = hr00;
})
);
}
);
};
layerId = master01;
shapes = (
{
ref = A;
},
{
pos = (44,0);
ref = acutecomb.case;
}
);
width = 548;
}
);
unicode = 193;
},
{
glyphname = Abreve;
kernLeft = A;
kernRight = A;
lastChange = "2023-02-17 10:55:32 +0000";
layers = (
{
background = {
shapes = (
{
closed = 1;
nodes = (
(123,0,l),
(164,177,l),
(384,177,l),
(425,0,l),
(513,0,l),
(347,700,l),
(201,700,l),
(35,0,l,{
name = hr00;
})
);
},
{
closed = 1;
nodes = (
(367,247,l),
(180,247,l),
(271,636,l),
(277,636,l)
);
},
{
closed = 1;
nodes = (
(331,736,o),
(360,757,o),
(382,803,cs),
(403,847,l),
(358,869,l),
(342,838,o),
(327,806,o),
(274,806,cs),
(221,806,o),
(206,838,o),
(190,869,c),
(145,847,l),
(166,803,ls),
(188,757,o),
(217,736,o),
(274,736,c,{
name = hr00;
})
);
}
);
};
layerId = master01;
shapes = (
{
ref = A;
},
{
pos = (59,0);
ref = brevecomb.case;
}
);
width = 548;
}
);
unicode = 258;
},
{
glyphname = Acircumflex;
kernLeft = A;
kernRight = A;
lastChange = "2023-02-17 10:55:32 +0000";
layers = (
{
background = {
shapes = (
{
closed = 1;
nodes = (
(123,0,l),
(164,177,l),
(384,177,l),
(425,0,l),
(513,0,l),
(347,700,l),
(201,700,l),
(35,0,l,{
name = hr00;
})
);
},
{
closed = 1;
nodes = (
(367,247,l),
(180,247,l),
(271,636,l),
(277,636,l)
);
},
{
closed = 1;
nodes = (
(407,775,l),
(273,891,l),
(140,775,l),
(170,738,l),
(273,805,l),
(376,738,l,{
name = hr00;
})
);
}
);
};
layerId = master01;
shapes = (
{
ref = A;
},
{
pos = (58,0);
ref = circumflexcomb.case;
}
);
width = 548;
}
);
unicode = 194;
},
{
glyphname = Adieresis;
kernLeft = A;
kernRight = A;
lastChange = "2023-02-17 10:55:32 +0000";
layers = (
{
background = {
shapes = (
{
closed = 1;
nodes = (
(123,0,l),
(164,177,l),
(384,177,l),
(425,0,l),
(513,0,l),
(347,700,l),
(201,700,l),
(35,0,l,{
name = hr00;
})
);
},
{
closed = 1;
nodes = (
(367,247,l),
(180,247,l),
(271,636,l),
(277,636,l)
);
},
{
closed = 1;
nodes = (
(152,862,o),
(132,862,o),
(132,812,cs),
(132,761,o),
(152,761,o),
(184,761,cs),
(216,761,o),
(236,761,o),
(236,812,cs),
(236,862,o),
(216,862,o),
(184,862,c,{
name = hr00;
})
);
},
{
closed = 1;
nodes = (
(332,862,o),
(312,862,o),
(312,812,cs),
(312,761,o),
(332,761,o),
(364,761,cs),
(396,761,o),
(416,761,o),
(416,812,cs),
(416,862,o),
(396,862,o),
(364,862,c)
);
}
);
};
layerId = master01;
shapes = (
{
ref = A;
},
{
pos = (59,0);
ref = dieresiscomb.case;
}
);
width = 548;
}
);
unicode = 196;
},
{
glyphname = Agrave;
kernLeft = A;
kernRight = A;
lastChange = "2023-02-17 13:10:10 +0000";
layers = (
{
background = {
shapes = (
{
closed = 1;
nodes = (
(123,0,l),
(164,177,l),
(384,177,l),
(425,0,l),
(513,0,l),
(347,700,l),
(201,700,l),
(35,0,l,{
name = hr00;
})
);
},
{
closed = 1;
nodes = (
(367,247,l),
(180,247,l),
(271,636,l),
(277,636,l)
);
},
{
closed = 1;
nodes = (
(379,765,l),
(214,901,l),
(168,834,l),
(356,731,l,{
name = hr00;
})
);
}
);
};
layerId = master01;
shapes = (
{
ref = A;
},
{
pos = (74,180);
ref = gravecomb.case;
}
);
width = 548;
}
);
unicode = 192;
},
{
glyphname = Amacron;
kernLeft = A;
kernRight = A;
lastChange = "2023-02-17 10:55:32 +0000";
layers = (
{
background = {
shapes = (
{
closed = 1;
nodes = (
(123,0,l),
(164,177,l),
(384,177,l),
(425,0,l),
(513,0,l),
(347,700,l),
(201,700,l),
(35,0,l,{
name = hr00;
})
);
},
{
closed = 1;
nodes = (
(367,247,l),
(180,247,l),
(271,636,l),
(277,636,l)
);
},
{
closed = 1;
nodes = (
(154,780,l),
(394,780,l),
(394,843,l),
(154,843,l,{
name = hr00;
})
);
}
);
};
layerId = master01;
shapes = (
{
ref = A;
},
{
pos = (74,0);
ref = macroncomb.case;
}
);
width = 548;
}
);
unicode = 256;
},
{
glyphname = Aogonek;
kernLeft = A;
kernRight = A;
lastChange = "2023-02-17 10:55:32 +0000";
layers = (
{
background = {
shapes = (
{
closed = 1;
nodes = (
(123,0,l),
(164,177,l),
(384,177,l),
(425,0,l),
(513,0,l),
(347,700,l),
(201,700,l),
(35,0,l,{
name = hr00;
})
);
},
{
closed = 1;
nodes = (
(367,247,l),
(180,247,l),
(271,636,l),
(277,636,l)
);
},
{
closed = 1;
nodes = (
(439,15,l),
(384,-44,ls),
(358,-72,o),
(348,-90,o),
(348,-113,cs),
(348,-143,o),
(359,-177,o),
(420,-177,cs),
(468,-177,o),
(502,-157,o),
(520,-144,c),
(510,-109,l),
(486,-125,o),
(465,-133,o),
(439,-133,cs),
(416,-133,o),
(413,-120,o),
(413,-107,cs),
(413,-91,o),
(437,-53,o),
(450,-33,cs),
(470,0,l),
(470,15,l,{
name = hr00;
})
);
}
);
};
layerId = master01;
shapes = (
{
ref = A;
},
{
pos = (332,0);
ref = ogonekcomb;
}
);
width = 548;
}
);
unicode = 260;
},
{
glyphname = Aring;
kernLeft = A;
kernRight = A;
lastChange = "2023-02-17 10:55:32 +0000";
layers = (
{
background = {
shapes = (
{
closed = 1;
nodes = (
(123,0,l),
(164,177,l),
(384,177,l),
(425,0,l),
(513,0,l),
(347,700,l),
(201,700,l),
(35,0,l,{
name = hr00;
})
);
},
{
closed = 1;
nodes = (
(367,247,l),
(180,247,l),
(271,636,l),
(277,636,l)
);
},
{
closed = 1;
nodes = (
(292,847,o),
(307,844,o),
(307,812,cs),
(307,779,o),
(292,777,o),
(274,777,cs),
(256,777,o),
(241,779,o),
(241,812,cs),
(241,844,o),
(256,847,o),
(274,847,c,{
name = hr00;
})
);
},
{
closed = 1;
nodes = (
(222,896,o),
(187,888,o),
(187,812,cs),
(187,736,o),
(222,728,o),
(274,728,cs),
(326,728,o),
(361,736,o),
(361,812,cs),
(361,888,o),
(326,896,o),
(274,896,c)
);
}
);
};
layerId = master01;
shapes = (
{
ref = A;
},
{
pos = (59,0);
ref = ringcomb.case;
}
);
width = 548;
}
);
unicode = 197;
},
{
glyphname = Aringacute;
kernLeft = A;
kernRight = A;
lastChange = "2023-02-17 10:55:32 +0000";
layers = (
{
background = {
shapes = (
{
closed = 1;
nodes = (
(123,0,l),
(164,177,l),
(384,177,l),
(425,0,l),
(513,0,l),
(347,700,l),
(201,700,l),
(35,0,l,{
name = hr00;
})
);
},
{
closed = 1;
nodes = (
(367,247,l),
(180,247,l),
(271,636,l),
(277,636,l)
);
},
{
closed = 1;
nodes = (
(416,958,l),
(334,885,l),
(319,894,o),
(298,896,o),
(274,896,cs),
(222,896,o),
(187,888,o),
(187,812,cs),
(187,736,o),
(222,728,o),
(274,728,cs),
(326,728,o),
(361,736,o),
(361,812,cs),
(361,822,o),
(360,832,o),
(359,840,c),
(462,891,l,{
name = hr00;
})
);
},
{
closed = 1;
nodes = (
(256,777,o),
(241,779,o),
(241,812,cs),
(241,844,o),
(256,847,o),
(274,847,cs),
(292,847,o),
(307,844,o),
(307,812,cs),
(307,779,o),
(292,777,o),
(274,777,c)
);
}
);
};
layerId = master01;
shapes = (
{
closed = 1;
nodes = (
(326,728,o),
(361,736,o),
(361,812,cs),
(361,822,o),
(360,832,o),
(359,840,c),
(462,891,l,{
name = hr00;
}),
(416,958,l),
(334,885,l),
(319,894,o),
(298,896,o),
(274,896,cs),
(222,896,o),
(187,888,o),
(187,812,cs),
(187,736,o),
(222,728,o),
(274,728,cs)
);
},
{
ref = A;
},
{
closed = 1;
nodes = (
(256,777,o),
(241,779,o),
(241,812,cs),
(241,844,o),
(256,847,o),
(274,847,cs),
(292,847,o),
(307,844,o),
(307,812,cs),
(307,779,o),
(292,777,o),
(274,777,c)
);
}
);
width = 548;
}
);
unicode = 506;
},
{
glyphname = Atilde;
kernLeft = A;
kernRight = A;
lastChange = "2023-02-17 10:55:32 +0000";
layers = (
{
background = {
shapes = (
{
closed = 1;
nodes = (
(123,0,l),
(164,177,l),
(384,177,l),
(425,0,l),
(513,0,l),
(347,700,l),
(201,700,l),
(35,0,l,{
name = hr00;
})
);
},
{
closed = 1;
nodes = (
(367,247,l),
(180,247,l),
(271,636,l),
(277,636,l)
);
},
{
closed = 1;
nodes = (
(363,837,o),
(347,830,o),
(327,830,cs),
(289,830,o),
(261,857,o),
(226,857,cs,{
name = hr01;
}),
(202,857,o),
(183,852,o),
(142,810,c),
(164,772,l),
(184,785,o),
(200,792,o),
(220,792,cs),
(258,792,o),
(286,765,o),
(321,765,cs,{
name = hr02;
}),
(345,765,o),
(364,770,o),
(405,812,c),
(383,850,l)
);
}
);
};
layerId = master01;
shapes = (
{
ref = A;
},
{
pos = (43,0);
ref = tildecomb.case;
}
);
width = 548;
}
);
unicode = 195;
},
{
glyphname = AE;
kernLeft = A;
lastChange = "2023-02-17 10:55:42 +0000";
layers = (
{
anchors = (
{
name = bottom;
pos = (378,0);
},
{
name = top;
pos = (498,700);
}
);
background = {
shapes = (
{
closed = 1;
nodes = (
(88,0,l),
(195,276,l),
(373,276,l),
(373,0,l),
(716,0,l),
(716,70,l),
(459,70,l),
(459,276,l),
(676,276,l),
(676,346,l),
(459,346,l),
(459,630,l),
(696,630,l),
(706,700,l),
(275,700,l),
(0,0,l,{
name = hr00;
})
);
},
{
closed = 1;
nodes = (
(332,630,l),
(373,630,l),
(373,346,l),
(222,346,l)
);
}
);
};
layerId = master01;
shapes = (
{
closed = 1;
nodes = (
(88,0,l),
(195,276,l),
(373,276,l),
(373,0,l),
(716,0,l),
(716,70,l),
(459,70,l),
(459,276,l),
(676,276,l),
(676,346,l),
(459,346,l),
(459,630,l),
(696,630,l),
(706,700,l),
(275,700,l),
(0,0,l,{
name = hr00;
})
);
},
{
closed = 1;
nodes = (
(332,630,l),
(373,630,l),
(373,346,l),
(222,346,l)
);
}
);
width = 756;
}
);
unicode = 198;
},
{
glyphname = AEacute;
kernLeft = A;
lastChange = "2023-02-17 10:55:42 +0000";
layers = (
{
background = {
shapes = (
{
closed = 1;
nodes = (
(88,0,l),
(195,276,l),
(373,276,l),
(373,0,l),
(716,0,l),
(716,70,l),
(459,70,l),
(459,276,l),
(676,276,l),
(676,346,l),
(459,346,l),
(459,630,l),
(696,630,l),
(706,700,l),
(275,700,l),
(0,0,l,{
name = hr00;
})
);
},
{
closed = 1;
nodes = (
(332,630,l),
(373,630,l),
(373,346,l),
(222,346,l)
);
},
{
closed = 1;
nodes = (
(415,731,l),
(603,834,l),
(557,901,l),
(392,765,l,{
name = hr00;
})
);
}
);
};
layerId = master01;
shapes = (
{
ref = AE;
},
{
pos = (268,0);
ref = acutecomb.case;
}
);
width = 756;
}
);
unicode = 508;
},
{
glyphname = B;
lastChange = "2023-02-17 10:52:01 +0000";
layers = (
{
anchors = (
{
name = bottom;
pos = (274,0);
},
{
name = center;
pos = (274,350);
},
{
name = top;
pos = (274,700);
}
);
background = {
shapes = (
{
closed = 1;
nodes = (
(90,0,l),
(261,0,ls),
(420,0,o),
(473,59,o),
(473,195,cs),
(473,283,o),
(446,329,o),
(383,351,c),
(432,375,o),
(453,421,o),
(453,503,cs,{
name = hr01;
}),
(453,641,o),
(404,700,o),
(256,700,cs),
(90,700,l)
);
},
{
closed = 1;
nodes = (
(386,114,o),
(386,71,o),
(262,71,cs),
(176,71,l),
(176,320,l),
(252,320,ls),
(386,320,o),
(386,277,o),
(386,215,cs),
(386,176,l,{
name = hr02;
})
);
},
{
closed = 1;
nodes = (
(366,420,o),
(366,377,o),
(245,377,cs),
(176,377,l),
(176,629,l),
(255,629,ls),
(366,629,o),
(366,586,o),
(366,522,cs),
(366,483,l,{
name = hr03;
})
);
}
);
};
layerId = master01;
shapes = (
{
closed = 1;
nodes = (
(90,0,l),
(261,0,ls),
(420,0,o),
(473,59,o),
(473,195,cs),
(473,283,o),
(446,329,o),
(383,351,c),
(432,375,o),
(453,421,o),
(453,503,cs,{
name = hr01;
}),
(453,641,o),
(404,700,o),
(256,700,cs),
(90,700,l)
);
},
{
closed = 1;
nodes = (
(386,114,o),
(386,71,o),
(262,71,cs),
(176,71,l),
(176,320,l),
(252,320,ls),
(386,320,o),
(386,277,o),
(386,215,cs),
(386,176,l,{
name = hr02;
})
);
},
{
closed = 1;
nodes = (
(366,420,o),
(366,377,o),
(245,377,cs),
(176,377,l),
(176,629,l),
(255,629,ls),
(366,629,o),
(366,586,o),
(366,522,cs),
(366,483,l,{
name = hr03;
})
);
}
);
width = 548;
}
);
unicode = 66;
},
{
glyphname = C;
lastChange = "2023-02-17 10:52:01 +0000";
layers = (
{
anchors = (
{
name = bottom;
pos = (275,0);
},
{
name = top;
pos = (262,700);
}
);
background = {
shapes = (
{
closed = 1;
nodes = (
(77,712,o),
(75,615,o),
(75,349,cs),
(75,82,o),
(77,-12,o),
(296,-12,cs),
(352,-12,o),
(408,3,o),
(439,16,c),
(420,75,l),
(381,65,o),
(347,59,o),
(297,59,cs),
(162,59,o),
(162,115,o),
(162,193,cs),
(162,507,ls),
(162,585,o),
(162,641,o),
(297,641,cs),
(348,641,o),
(386,635,o),
(411,629,c),
(426,694,l),
(381,708,o),
(323,712,o),
(296,712,c,{
name = hr00;
})
);
}
);
};
layerId = master01;
shapes = (
{
closed = 1;
nodes = (
(77,712,o),
(75,615,o),
(75,349,cs),
(75,82,o),
(77,-12,o),
(296,-12,cs),
(352,-12,o),
(408,3,o),
(439,16,c),
(420,75,l),
(381,65,o),
(347,59,o),
(297,59,cs),
(162,59,o),
(162,115,o),
(162,193,cs),
(162,507,ls),
(162,585,o),
(162,641,o),
(297,641,cs),
(348,641,o),
(386,635,o),
(411,629,c),
(426,694,l),
(381,708,o),
(323,712,o),
(296,712,c,{
name = hr00;
})
);
}
);
width = 479;
}
);
unicode = 67;
},
{
glyphname = Cacute;
lastChange = "2023-02-17 10:52:01 +0000";
layers = (
{
background = {
shapes = (
{
closed = 1;
nodes = (
(77,712,o),
(75,615,o),
(75,349,cs),
(75,82,o),
(77,-12,o),
(296,-12,cs),
(352,-12,o),
(408,3,o),
(439,16,c),
(420,75,l),
(381,65,o),
(347,59,o),
(297,59,cs),
(162,59,o),
(162,115,o),
(162,193,cs),
(162,507,ls),
(162,585,o),
(162,641,o),
(297,641,cs),
(348,641,o),
(386,635,o),
(411,629,c),
(426,694,l),
(381,708,o),
(323,712,o),
(296,712,c,{
name = hr00;
})
);
},
{
closed = 1;
nodes = (
(177,731,l),
(365,834,l),
(319,901,l),
(154,765,l,{
name = hr00;
})
);
}
);
};
layerId = master01;
shapes = (
{
ref = C;
},
{
pos = (32,0);
ref = acutecomb.case;
}
);
width = 479;
}
);
unicode = 262;
},
{
glyphname = Ccaron;
lastChange = "2023-02-17 10:52:01 +0000";
layers = (
{
background = {
shapes = (
{
closed = 1;
nodes = (
(77,712,o),
(75,615,o),
(75,349,cs),
(75,82,o),
(77,-12,o),
(296,-12,cs),
(352,-12,o),
(408,3,o),
(439,16,c),
(420,75,l),
(381,65,o),
(347,59,o),
(297,59,cs),
(162,59,o),
(162,115,o),
(162,193,cs),
(162,507,ls),
(162,585,o),
(162,641,o),
(297,641,cs),
(348,641,o),
(386,635,o),
(411,629,c),
(426,694,l),
(381,708,o),
(323,712,o),
(296,712,c,{
name = hr00;
})
);
},
{
closed = 1;
nodes = (
(126,845,l),
(260,729,l),
(393,845,l),
(363,882,l),
(260,815,l),
(157,882,l,{
name = hr00;
})
);
}
);
};
layerId = master01;
shapes = (
{
ref = C;
},
{
pos = (46,0);
ref = caroncomb.case;
}
);
width = 479;
}
);
unicode = 268;
},
{
glyphname = Ccedilla;
lastChange = "2023-02-17 10:52:01 +0000";
layers = (
{
background = {
shapes = (
{
closed = 1;
nodes = (
(77,712,o),
(75,615,o),
(75,349,cs),
(75,82,o),
(77,-12,o),
(296,-12,cs),
(352,-12,o),
(408,3,o),
(439,16,c),
(420,75,l),
(381,65,o),
(347,59,o),
(297,59,cs),
(162,59,o),
(162,115,o),
(162,193,cs),
(162,507,ls),
(162,585,o),
(162,641,o),
(297,641,cs),
(348,641,o),
(386,635,o),
(411,629,c),
(426,694,l),
(381,708,o),
(323,712,o),
(296,712,c,{
name = hr00;
})
);
},
{
closed = 1;
nodes = (
(237,0,l),
(227,-70,l),
(242,-94,l),
(262,-94,ls),
(291,-94,o),
(291,-112,o),
(291,-122,cs),
(291,-136,o),
(291,-150,o),
(255,-150,cs),
(229,-150,o),
(225,-147,o),
(204,-142,c),
(194,-177,l),
(205,-183,o),
(231,-194,o),
(265,-194,cs),
(345,-194,o),
(356,-157,o),
(356,-118,cs),
(356,-85,o),
(346,-56,o),
(283,-56,cs),
(271,-56,l),
(278,0,l,{
name = hr00;
})
);
}
);
};
layerId = master01;
shapes = (
{
ref = C;
},
{
pos = (184,0);
ref = cedillacomb;
}
);
width = 479;
}
);
unicode = 199;
},
{
glyphname = Ccircumflex;
lastChange = "2023-02-17 10:52:01 +0000";
layers = (
{
background = {
shapes = (
{
closed = 1;
nodes = (
(77,712,o),
(75,615,o),
(75,349,cs),
(75,82,o),
(77,-12,o),
(296,-12,cs),
(352,-12,o),
(408,3,o),
(439,16,c),
(420,75,l),
(381,65,o),
(347,59,o),
(297,59,cs),
(162,59,o),
(162,115,o),
(162,193,cs),
(162,507,ls),
(162,585,o),
(162,641,o),
(297,641,cs),
(348,641,o),
(386,635,o),
(411,629,c),
(426,694,l),
(381,708,o),
(323,712,o),
(296,712,c,{
name = hr00;
})
);
},
{
closed = 1;
nodes = (
(393,775,l),
(259,891,l),
(126,775,l),
(156,738,l),
(259,805,l),
(362,738,l,{
name = hr00;
})
);
}
);
};
layerId = master01;
shapes = (
{
ref = C;
},
{
pos = (46,0);
ref = circumflexcomb.case;
}
);
width = 479;
}
);
unicode = 264;
},
{
glyphname = Cdotaccent;
lastChange = "2023-02-17 10:52:01 +0000";
layers = (
{
background = {
shapes = (
{
closed = 1;
nodes = (
(77,712,o),
(75,615,o),
(75,349,cs),
(75,82,o),
(77,-12,o),
(296,-12,cs),
(352,-12,o),
(408,3,o),
(439,16,c),
(420,75,l),
(381,65,o),
(347,59,o),
(297,59,cs),
(162,59,o),
(162,115,o),
(162,193,cs),
(162,507,ls),
(162,585,o),
(162,641,o),
(297,641,cs),
(348,641,o),
(386,635,o),
(411,629,c),
(426,694,l),
(381,708,o),
(323,712,o),
(296,712,c,{
name = hr00;
})
);
},
{
closed = 1;
nodes = (
(225,867,o),
(203,867,o),
(203,812,cs),
(203,756,o),
(225,756,o),
(260,756,cs),
(295,756,o),
(317,756,o),
(317,812,cs),
(317,867,o),
(295,867,o),
(260,867,c,{
name = hr00;
})
);
}
);
};
layerId = master01;
shapes = (
{
ref = C;
},
{
pos = (135,0);
ref = dotaccentcomb.case;
}
);
width = 479;
}
);
unicode = 266;
},
{
glyphname = D;
lastChange = "2023-02-17 10:52:01 +0000";
layers = (
{
anchors = (
{
name = bottom;
pos = (294,0);
},
{
name = center;
pos = (294,350);
},
{
name = top;
pos = (294,700);
}
);
background = {
shapes = (
{
closed = 1;
nodes = (
(90,0,l),
(290,0,ls),
(510,0,o),
(512,82,o),
(512,349,cs),
(512,615,o),
(510,700,o),
(290,700,cs),
(90,700,l,{
name = hr00;
})
);
},
{
closed = 1;
nodes = (
(291,628,ls),
(425,628,o),
(425,575,o),
(425,497,cs),
(425,205,ls),
(425,127,o),
(425,74,o),
(291,74,cs),
(176,74,l),
(176,628,l)
);
}
);
};
layerId = master01;
shapes = (
{
closed = 1;
nodes = (
(90,0,l),
(290,0,ls),
(510,0,o),
(512,82,o),
(512,349,cs),
(512,615,o),
(510,700,o),
(290,700,cs),
(90,700,l,{
name = hr00;
})
);
},
{
closed = 1;
nodes = (
(291,628,ls),
(425,628,o),
(425,575,o),
(425,497,cs),
(425,205,ls),
(425,127,o),
(425,74,o),
(291,74,cs),
(176,74,l),
(176,628,l)
);
}
);
width = 587;
}
);
unicode = 68;
},
{
glyphname = Eth;
lastChange = "2023-02-17 10:52:01 +0000";
layers = (
{
background = {
shapes = (
{
closed = 1;
nodes = (
(36,321,l),
(90,321,l),
(90,0,l),
(290,0,ls),
(510,0,o),
(512,82,o),
(512,349,cs),
(512,615,o),
(510,700,o),
(290,700,cs),
(90,700,l),
(90,381,l),
(36,381,l,{
name = hr00;
})
);
},
{
closed = 1;
nodes = (
(291,628,ls),
(425,628,o),
(425,575,o),
(425,497,cs),
(425,205,ls),
(425,127,o),
(425,74,o),
(291,74,cs),
(176,74,l),
(176,321,l),
(316,321,l),
(316,381,l),
(176,381,l),
(176,628,l)
);
}
);
};
layerId = master01;
shapes = (
{
closed = 1;
nodes = (
(36,321,l),
(90,321,l),
(90,0,l),
(290,0,ls),
(510,0,o),
(512,82,o),
(512,349,cs),
(512,615,o),
(510,700,o),
(290,700,cs),
(90,700,l),
(90,381,l),
(36,381,l,{
name = hr00;
})
);
},
{
closed = 1;
nodes = (
(291,628,ls),
(425,628,o),
(425,575,o),
(425,497,cs),
(425,205,ls),
(425,127,o),
(425,74,o),
(291,74,cs),
(176,74,l),
(176,321,l),
(316,321,l),
(316,381,l),
(176,381,l),
(176,628,l)
);
}
);
width = 587;
}
);
unicode = 208;
},
{
glyphname = Dcaron;
lastChange = "2023-02-17 10:52:01 +0000";
layers = (
{
background = {
shapes = (
{
closed = 1;
nodes = (
(90,0,l),
(290,0,ls),
(510,0,o),
(512,82,o),
(512,349,cs),
(512,615,o),
(510,700,o),
(290,700,cs),
(90,700,l,{
name = hr00;
})
);
},
{
closed = 1;
nodes = (
(291,628,ls),
(425,628,o),
(425,575,o),
(425,497,cs),
(425,205,ls),
(425,127,o),
(425,74,o),
(291,74,cs),
(176,74,l),
(176,628,l)
);
},
{
closed = 1;
nodes = (
(160,845,l),
(294,729,l),
(427,845,l),
(397,882,l),
(294,815,l),
(191,882,l,{
name = hr00;
})
);
}
);
};
layerId = master01;
shapes = (
{
ref = D;
},
{
pos = (78,0);
ref = caroncomb.case;
}
);
width = 587;
}
);
unicode = 270;
},
{
glyphname = Dcroat;
lastChange = "2023-02-17 10:52:01 +0000";
layers = (
{
background = {
shapes = (
{
closed = 1;
nodes = (
(36,321,l),
(90,321,l),
(90,0,l),
(290,0,ls),
(510,0,o),
(512,82,o),
(512,349,cs),
(512,615,o),
(510,700,o),
(290,700,cs),
(90,700,l),
(90,381,l),
(36,381,l,{
name = hr00;
})
);
},
{
closed = 1;
nodes = (
(291,628,ls),
(425,628,o),
(425,575,o),
(425,497,cs),
(425,205,ls),
(425,127,o),
(425,74,o),
(291,74,cs),
(176,74,l),
(176,321,l),
(316,321,l),
(316,381,l),
(176,381,l),
(176,628,l)
);
}
);
};
layerId = master01;
shapes = (
{
ref = Eth;
}
);
width = 587;
}
);
unicode = 272;
},
{
glyphname = E;
lastChange = "2023-02-17 10:52:01 +0000";
layers = (
{
anchors = (
{
name = bottom;
pos = (237,0);
},
{
name = ogonek;
pos = (483,15);
},
{
name = top;
pos = (257,700);
},
{
name = topleft;
pos = (20,700);
}
);
background = {
shapes = (
{
closed = 1;
nodes = (
(90,0,l),
(433,0,l),
(433,70,l),
(176,70,l),
(176,316,l),
(393,316,l),
(393,386,l),
(176,386,l),
(176,630,l),
(413,630,l),
(423,700,l),
(90,700,l,{
name = hr00;
})
);
}
);
};
layerId = master01;
shapes = (
{
closed = 1;
nodes = (
(90,0,l),
(433,0,l),
(433,70,l),
(176,70,l),
(176,316,l),
(393,316,l),
(393,386,l),
(176,386,l),
(176,630,l),
(413,630,l),
(423,700,l),
(90,700,l,{
name = hr00;
})
);
}
);
width = 473;
}
);
unicode = 69;
},
{
glyphname = Eacute;
lastChange = "2023-02-17 10:52:01 +0000";
layers = (
{
background = {
shapes = (
{
closed = 1;
nodes = (
(90,0,l),
(433,0,l),
(433,70,l),
(176,70,l),
(176,316,l),
(393,316,l),
(393,386,l),
(176,386,l),
(176,630,l),
(413,630,l),
(423,700,l),
(90,700,l,{
name = hr00;
})
);
},
{
closed = 1;
nodes = (
(174,731,l),
(362,834,l),
(316,901,l),
(151,765,l,{
name = hr00;
})
);
}
);
};
layerId = master01;
shapes = (
{
ref = E;
},
{
pos = (27,0);
ref = acutecomb.case;
}
);
width = 473;
}
);
unicode = 201;
},
{
glyphname = Ebreve;
lastChange = "2023-02-17 10:52:01 +0000";
layers = (
{
background = {
shapes = (
{
closed = 1;
nodes = (
(90,0,l),
(433,0,l),
(433,70,l),
(176,70,l),
(176,316,l),
(393,316,l),
(393,386,l),
(176,386,l),
(176,630,l),
(413,630,l),
(423,700,l),
(90,700,l,{
name = hr00;
})
);
},
{
closed = 1;
nodes = (
(314,736,o),
(343,757,o),
(365,803,cs),
(386,847,l),
(341,869,l),
(325,838,o),
(310,806,o),
(257,806,cs),
(204,806,o),
(189,838,o),
(173,869,c),
(128,847,l),
(149,803,ls),
(171,757,o),
(200,736,o),
(257,736,c,{
name = hr00;
})
);
}
);
};
layerId = master01;
shapes = (
{
ref = E;
},
{
pos = (42,0);
ref = brevecomb.case;
}
);
width = 473;
}
);
unicode = 276;
},
{
glyphname = Ecaron;
lastChange = "2023-02-17 10:52:01 +0000";
layers = (
{
background = {
shapes = (
{
closed = 1;
nodes = (
(90,0,l),
(433,0,l),
(433,70,l),
(176,70,l),
(176,316,l),
(393,316,l),
(393,386,l),
(176,386,l),
(176,630,l),
(413,630,l),
(423,700,l),
(90,700,l,{
name = hr00;
})
);
},
{
closed = 1;
nodes = (
(123,845,l),
(257,729,l),
(390,845,l),
(360,882,l),
(257,815,l),
(154,882,l,{
name = hr00;
})
);
}
);
};
layerId = master01;
shapes = (
{
ref = E;
},
{
pos = (41,0);
ref = caroncomb.case;
}
);
width = 473;
}
);
unicode = 282;
},
{
glyphname = Ecircumflex;
lastChange = "2023-02-17 10:52:01 +0000";
layers = (
{
background = {
shapes = (
{
closed = 1;
nodes = (
(90,0,l),
(433,0,l),
(433,70,l),
(176,70,l),
(176,316,l),
(393,316,l),
(393,386,l),
(176,386,l),
(176,630,l),
(413,630,l),
(423,700,l),
(90,700,l,{
name = hr00;
})
);
},
{
closed = 1;
nodes = (
(390,775,l),
(256,891,l),
(123,775,l),
(153,738,l),
(256,805,l),
(359,738,l,{
name = hr00;
})
);
}
);
};
layerId = master01;
shapes = (
{
ref = E;
},
{
pos = (41,0);
ref = circumflexcomb.case;
}
);
width = 473;
}
);
unicode = 202;
},
{
glyphname = Edieresis;
lastChange = "2023-02-17 10:52:01 +0000";
layers = (
{
background = {
shapes = (
{
closed = 1;
nodes = (
(90,0,l),
(433,0,l),
(433,70,l),
(176,70,l),
(176,316,l),
(393,316,l),
(393,386,l),
(176,386,l),
(176,630,l),
(413,630,l),
(423,700,l),
(90,700,l,{
name = hr00;
})
);
},
{
closed = 1;
nodes = (
(135,862,o),
(115,862,o),
(115,812,cs),
(115,761,o),
(135,761,o),
(167,761,cs),
(199,761,o),
(219,761,o),
(219,812,cs),
(219,862,o),
(199,862,o),
(167,862,c,{
name = hr00;
})
);
},
{
closed = 1;
nodes = (
(315,862,o),
(295,862,o),
(295,812,cs),
(295,761,o),
(315,761,o),
(347,761,cs),
(379,761,o),
(399,761,o),
(399,812,cs),
(399,862,o),
(379,862,o),
(347,862,c)
);
}
);
};
layerId = master01;
shapes = (
{
ref = E;
},
{
pos = (42,0);
ref = dieresiscomb.case;
}
);
width = 473;
}
);
unicode = 203;
},
{
glyphname = Edotaccent;
lastChange = "2023-02-17 10:52:01 +0000";
layers = (
{
background = {
shapes = (
{
closed = 1;
nodes = (
(90,0,l),
(433,0,l),
(433,70,l),
(176,70,l),
(176,316,l),
(393,316,l),
(393,386,l),
(176,386,l),
(176,630,l),
(413,630,l),
(423,700,l),
(90,700,l,{
name = hr00;
})
);
},
{
closed = 1;
nodes = (
(222,867,o),
(200,867,o),
(200,812,cs),
(200,756,o),
(222,756,o),
(257,756,cs),
(292,756,o),
(314,756,o),
(314,812,cs),
(314,867,o),
(292,867,o),
(257,867,c,{
name = hr00;
})
);
}
);
};
layerId = master01;
shapes = (
{
ref = E;
},
{
pos = (130,0);
ref = dotaccentcomb.case;
}
);
width = 473;
}
);
unicode = 278;
},
{
glyphname = Egrave;
lastChange = "2023-02-17 13:10:10 +0000";
layers = (
{
background = {
shapes = (
{
closed = 1;
nodes = (
(90,0,l),
(433,0,l),
(433,70,l),
(176,70,l),
(176,316,l),
(393,316,l),
(393,386,l),
(176,386,l),
(176,630,l),
(413,630,l),
(423,700,l),
(90,700,l,{
name = hr00;
})
);
},
{
closed = 1;
nodes = (
(362,765,l),
(197,901,l),
(151,834,l),
(339,731,l,{
name = hr00;
})
);
}
);
};
layerId = master01;
shapes = (
{
ref = E;
},
{
pos = (57,180);
ref = gravecomb.case;
}
);
width = 473;
}
);
unicode = 200;
},
{
glyphname = Emacron;
lastChange = "2023-02-17 10:52:01 +0000";
layers = (
{
background = {
shapes = (
{
closed = 1;
nodes = (
(90,0,l),
(433,0,l),
(433,70,l),
(176,70,l),
(176,316,l),
(393,316,l),
(393,386,l),
(176,386,l),
(176,630,l),
(413,630,l),
(423,700,l),
(90,700,l,{
name = hr00;
})
);
},
{
closed = 1;
nodes = (
(137,780,l),
(377,780,l),
(377,843,l),
(137,843,l,{
name = hr00;
})
);
}
);
};
layerId = master01;
shapes = (
{
ref = E;
},
{
pos = (57,0);
ref = macroncomb.case;
}
);
width = 473;
}
);
unicode = 274;
},
{
glyphname = Eogonek;
lastChange = "2023-02-17 10:52:01 +0000";
layers = (
{
background = {
shapes = (
{
closed = 1;
nodes = (
(90,0,l),
(433,0,l),
(433,70,l),
(176,70,l),
(176,316,l),
(393,316,l),
(393,386,l),
(176,386,l),
(176,630,l),
(413,630,l),
(423,700,l),
(90,700,l,{
name = hr00;
})
);
},
{
closed = 1;
nodes = (
(402,15,l),
(347,-44,ls),
(321,-72,o),
(311,-90,o),
(311,-113,cs),
(311,-143,o),
(322,-177,o),
(383,-177,cs),
(431,-177,o),
(465,-157,o),
(483,-144,c),
(473,-109,l),
(449,-125,o),
(428,-133,o),
(402,-133,cs),
(379,-133,o),
(376,-120,o),
(376,-107,cs),
(376,-91,o),
(400,-53,o),
(413,-33,cs),
(433,0,l),
(433,15,l,{
name = hr00;
})
);
}
);
};
layerId = master01;
shapes = (
{
ref = E;
},
{
pos = (295,0);
ref = ogonekcomb;
}
);
width = 473;
}
);
unicode = 280;
},
{
glyphname = F;
kernRight = F;
lastChange = "2023-02-17 11:12:15 +0000";
layers = (
{
anchors = (
{
name = bottom;
pos = (217,0);
},
{
name = top;
pos = (217,700);
}
);
background = {
shapes = (
{
closed = 1;
nodes = (
(90,700,l),
(90,0,l),
(176,0,l),
(176,316,l),
(383,316,l),
(383,386,l),
(176,386,l),
(176,630,l),
(403,630,l),
(413,700,l,{
name = hr00;
})
);
}
);
};
layerId = master01;
shapes = (
{
closed = 1;
nodes = (
(90,700,l),
(90,0,l),
(176,0,l),
(176,316,l),
(383,316,l),
(383,386,l),
(176,386,l),
(176,630,l),
(403,630,l),
(413,700,l,{
name = hr00;
})
);
}
);
width = 433;
}
);
unicode = 70;
},
{
glyphname = G;
lastChange = "2023-02-17 10:52:01 +0000";
layers = (
{
anchors = (
{
name = bottom;
pos = (296,0);
},
{
name = top;
pos = (276,700);
}
);
background = {
shapes = (
{
closed = 1;
nodes = (
(297,355,l),
(297,295,l),
(392,295,l),
(392,68,l),
(363,62,o),
(335,59,o),
(297,59,cs),
(162,59,o),
(162,115,o),
(162,193,cs),
(162,510,ls),
(162,588,o),
(162,641,o),
(297,641,cs),
(348,641,o),
(406,631,o),
(431,625,c),
(446,690,l),
(403,703,o),
(342,712,o),
(296,712,cs),
(77,712,o),
(75,615,o),
(75,349,cs),
(75,82,o),
(77,-12,o),
(296,-12,cs),
(352,-12,o),
(432,4,o),
(472,26,c),
(472,355,l,{
name = hr00;
})
);
}
);
};
layerId = master01;
shapes = (
{
closed = 1;
nodes = (
(297,355,l),
(297,295,l),
(392,295,l),
(392,68,l),
(363,62,o),
(335,59,o),
(297,59,cs),
(162,59,o),
(162,115,o),
(162,193,cs),
(162,510,ls),
(162,588,o),
(162,641,o),
(297,641,cs),
(348,641,o),
(406,631,o),
(431,625,c),
(446,690,l),
(403,703,o),
(342,712,o),
(296,712,cs),
(77,712,o),
(75,615,o),
(75,349,cs),
(75,82,o),
(77,-12,o),
(296,-12,cs),
(352,-12,o),
(432,4,o),
(472,26,c),
(472,355,l,{
name = hr00;
})
);
}
);
width = 552;
}
);
unicode = 71;
},
{
glyphname = Gbreve;
lastChange = "2023-02-17 10:52:01 +0000";
layers = (
{
background = {
shapes = (
{
closed = 1;
nodes = (
(297,355,l),
(297,295,l),
(392,295,l),
(392,68,l),
(363,62,o),
(335,59,o),
(297,59,cs),
(162,59,o),
(162,115,o),
(162,193,cs),
(162,510,ls),
(162,588,o),
(162,641,o),
(297,641,cs),
(348,641,o),
(406,631,o),
(431,625,c),
(446,690,l),
(403,703,o),
(342,712,o),
(296,712,cs),
(77,712,o),
(75,615,o),
(75,349,cs),
(75,82,o),
(77,-12,o),
(296,-12,cs),
(352,-12,o),
(432,4,o),
(472,26,c),
(472,355,l,{
name = hr00;
})
);
},
{
closed = 1;
nodes = (
(333,736,o),
(362,757,o),
(384,803,cs),
(405,847,l),
(360,869,l),
(344,838,o),
(329,806,o),
(276,806,cs),
(223,806,o),
(208,838,o),
(192,869,c),
(147,847,l),
(168,803,ls),
(190,757,o),
(219,736,o),
(276,736,c,{
name = hr00;
})
);
}
);
};
layerId = master01;
shapes = (
{
ref = G;
},
{
pos = (61,0);
ref = brevecomb.case;
}
);
width = 552;
}
);
unicode = 286;
},
{
glyphname = Gcircumflex;
lastChange = "2023-02-17 10:52:01 +0000";
layers = (
{
background = {
shapes = (
{
closed = 1;
nodes = (
(297,355,l),
(297,295,l),
(392,295,l),
(392,68,l),
(363,62,o),
(335,59,o),
(297,59,cs),
(162,59,o),
(162,115,o),
(162,193,cs),
(162,510,ls),
(162,588,o),
(162,641,o),
(297,641,cs),
(348,641,o),
(406,631,o),
(431,625,c),
(446,690,l),
(403,703,o),
(342,712,o),
(296,712,cs),
(77,712,o),
(75,615,o),
(75,349,cs),
(75,82,o),
(77,-12,o),
(296,-12,cs),
(352,-12,o),
(432,4,o),
(472,26,c),
(472,355,l,{
name = hr00;
})
);
},
{
closed = 1;
nodes = (
(409,775,l),
(275,891,l),
(142,775,l),
(172,738,l),
(275,805,l),
(378,738,l,{
name = hr00;
})
);
}
);
};
layerId = master01;
shapes = (
{
ref = G;
},
{
pos = (60,0);
ref = circumflexcomb.case;
}
);
width = 552;
}
);
unicode = 284;
},
{
glyphname = Gcommaaccent;
lastChange = "2023-02-17 10:52:01 +0000";
layers = (
{
background = {
shapes = (
{
closed = 1;
nodes = (
(297,355,l),
(297,295,l),
(392,295,l),
(392,68,l),
(363,62,o),
(335,59,o),
(297,59,cs),
(162,59,o),
(162,115,o),
(162,193,cs),
(162,510,ls),
(162,588,o),
(162,641,o),
(297,641,cs),
(348,641,o),
(406,631,o),
(431,625,c),
(446,690,l),
(403,703,o),
(342,712,o),
(296,712,cs),
(77,712,o),
(75,615,o),
(75,349,cs),
(75,82,o),
(77,-12,o),
(296,-12,cs),
(352,-12,o),
(432,4,o),
(472,26,c),
(472,355,l,{
name = hr00;
})
);
},
{
closed = 1;
nodes = (
(263,-50,o),
(241,-50,o),
(241,-105,cs),
(241,-140,o),
(249,-153,o),
(264,-158,c),
(236,-241,l),
(281,-265,l),
(322,-200,ls),
(335,-179,o),
(345,-159,o),
(351,-138,cs),
(353,-130,o),
(355,-119,o),
(355,-105,cs),
(355,-50,o),
(333,-50,o),
(298,-50,c,{
name = hr00;
})
);
}
);
};
layerId = master01;
shapes = (
{
ref = G;
},
{
pos = (177,0);
ref = commaaccentcomb;
}
);
width = 552;
}
);
unicode = 290;
},
{
glyphname = Gdotaccent;
lastChange = "2023-02-17 10:52:01 +0000";
layers = (
{
background = {
shapes = (
{
closed = 1;
nodes = (
(297,355,l),
(297,295,l),
(392,295,l),
(392,68,l),
(363,62,o),
(335,59,o),
(297,59,cs),
(162,59,o),
(162,115,o),
(162,193,cs),
(162,510,ls),
(162,588,o),
(162,641,o),
(297,641,cs),
(348,641,o),
(406,631,o),
(431,625,c),
(446,690,l),
(403,703,o),
(342,712,o),
(296,712,cs),
(77,712,o),
(75,615,o),
(75,349,cs),
(75,82,o),
(77,-12,o),
(296,-12,cs),
(352,-12,o),
(432,4,o),
(472,26,c),
(472,355,l,{
name = hr00;
})
);
},
{
closed = 1;
nodes = (
(241,867,o),
(219,867,o),
(219,812,cs),
(219,756,o),
(241,756,o),
(276,756,cs),
(311,756,o),
(333,756,o),
(333,812,cs),
(333,867,o),
(311,867,o),
(276,867,c,{
name = hr00;
})
);
}
);
};
layerId = master01;
shapes = (
{
ref = G;
},
{
pos = (149,0);
ref = dotaccentcomb.case;
}
);
width = 552;
}
);
unicode = 288;
},
{
glyphname = H;
lastChange = "2023-02-17 10:52:01 +0000";
layers = (
{
anchors = (
{
name = bottom;
pos = (296,0);
},
{
name = center;
pos = (296,350);
},
{
name = top;
pos = (296,700);
},
{
name = topleft;
pos = (20,700);
}
);
background = {
shapes = (
{
closed = 1;
nodes = (
(416,700,l),
(416,386,l),
(176,386,l),
(176,700,l),
(90,700,l),
(90,0,l),
(176,0,l),
(176,316,l),
(416,316,l),
(416,0,l),
(502,0,l),
(502,700,l,{
name = hr00;
})
);
}
);
};
layerId = master01;
shapes = (
{
closed = 1;
nodes = (
(416,700,l),
(416,386,l),
(176,386,l),
(176,700,l),
(90,700,l),
(90,0,l),
(176,0,l),
(176,316,l),
(416,316,l),
(416,0,l),
(502,0,l),
(502,700,l,{
name = hr00;
})
);
}
);
width = 592;
}
);
unicode = 72;
},
{
glyphname = Hbar;
lastChange = "2023-02-17 10:52:01 +0000";
layers = (
{
background = {
shapes = (
{
closed = 1;
nodes = (
(416,700,l),
(416,386,l),
(176,386,l),
(176,700,l),
(90,700,l),
(90,0,l),
(176,0,l),
(176,316,l),
(416,316,l),
(416,0,l),
(502,0,l),
(502,700,l,{
name = hr00;
})
);
},
{
closed = 1;
nodes = (
(24,520,l),
(569,520,l),
(569,580,l),
(24,580,l,{
name = hr00;
})
);
}
);
};
layerId = master01;
shapes = (
{
closed = 1;
nodes = (
(569,520,l),
(569,580,l),
(24,580,l,{
name = hr00;
}),
(24,520,l)
);
},
{
alignment = -1;
ref = H;
}
);
width = 592;
}
);
unicode = 294;
},
{
glyphname = Hcircumflex;
lastChange = "2023-02-17 10:52:01 +0000";
layers = (
{
background = {
shapes = (
{
closed = 1;
nodes = (
(416,700,l),
(416,386,l),
(176,386,l),
(176,700,l),
(90,700,l),
(90,0,l),
(176,0,l),
(176,316,l),
(416,316,l),
(416,0,l),
(502,0,l),
(502,700,l,{
name = hr00;
})
);
},
{
closed = 1;
nodes = (
(429,775,l),
(295,891,l),
(162,775,l),
(192,738,l),
(295,805,l),
(398,738,l,{
name = hr00;
})
);
}
);
};
layerId = master01;
shapes = (
{
ref = H;
},
{
pos = (80,0);
ref = circumflexcomb.case;
}
);
width = 592;
}
);
unicode = 292;
},
{
glyphname = I;
lastChange = "2023-02-17 10:52:01 +0000";
layers = (
{
anchors = (
{
name = bottom;
pos = (133,0);
},
{
name = ogonek;
pos = (226,15);
},
{
name = top;
pos = (133,700);
},
{
name = topleft;
pos = (20,700);
}
);
background = {
shapes = (
{
closed = 1;
nodes = (
(90,700,l),
(90,0,l),
(176,0,l),
(176,700,l,{
name = hr00;
})
);
}
);
};
layerId = master01;
shapes = (
{
closed = 1;
nodes = (
(90,700,l),
(90,0,l),
(176,0,l),
(176,700,l,{
name = hr00;
})
);
}
);
width = 266;
}
);
unicode = 73;
},
{
glyphname = IJ;
lastChange = "2023-02-17 10:52:01 +0000";
layers = (
{
background = {
shapes = (
{
closed = 1;
nodes = (
(90,700,l),
(90,0,l),
(176,0,l),
(176,700,l,{
name = hr00;
})
);
},
{
closed = 1;
nodes = (
(366,700,l),
(366,135,ls),
(366,82,o),
(365,49,o),
(292,47,c),
(292,-9,l),
(304,-11,o),
(315,-12,o),
(325,-12,cs),
(448,-12,o),
(452,73,o),
(452,157,cs),
(452,700,l,{
name = hr00;
})
);
}
);
};
layerId = master01;
shapes = (
{
ref = I;
},
{
pos = (266,0);
ref = J;
}
);
width = 537;
}
);
unicode = 306;
},
{
glyphname = Iacute;
lastChange = "2023-02-17 10:52:01 +0000";
layers = (
{
background = {
shapes = (
{
closed = 1;
nodes = (
(90,700,l),
(90,0,l),
(176,0,l),
(176,700,l,{
name = hr00;
})
);
},
{
closed = 1;
nodes = (
(50,731,l),
(238,834,l),
(192,901,l),
(27,765,l,{
name = hr00;
})
);
}
);
};
layerId = master01;
shapes = (
{
ref = I;
},
{
pos = (-97,0);
ref = acutecomb.case;
}
);
width = 266;
}
);
unicode = 205;
},
{
glyphname = Ibreve;
lastChange = "2023-02-17 10:52:01 +0000";
layers = (
{
background = {
shapes = (
{
closed = 1;
nodes = (
(90,700,l),
(90,0,l),
(176,0,l),
(176,700,l,{
name = hr00;
})
);
},
{
closed = 1;
nodes = (
(190,736,o),
(219,757,o),
(241,803,cs),
(262,847,l),
(217,869,l),
(201,838,o),
(186,806,o),
(133,806,cs),
(80,806,o),
(65,838,o),
(49,869,c),
(4,847,l),
(25,803,ls),
(47,757,o),
(76,736,o),
(133,736,c,{
name = hr00;
})
);
}
);
};
layerId = master01;
shapes = (
{
ref = I;
},
{
pos = (-82,0);
ref = brevecomb.case;
}
);
width = 266;
}
);
unicode = 300;
},
{
glyphname = Icircumflex;
lastChange = "2023-02-17 10:52:01 +0000";
layers = (
{
background = {
shapes = (
{
closed = 1;
nodes = (
(90,700,l),
(90,0,l),
(176,0,l),
(176,700,l,{
name = hr00;
})
);
},
{
closed = 1;
nodes = (
(266,775,l),
(132,891,l),
(-1,775,l),
(29,738,l),
(132,805,l),
(235,738,l,{
name = hr00;
})
);
}
);
};
layerId = master01;
shapes = (
{
ref = I;
},
{
pos = (-83,0);
ref = circumflexcomb.case;
}
);
width = 266;
}
);
unicode = 206;
},
{
glyphname = Idieresis;
lastChange = "2023-02-17 10:52:01 +0000";
layers = (
{
background = {
shapes = (
{
closed = 1;
nodes = (
(90,700,l),
(90,0,l),
(176,0,l),
(176,700,l,{
name = hr00;
})
);
},
{
closed = 1;
nodes = (
(11,862,o),
(-9,862,o),
(-9,812,cs),
(-9,761,o),
(11,761,o),
(43,761,cs),
(75,761,o),
(95,761,o),
(95,812,cs),
(95,862,o),
(75,862,o),
(43,862,c,{
name = hr00;
})
);
},
{
closed = 1;
nodes = (
(191,862,o),
(171,862,o),
(171,812,cs),
(171,761,o),
(191,761,o),
(223,761,cs),
(255,761,o),
(275,761,o),
(275,812,cs),
(275,862,o),
(255,862,o),
(223,862,c)
);
}
);
};
layerId = master01;
shapes = (
{
ref = I;
},
{
pos = (-82,0);
ref = dieresiscomb.case;
}
);
width = 266;
}
);
unicode = 207;
},
{
glyphname = Idotaccent;
lastChange = "2023-02-17 10:52:01 +0000";
layers = (
{
background = {
shapes = (
{
closed = 1;
nodes = (
(90,700,l),
(90,0,l),
(176,0,l),
(176,700,l,{
name = hr00;
})
);
},
{
closed = 1;
nodes = (
(98,867,o),
(76,867,o),
(76,812,cs),
(76,756,o),
(98,756,o),
(133,756,cs),
(168,756,o),
(190,756,o),
(190,812,cs),
(190,867,o),
(168,867,o),
(133,867,c,{
name = hr00;
})
);
}
);
};
layerId = master01;
shapes = (
{
ref = I;
},
{
pos = (6,0);
ref = dotaccentcomb.case;
}
);
width = 266;
}
);
unicode = 304;
},
{
glyphname = Igrave;
lastChange = "2023-02-17 13:10:10 +0000";
layers = (
{
background = {
shapes = (
{
closed = 1;
nodes = (
(90,700,l),
(90,0,l),
(176,0,l),
(176,700,l,{
name = hr00;
})
);
},
{
closed = 1;
nodes = (
(238,765,l),
(73,901,l),
(27,834,l),
(215,731,l,{
name = hr00;
})
);
}
);
};
layerId = master01;
shapes = (
{
ref = I;
},
{
pos = (-67,180);
ref = gravecomb.case;
}
);
width = 266;
}
);
unicode = 204;
},
{
glyphname = Imacron;
lastChange = "2023-02-17 10:52:01 +0000";
layers = (
{
background = {
shapes = (
{
closed = 1;
nodes = (
(90,700,l),
(90,0,l),
(176,0,l),
(176,700,l,{
name = hr00;
})
);
},
{
closed = 1;
nodes = (
(13,780,l),
(253,780,l),
(253,843,l),
(13,843,l,{
name = hr00;
})
);
}
);
};
layerId = master01;
shapes = (
{
ref = I;
},
{
pos = (-67,0);
ref = macroncomb.case;
}
);
width = 266;
}
);
unicode = 298;
},
{
glyphname = Iogonek;
lastChange = "2023-02-17 10:52:01 +0000";
layers = (
{
background = {
shapes = (
{
closed = 1;
nodes = (
(90,700,l),
(90,0,l),
(176,0,l),
(176,700,l,{
name = hr00;
})
);
},
{
closed = 1;
nodes = (
(145,15,l),
(90,-44,ls),
(64,-72,o),
(54,-90,o),
(54,-113,cs),
(54,-143,o),
(65,-177,o),
(126,-177,cs),
(174,-177,o),
(208,-157,o),
(226,-144,c),
(216,-109,l),
(192,-125,o),
(171,-133,o),
(145,-133,cs),
(122,-133,o),
(119,-120,o),
(119,-107,cs),
(119,-91,o),
(143,-53,o),
(156,-33,cs),
(176,0,l),
(176,15,l,{
name = hr00;
})
);
}
);
};
layerId = master01;
shapes = (
{
ref = I;
},
{
pos = (38,0);
ref = ogonekcomb;
}
);
width = 266;
}
);
unicode = 302;
},
{
glyphname = Itilde;
lastChange = "2023-02-17 10:52:01 +0000";
layers = (
{
background = {
shapes = (
{
closed = 1;
nodes = (
(90,700,l),
(90,0,l),
(176,0,l),
(176,700,l,{
name = hr00;
})
);
},
{
closed = 1;
nodes = (
(222,837,o),
(206,830,o),
(186,830,cs),
(148,830,o),
(120,857,o),
(85,857,cs,{
name = hr01;
}),
(61,857,o),
(42,852,o),
(1,810,c),
(23,772,l),
(43,785,o),
(59,792,o),
(79,792,cs),
(117,792,o),
(145,765,o),
(180,765,cs,{
name = hr02;
}),
(204,765,o),
(223,770,o),
(264,812,c),
(242,850,l)
);
}
);
};
layerId = master01;
shapes = (
{
ref = I;
},
{
pos = (-98,0);
ref = tildecomb.case;
}
);
width = 266;
}
);
unicode = 296;
},
{
glyphname = J;
lastChange = "2023-02-17 10:52:01 +0000";
layers = (
{
anchors = (
{
name = bottom;
pos = (136,0);
},
{
name = top;
pos = (136,700);
}
);
background = {
shapes = (
{
closed = 1;
nodes = (
(100,700,l),
(100,135,ls),
(100,82,o),
(99,49,o),
(26,47,c),
(26,-9,l),
(38,-11,o),
(49,-12,o),
(59,-12,cs),
(182,-12,o),
(186,73,o),
(186,157,cs),
(186,700,l,{
name = hr00;
})
);
}
);
};
layerId = master01;
shapes = (
{
closed = 1;
nodes = (
(100,700,l),
(100,135,ls),
(100,82,o),
(99,49,o),
(26,47,c),
(26,-9,l),
(38,-11,o),
(49,-12,o),
(59,-12,cs),
(182,-12,o),
(186,73,o),
(186,157,cs),
(186,700,l,{
name = hr00;
})
);
}
);
width = 271;
}
);
unicode = 74;
},
{
glyphname = Jcircumflex;
lastChange = "2023-02-17 10:52:01 +0000";
layers = (
{
background = {
shapes = (
{
closed = 1;
nodes = (
(100,700,l),
(100,135,ls),
(100,82,o),
(99,49,o),
(26,47,c),
(26,-9,l),
(38,-11,o),
(49,-12,o),
(59,-12,cs),
(182,-12,o),
(186,73,o),
(186,157,cs),
(186,700,l,{
name = hr00;
})
);
},
{
closed = 1;
nodes = (
(269,775,l),
(135,891,l),
(2,775,l),
(32,738,l),
(135,805,l),
(238,738,l,{
name = hr00;
})
);
}
);
};
layerId = master01;
shapes = (
{
ref = J;
},
{
pos = (-80,0);
ref = circumflexcomb.case;
}
);
width = 271;
}
);
unicode = 308;
},
{
glyphname = K;
kernRight = K;
lastChange = "2023-02-17 11:13:57 +0000";
layers = (
{
anchors = (
{
name = bottom;
pos = (269,0);
},
{
name = top;
pos = (259,700);
}
);
background = {
shapes = (
{
closed = 1;
nodes = (
(176,700,l),
(90,700,l),
(90,0,l),
(176,0,l,{
name = hr00;
})
);
},
{
closed = 1;
nodes = (
(202,350,l),
(386,0,l),
(478,0,l),
(293,350,l),
(477,700,l),
(386,700,l)
);
}
);
};
layerId = master01;
shapes = (
{
closed = 1;
nodes = (
(176,700,l),
(90,700,l),
(90,0,l),
(176,0,l,{
name = hr00;
})
);
},
{
closed = 1;
nodes = (
(202,350,l),
(386,0,l),
(478,0,l),
(293,350,l),
(477,700,l),
(386,700,l)
);
}
);
width = 518;
}
);
unicode = 75;
},
{
glyphname = Kcommaaccent;
kernRight = K;
lastChange = "2023-02-17 11:13:57 +0000";
layers = (
{
background = {
shapes = (
{
closed = 1;
nodes = (
(176,700,l),
(90,700,l),
(90,0,l),
(176,0,l,{
name = hr00;
})
);
},
{
closed = 1;
nodes = (
(202,350,l),
(386,0,l),
(478,0,l),
(293,350,l),
(477,700,l),
(386,700,l)
);
},
{
closed = 1;
nodes = (
(236,-50,o),
(214,-50,o),
(214,-105,cs),
(214,-140,o),
(222,-153,o),
(237,-158,c),
(209,-241,l),
(254,-265,l),
(295,-200,ls),
(308,-179,o),
(318,-159,o),
(324,-138,cs),
(326,-130,o),
(328,-119,o),
(328,-105,cs),
(328,-50,o),
(306,-50,o),
(271,-50,c,{
name = hr00;
})
);
}
);
};
layerId = master01;
shapes = (
{
ref = K;
},
{
pos = (150,0);
ref = commaaccentcomb;
}
);
width = 518;
}
);
unicode = 310;
},
{
glyphname = L;
kernRight = L;
lastChange = "2023-02-17 10:55:45 +0000";
layers = (
{
anchors = (
{
name = bottom;
pos = (241,0);
},
{
name = center;
pos = (211,350);
},
{
name = top;
pos = (144,700);
},
{
name = topright;
pos = (402,700);
}
);
background = {
shapes = (
{
closed = 1;
nodes = (
(90,0,l),
(402,0,l),
(402,70,l),
(176,70,l),
(176,700,l),
(90,700,l,{
name = hr00;
})
);
}
);
};
layerId = master01;
shapes = (
{
closed = 1;
nodes = (
(90,0,l),
(402,0,l),
(402,70,l),
(176,70,l),
(176,700,l),
(90,700,l,{
name = hr00;
})
);
}
);
width = 422;
}
);
unicode = 76;
},
{
glyphname = Lacute;
kernRight = L;
lastChange = "2023-02-17 10:55:45 +0000";
layers = (
{
background = {
shapes = (
{
closed = 1;
nodes = (
(90,0,l),
(402,0,l),
(402,70,l),
(176,70,l),
(176,700,l),
(90,700,l,{
name = hr00;
})
);
},
{
closed = 1;
nodes = (
(61,731,l),
(249,834,l),
(203,901,l),
(38,765,l,{
name = hr00;
})
);
}
);
};
layerId = master01;
shapes = (
{
ref = L;
},
{
pos = (-86,0);
ref = acutecomb.case;
}
);
width = 422;
}
);
unicode = 313;
},
{
glyphname = Lcaron;
kernRight = L;
lastChange = "2023-02-17 10:55:45 +0000";
layers = (
{
background = {
shapes = (
{
closed = 1;
nodes = (
(90,0,l),
(402,0,l),
(402,70,l),
(176,70,l),
(176,700,l),
(90,700,l,{
name = hr00;
})
);
},
{
closed = 1;
nodes = (
(279,730,o),
(257,730,o),
(257,675,cs),
(257,640,o),
(265,627,o),
(280,622,c),
(252,539,l),
(297,515,l),
(338,580,ls),
(351,601,o),
(361,621,o),
(367,642,cs),
(369,650,o),
(371,661,o),
(371,675,cs),
(371,730,o),
(349,730,o),
(314,730,c,{
name = hr00;
})
);
}
);
};
layerId = master01;
shapes = (
{
ref = L;
},
{
pos = (200,0);
ref = caroncomb.alt;
}
);
width = 422;
}
);
unicode = 317;
},
{
glyphname = Lcommaaccent;
kernRight = L;
lastChange = "2023-02-17 10:55:45 +0000";
layers = (
{
background = {
shapes = (
{
closed = 1;
nodes = (
(90,0,l),
(402,0,l),
(402,70,l),
(176,70,l),
(176,700,l),
(90,700,l,{
name = hr00;
})
);
},
{
closed = 1;
nodes = (
(208,-50,o),
(186,-50,o),
(186,-105,cs),
(186,-140,o),
(194,-153,o),
(209,-158,c),
(181,-241,l),
(226,-265,l),
(267,-200,ls),
(280,-179,o),
(290,-159,o),
(296,-138,cs),
(298,-130,o),
(300,-119,o),
(300,-105,cs),
(300,-50,o),
(278,-50,o),
(243,-50,c,{
name = hr00;
})
);
}
);
};
layerId = master01;
shapes = (
{
ref = L;
},
{
pos = (122,0);
ref = commaaccentcomb;
}
);
width = 422;
}
);
unicode = 315;
},
{
glyphname = Ldot;
kernRight = L;
lastChange = "2023-02-17 10:55:45 +0000";
layers = (
{
background = {
shapes = (
{
closed = 1;
nodes = (
(90,0,l),
(402,0,l),
(402,70,l),
(176,70,l),
(176,700,l),
(90,700,l,{
name = hr00;
})
);
},
{
closed = 1;
nodes = (
(266,414,o),
(246,414,o),
(246,362,cs),
(246,308,o),
(266,308,o),
(299,308,cs),
(332,308,o),
(354,308,o),
(354,362,cs),
(354,414,o),
(332,414,o),
(299,414,c,{
name = hr00;
})
);
}
);
};
layerId = master01;
shapes = (
{
closed = 1;
nodes = (
(332,308,o),
(354,308,o),
(354,362,cs),
(354,414,o),
(332,414,o),
(299,414,cs,{
name = hr00;
}),
(266,414,o),
(246,414,o),
(246,362,cs),
(246,308,o),
(266,308,o),
(299,308,cs)
);
},
{
ref = L;
}
);
width = 422;
}
);
unicode = 319;
},
{
glyphname = Lslash;
kernRight = L;
lastChange = "2023-02-17 10:55:45 +0000";
layers = (
{
background = {
shapes = (
{
closed = 1;
nodes = (
(24,245,l),
(90,278,l),
(90,0,l),
(402,0,l),
(402,70,l),
(176,70,l),
(176,322,l),
(273,372,l),
(243,430,l),
(176,396,l),
(176,700,l),
(90,700,l),
(90,352,l),
(-6,303,l,{
name = hr00;
})
);
}
);
};
layerId = master01;
shapes = (
{
closed = 1;
nodes = (
(24,245,l),
(90,278,l),
(90,0,l),
(402,0,l),
(402,70,l),
(176,70,l),
(176,322,l),
(273,372,l),
(243,430,l),
(176,396,l),
(176,700,l),
(90,700,l),
(90,352,l),
(-6,303,l,{
name = hr00;
})
);
}
);
width = 422;
}
);
unicode = 321;
},
{
glyphname = M;
lastChange = "2023-02-17 10:52:01 +0000";
layers = (
{
anchors = (
{
name = bottom;
pos = (363,0);
},
{
name = top;
pos = (363,700);
}
);
background = {
shapes = (
{
closed = 1;
nodes = (
(410,170,l),
(542,563,l),
(548,563,l),
(561,0,l),
(644,0,l),
(623,700,l),
(513,700,l),
(366,258,l),
(360,258,l),
(213,700,l),
(103,700,l),
(82,0,l),
(165,0,l),
(178,563,l),
(184,563,l),
(316,170,l,{
name = hr00;
})
);
}
);
};
layerId = master01;
shapes = (
{
closed = 1;
nodes = (
(410,170,l),
(542,563,l),
(548,563,l),
(561,0,l),
(644,0,l),
(623,700,l),
(513,700,l),
(366,258,l),
(360,258,l),
(213,700,l),
(103,700,l),
(82,0,l),
(165,0,l),
(178,563,l),
(184,563,l),
(316,170,l,{
name = hr00;
})
);
}
);
width = 726;
}
);
unicode = 77;
},
{
glyphname = N;
lastChange = "2023-02-17 10:52:01 +0000";
layers = (
{
anchors = (
{
name = bottom;
pos = (299,0);
},
{
name = top;
pos = (309,700);
}
);
background = {
shapes = (
{
closed = 1;
nodes = (
(90,700,l),
(90,0,l),
(174,0,l),
(174,584,l),
(180,584,l),
(381,0,l),
(507,0,l),
(507,700,l),
(423,700,l),
(423,116,l),
(417,116,l),
(216,700,l,{
name = hr00;
})
);
}
);
};
layerId = master01;
shapes = (
{
closed = 1;
nodes = (
(90,700,l),
(90,0,l),
(174,0,l),
(174,584,l),
(180,584,l),
(381,0,l),
(507,0,l),
(507,700,l),
(423,700,l),
(423,116,l),
(417,116,l),
(216,700,l,{
name = hr00;
})
);
}
);
width = 597;
}
);
unicode = 78;
},
{
glyphname = Nacute;
lastChange = "2023-02-17 10:52:01 +0000";
layers = (
{
background = {
shapes = (
{
closed = 1;
nodes = (
(90,700,l),
(90,0,l),
(174,0,l),
(174,584,l),
(180,584,l),
(381,0,l),
(507,0,l),
(507,700,l),
(423,700,l),
(423,116,l),
(417,116,l),
(216,700,l,{
name = hr00;
})
);
},
{
closed = 1;
nodes = (
(226,731,l),
(414,834,l),
(368,901,l),
(203,765,l,{
name = hr00;
})
);
}
);
};
layerId = master01;
shapes = (
{
ref = N;
},
{
pos = (79,0);
ref = acutecomb.case;
}
);
width = 597;
}
);
unicode = 323;
},
{
glyphname = Ncaron;
lastChange = "2023-02-17 10:52:01 +0000";
layers = (
{
background = {
shapes = (
{
closed = 1;
nodes = (
(90,700,l),
(90,0,l),
(174,0,l),
(174,584,l),
(180,584,l),
(381,0,l),
(507,0,l),
(507,700,l),
(423,700,l),
(423,116,l),
(417,116,l),
(216,700,l,{
name = hr00;
})
);
},
{
closed = 1;
nodes = (
(175,845,l),
(309,729,l),
(442,845,l),
(412,882,l),
(309,815,l),
(206,882,l,{
name = hr00;
})
);
}
);
};
layerId = master01;
shapes = (
{
ref = N;
},
{
pos = (93,0);
ref = caroncomb.case;
}
);
width = 597;
}
);
unicode = 327;
},
{
glyphname = Ncommaaccent;
lastChange = "2023-02-17 10:52:01 +0000";
layers = (
{
background = {
shapes = (
{
closed = 1;
nodes = (
(90,700,l),
(90,0,l),
(174,0,l),
(174,584,l),
(180,584,l),
(381,0,l),
(507,0,l),
(507,700,l),
(423,700,l),
(423,116,l),
(417,116,l),
(216,700,l,{
name = hr00;
})
);
},
{
closed = 1;
nodes = (
(266,-50,o),
(244,-50,o),
(244,-105,cs),
(244,-140,o),
(252,-153,o),
(267,-158,c),
(239,-241,l),
(284,-265,l),
(325,-200,ls),
(338,-179,o),
(348,-159,o),
(354,-138,cs),
(356,-130,o),
(358,-119,o),
(358,-105,cs),
(358,-50,o),
(336,-50,o),
(301,-50,c,{
name = hr00;
})
);
}
);
};
layerId = master01;
shapes = (
{
ref = N;
},
{
pos = (180,0);
ref = commaaccentcomb;
}
);
width = 597;
}
);
unicode = 325;
},
{
glyphname = Ntilde;
lastChange = "2023-02-17 10:52:01 +0000";
layers = (
{
background = {
shapes = (
{
closed = 1;
nodes = (
(90,700,l),
(90,0,l),
(174,0,l),
(174,584,l),
(180,584,l),
(381,0,l),
(507,0,l),
(507,700,l),
(423,700,l),
(423,116,l),
(417,116,l),
(216,700,l,{
name = hr00;
})
);
},
{
closed = 1;
nodes = (
(398,837,o),
(382,830,o),
(362,830,cs),
(324,830,o),
(296,857,o),
(261,857,cs,{
name = hr01;
}),
(237,857,o),
(218,852,o),
(177,810,c),
(199,772,l),
(219,785,o),
(235,792,o),
(255,792,cs),
(293,792,o),
(321,765,o),
(356,765,cs,{
name = hr02;
}),
(380,765,o),
(399,770,o),
(440,812,c),
(418,850,l)
);
}
);
};
layerId = master01;
shapes = (
{
ref = N;
},
{
pos = (78,0);
ref = tildecomb.case;
}
);
width = 597;
}
);
unicode = 209;
},
{
glyphname = Eng;
lastChange = "2023-02-17 10:52:01 +0000";
layers = (
{
anchors = (
{
name = bottom;
pos = (299,0);
},
{
name = top;
pos = (299,700);
}
);
background = {
shapes = (
{
closed = 1;
nodes = (
(423,700,l),
(423,182,l),
(418,182,l),
(412,220,o),
(403,250,o),
(390,280,cs),
(216,700,l),
(90,700,l),
(90,0,l),
(174,0,l),
(174,584,l),
(180,584,l),
(425,-6,l),
(425,-54,ls),
(425,-105,o),
(419,-130,o),
(384,-130,cs),
(366,-130,o),
(353,-127,o),
(335,-122,c),
(317,-180,l),
(337,-189,o),
(361,-194,o),
(386,-194,cs),
(503,-194,o),
(507,-113,o),
(507,-33,cs),
(507,700,l,{
name = hr00;
})
);
}
);
};
layerId = master01;
shapes = (
{
closed = 1;
nodes = (
(423,700,l),
(423,182,l),
(418,182,l),
(412,220,o),
(403,250,o),
(390,280,cs),
(216,700,l),
(90,700,l),
(90,0,l),
(174,0,l),
(174,584,l),
(180,584,l),
(425,-6,l),
(425,-54,ls),
(425,-105,o),
(419,-130,o),
(384,-130,cs),
(366,-130,o),
(353,-127,o),
(335,-122,c),
(317,-180,l),
(337,-189,o),
(361,-194,o),
(386,-194,cs),
(503,-194,o),
(507,-113,o),
(507,-33,cs),
(507,700,l,{
name = hr00;
})
);
}
);
width = 597;
}
);
unicode = 330;
},
{
glyphname = O;
lastChange = "2023-02-17 10:52:01 +0000";
layers = (
{
anchors = (
{
name = bottom;
pos = (297,0);
},
{
name = center;
pos = (297,350);
},
{
name = ogonek;
pos = (534,10);
},
{
name = top;
pos = (297,700);
},
{
name = topleft;
pos = (20,700);
},
{
name = topright;
pos = (573,700);
}
);
background = {
shapes = (
{
closed = 1;
nodes = (
(516,-12,o),
(518,82,o),
(518,349,cs),
(518,615,o),
(516,712,o),
(296,712,cs),
(77,712,o),
(75,615,o),
(75,349,cs),
(75,82,o),
(77,-12,o),
(296,-12,c,{
name = hr00;
})
);
},
{
closed = 1;
nodes = (
(431,115,o),
(431,59,o),
(297,59,cs),
(162,59,o),
(162,115,o),
(162,193,cs),
(162,507,ls),
(162,585,o),
(162,641,o),
(297,641,cs),
(431,641,o),
(431,585,o),
(431,507,cs),
(431,193,l)
);
}
);
};
layerId = master01;
shapes = (
{
closed = 1;
nodes = (
(516,-12,o),
(518,82,o),
(518,349,cs),
(518,615,o),
(516,712,o),
(296,712,cs),
(77,712,o),
(75,615,o),
(75,349,cs),
(75,82,o),
(77,-12,o),
(296,-12,c,{
name = hr00;
})
);
},
{
closed = 1;
nodes = (
(431,115,o),
(431,59,o),
(297,59,cs),
(162,59,o),
(162,115,o),
(162,193,cs),
(162,507,ls),
(162,585,o),
(162,641,o),
(297,641,cs),
(431,641,o),
(431,585,o),
(431,507,cs),
(431,193,l)
);
}
);
width = 593;
}
);
unicode = 79;
},
{
glyphname = Oacute;
lastChange = "2023-02-17 10:52:01 +0000";
layers = (
{
background = {
shapes = (
{
closed = 1;
nodes = (
(516,-12,o),
(518,82,o),
(518,349,cs),
(518,615,o),
(516,712,o),
(296,712,cs),
(77,712,o),
(75,615,o),
(75,349,cs),
(75,82,o),
(77,-12,o),
(296,-12,c,{
name = hr00;
})
);
},
{
closed = 1;
nodes = (
(431,115,o),
(431,59,o),
(297,59,cs),
(162,59,o),
(162,115,o),
(162,193,cs),
(162,507,ls),
(162,585,o),
(162,641,o),
(297,641,cs),
(431,641,o),
(431,585,o),
(431,507,cs),
(431,193,l)
);
},
{
closed = 1;
nodes = (
(214,731,l),
(402,834,l),
(356,901,l),
(191,765,l,{
name = hr00;
})
);
}
);
};
layerId = master01;
shapes = (
{
ref = O;
},
{
pos = (67,0);
ref = acutecomb.case;
}
);
width = 593;
}
);
unicode = 211;
},
{
glyphname = Obreve;
lastChange = "2023-02-17 10:52:01 +0000";
layers = (
{
background = {
shapes = (
{
closed = 1;
nodes = (
(516,-12,o),
(518,82,o),
(518,349,cs),
(518,615,o),
(516,712,o),
(296,712,cs),
(77,712,o),
(75,615,o),
(75,349,cs),
(75,82,o),
(77,-12,o),
(296,-12,c,{
name = hr00;
})
);
},
{
closed = 1;
nodes = (
(431,115,o),
(431,59,o),
(297,59,cs),
(162,59,o),
(162,115,o),
(162,193,cs),
(162,507,ls),
(162,585,o),
(162,641,o),
(297,641,cs),
(431,641,o),
(431,585,o),
(431,507,cs),
(431,193,l)
);
},
{
closed = 1;
nodes = (
(354,736,o),
(383,757,o),
(405,803,cs),
(426,847,l),
(381,869,l),
(365,838,o),
(350,806,o),
(297,806,cs),
(244,806,o),
(229,838,o),
(213,869,c),
(168,847,l),
(189,803,ls),
(211,757,o),
(240,736,o),
(297,736,c,{
name = hr00;
})
);
}
);
};
layerId = master01;
shapes = (
{
ref = O;
},
{
pos = (82,0);
ref = brevecomb.case;
}
);
width = 593;
}
);
unicode = 334;
},
{
glyphname = Ocircumflex;
lastChange = "2023-02-17 10:52:01 +0000";
layers = (
{
background = {
shapes = (
{
closed = 1;
nodes = (
(516,-12,o),
(518,82,o),
(518,349,cs),
(518,615,o),
(516,712,o),
(296,712,cs),
(77,712,o),
(75,615,o),
(75,349,cs),
(75,82,o),
(77,-12,o),
(296,-12,c,{
name = hr00;
})
);
},
{
closed = 1;
nodes = (
(431,115,o),
(431,59,o),
(297,59,cs),
(162,59,o),
(162,115,o),
(162,193,cs),
(162,507,ls),
(162,585,o),
(162,641,o),
(297,641,cs),
(431,641,o),
(431,585,o),
(431,507,cs),
(431,193,l)
);
},
{
closed = 1;
nodes = (
(430,775,l),
(296,891,l),
(163,775,l),
(193,738,l),
(296,805,l),
(399,738,l,{
name = hr00;
})
);
}
);
};
layerId = master01;
shapes = (
{
ref = O;
},
{
pos = (81,0);
ref = circumflexcomb.case;
}
);
width = 593;
}
);
unicode = 212;
},
{
glyphname = Odieresis;
lastChange = "2023-02-17 10:52:01 +0000";
layers = (
{
background = {
shapes = (
{
closed = 1;
nodes = (
(516,-12,o),
(518,82,o),
(518,349,cs),
(518,615,o),
(516,712,o),
(296,712,cs),
(77,712,o),
(75,615,o),
(75,349,cs),
(75,82,o),
(77,-12,o),
(296,-12,c,{
name = hr00;
})
);
},
{
closed = 1;
nodes = (
(431,115,o),
(431,59,o),
(297,59,cs),
(162,59,o),
(162,115,o),
(162,193,cs),
(162,507,ls),
(162,585,o),
(162,641,o),
(297,641,cs),
(431,641,o),
(431,585,o),
(431,507,cs),
(431,193,l)
);
},
{
closed = 1;
nodes = (
(175,862,o),
(155,862,o),
(155,812,cs),
(155,761,o),
(175,761,o),
(207,761,cs),
(239,761,o),
(259,761,o),
(259,812,cs),
(259,862,o),
(239,862,o),
(207,862,c,{
name = hr00;
})
);
},
{
closed = 1;
nodes = (
(355,862,o),
(335,862,o),
(335,812,cs),
(335,761,o),
(355,761,o),
(387,761,cs),
(419,761,o),
(439,761,o),
(439,812,cs),
(439,862,o),
(419,862,o),
(387,862,c)
);
}
);
};
layerId = master01;
shapes = (
{
ref = O;
},
{
pos = (82,0);
ref = dieresiscomb.case;
}
);
width = 593;
}
);
unicode = 214;
},
{
glyphname = Ograve;
lastChange = "2023-02-17 13:10:10 +0000";
layers = (
{
background = {
shapes = (
{
closed = 1;
nodes = (
(516,-12,o),
(518,82,o),
(518,349,cs),
(518,615,o),
(516,712,o),
(296,712,cs),
(77,712,o),
(75,615,o),
(75,349,cs),
(75,82,o),
(77,-12,o),
(296,-12,c,{
name = hr00;
})
);
},
{
closed = 1;
nodes = (
(431,115,o),
(431,59,o),
(297,59,cs),
(162,59,o),
(162,115,o),
(162,193,cs),
(162,507,ls),
(162,585,o),
(162,641,o),
(297,641,cs),
(431,641,o),
(431,585,o),
(431,507,cs),
(431,193,l)
);
},
{
closed = 1;
nodes = (
(402,765,l),
(237,901,l),
(191,834,l),
(379,731,l,{
name = hr00;
})
);
}
);
};
layerId = master01;
shapes = (
{
ref = O;
},
{
pos = (97,180);
ref = gravecomb.case;
}
);
width = 593;
}
);
unicode = 210;
},
{
glyphname = Ohungarumlaut;
lastChange = "2023-02-17 10:52:01 +0000";
layers = (
{
background = {
shapes = (
{
closed = 1;
nodes = (
(516,-12,o),
(518,82,o),
(518,349,cs),
(518,615,o),
(516,712,o),
(296,712,cs),
(77,712,o),
(75,615,o),
(75,349,cs),
(75,82,o),
(77,-12,o),
(296,-12,c,{
name = hr00;
})
);
},
{
closed = 1;
nodes = (
(431,115,o),
(431,59,o),
(297,59,cs),
(162,59,o),
(162,115,o),
(162,193,cs),
(162,507,ls),
(162,585,o),
(162,641,o),
(297,641,cs),
(431,641,o),
(431,585,o),
(431,507,cs),
(431,193,l)
);
},
{
closed = 1;
nodes = (
(176,731,l),
(344,834,l),
(294,900,l),
(149,764,l,{
name = hr00;
})
);
},
{
closed = 1;
nodes = (
(376,731,l),
(544,834,l),
(494,900,l),
(349,764,l)
);
}
);
};
layerId = master01;
shapes = (
{
ref = O;
},
{
pos = (114,0);
ref = hungarumlautcomb.case;
}
);
width = 593;
}
);
unicode = 336;
},
{
glyphname = Omacron;
lastChange = "2023-02-17 10:52:01 +0000";
layers = (
{
background = {
shapes = (
{
closed = 1;
nodes = (
(516,-12,o),
(518,82,o),
(518,349,cs),
(518,615,o),
(516,712,o),
(296,712,cs),
(77,712,o),
(75,615,o),
(75,349,cs),
(75,82,o),
(77,-12,o),
(296,-12,c,{
name = hr00;
})
);
},
{
closed = 1;
nodes = (
(431,115,o),
(431,59,o),
(297,59,cs),
(162,59,o),
(162,115,o),
(162,193,cs),
(162,507,ls),
(162,585,o),
(162,641,o),
(297,641,cs),
(431,641,o),
(431,585,o),
(431,507,cs),
(431,193,l)
);
},
{
closed = 1;
nodes = (
(177,780,l),
(417,780,l),
(417,843,l),
(177,843,l,{
name = hr00;
})
);
}
);
};
layerId = master01;
shapes = (
{
ref = O;
},
{
pos = (97,0);
ref = macroncomb.case;
}
);
width = 593;
}
);
unicode = 332;
},
{
glyphname = Oslash;
lastChange = "2023-02-17 10:52:01 +0000";
layers = (
{
background = {
shapes = (
{
closed = 1;
nodes = (
(516,-12,o),
(518,82,o),
(518,349,cs),
(518,615,o),
(516,712,o),
(296,712,cs),
(77,712,o),
(75,615,o),
(75,349,cs),
(75,82,o),
(77,-12,o),
(296,-12,c,{
name = hr00;
})
);
},
{
closed = 1;
nodes = (
(431,115,o),
(431,59,o),
(297,59,cs),
(162,59,o),
(162,115,o),
(162,193,cs),
(162,507,ls),
(162,585,o),
(162,641,o),
(297,641,cs),
(431,641,o),
(431,585,o),
(431,507,cs),
(431,193,l)
);
},
{
closed = 1;
nodes = (
(231,-56,l),
(406,755,l),
(361,755,l),
(186,-56,l,{
name = hr00;
})
);
}
);
};
layerId = master01;
shapes = (
{
closed = 1;
nodes = (
(231,-56,l),
(406,755,l),
(361,755,l),
(186,-56,l,{
name = hr00;
})
);
},
{
alignment = -1;
ref = O;
}
);
width = 593;
}
);
unicode = 216;
},
{
glyphname = Oslashacute;
lastChange = "2023-02-17 10:52:01 +0000";
layers = (
{
background = {
shapes = (
{
closed = 1;
nodes = (
(214,731,l),
(402,834,l),
(356,901,l),
(191,765,l,{
name = hr00;
})
);
},
{
closed = 1;
nodes = (
(516,-12,o),
(518,82,o),
(518,349,cs),
(518,615,o),
(516,712,o),
(296,712,cs),
(77,712,o),
(75,615,o),
(75,349,cs),
(75,82,o),
(77,-12,o),
(296,-12,c,{
name = hr00;
})
);
},
{
closed = 1;
nodes = (
(431,115,o),
(431,59,o),
(297,59,cs),
(162,59,o),
(162,115,o),
(162,193,cs),
(162,507,ls),
(162,585,o),
(162,641,o),
(297,641,cs),
(431,641,o),
(431,585,o),
(431,507,cs),
(431,193,l)
);
},
{
closed = 1;
nodes = (
(231,-56,l),
(406,755,l),
(361,755,l),
(186,-56,l,{
name = hr00;
})
);
}
);
};
layerId = master01;
shapes = (
{
ref = Oslash;
},
{
pos = (67,0);
ref = acutecomb.case;
}
);
width = 593;
}
);
unicode = 510;
},
{
glyphname = Otilde;
lastChange = "2023-02-17 10:52:01 +0000";
layers = (
{
background = {
shapes = (
{
closed = 1;
nodes = (
(516,-12,o),
(518,82,o),
(518,349,cs),
(518,615,o),
(516,712,o),
(296,712,cs),
(77,712,o),
(75,615,o),
(75,349,cs),
(75,82,o),
(77,-12,o),
(296,-12,c,{
name = hr00;
})
);
},
{
closed = 1;
nodes = (
(431,115,o),
(431,59,o),
(297,59,cs),
(162,59,o),
(162,115,o),
(162,193,cs),
(162,507,ls),
(162,585,o),
(162,641,o),
(297,641,cs),
(431,641,o),
(431,585,o),
(431,507,cs),
(431,193,l)
);
},
{
closed = 1;
nodes = (
(386,837,o),
(370,830,o),
(350,830,cs),
(312,830,o),
(284,857,o),
(249,857,cs,{
name = hr01;
}),
(225,857,o),
(206,852,o),
(165,810,c),
(187,772,l),
(207,785,o),
(223,792,o),
(243,792,cs),
(281,792,o),
(309,765,o),
(344,765,cs,{
name = hr02;
}),
(368,765,o),
(387,770,o),
(428,812,c),
(406,850,l)
);
}
);
};
layerId = master01;
shapes = (
{
ref = O;
},
{
pos = (66,0);
ref = tildecomb.case;
}
);
width = 593;
}
);
unicode = 213;
},
{
glyphname = OE;
lastChange = "2023-02-17 10:52:01 +0000";
layers = (
{
anchors = (
{
name = bottom;
pos = (407,0);
},
{
name = top;
pos = (407,700);
}
);
background = {
shapes = (
{
closed = 1;
nodes = (
(774,70,l),
(487,70,l),
(515,119,o),
(517,198,o),
(518,316,c),
(734,316,l),
(734,386,l),
(518,386,l),
(517,503,o),
(514,581,o),
(486,630,c),
(754,630,l),
(764,700,l),
(296,700,ls),
(77,700,o),
(75,615,o),
(75,349,cs),
(75,82,o),
(77,0,o),
(296,0,cs),
(774,0,l,{
name = hr00;
})
);
},
{
closed = 1;
nodes = (
(431,127,o),
(431,71,o),
(297,71,cs),
(162,71,o),
(162,127,o),
(162,205,cs),
(162,495,ls),
(162,573,o),
(162,629,o),
(297,629,cs),
(431,629,o),
(431,573,o),
(431,495,cs),
(431,205,l)
);
}
);
};
layerId = master01;
shapes = (
{
closed = 1;
nodes = (
(774,70,l),
(487,70,l),
(515,119,o),
(517,198,o),
(518,316,c),
(734,316,l),
(734,386,l),
(518,386,l),
(517,503,o),
(514,581,o),
(486,630,c),
(754,630,l),
(764,700,l),
(296,700,ls),
(77,700,o),
(75,615,o),
(75,349,cs),
(75,82,o),
(77,0,o),
(296,0,cs),
(774,0,l,{
name = hr00;
})
);
},
{
closed = 1;
nodes = (
(431,127,o),
(431,71,o),
(297,71,cs),
(162,71,o),
(162,127,o),
(162,205,cs),
(162,495,ls),
(162,573,o),
(162,629,o),
(297,629,cs),
(431,629,o),
(431,573,o),
(431,495,cs),
(431,205,l)
);
}
);
width = 814;
}
);
unicode = 338;
},
{
glyphname = P;
kernRight = P;
lastChange = "2023-02-17 11:12:22 +0000";
layers = (
{
anchors = (
{
name = bottom;
pos = (257,0);
},
{
name = top;
pos = (257,700);
}
);
background = {
shapes = (
{
closed = 1;
nodes = (
(90,0,l),
(176,0,l),
(176,248,l),
(241,248,ls),
(400,248,o),
(463,307,o),
(463,474,cs),
(463,641,o),
(400,700,o),
(241,700,cs),
(90,700,l,{
name = hr00;
})
);
},
{
closed = 1;
nodes = (
(376,372,o),
(376,319,o),
(242,319,cs),
(176,319,l),
(176,629,l),
(242,629,ls),
(376,629,o),
(376,576,o),
(376,498,cs),
(376,450,l)
);
}
);
};
layerId = master01;
shapes = (
{
closed = 1;
nodes = (
(90,0,l),
(176,0,l),
(176,248,l),
(241,248,ls),
(400,248,o),
(463,307,o),
(463,474,cs),
(463,641,o),
(400,700,o),
(241,700,cs),
(90,700,l,{
name = hr00;
})
);
},
{
closed = 1;
nodes = (
(376,372,o),
(376,319,o),
(242,319,cs),
(176,319,l),
(176,629,l),
(242,629,ls),
(376,629,o),
(376,576,o),
(376,498,cs),
(376,450,l)
);
}
);
width = 513;
}
);
unicode = 80;
},
{
glyphname = Thorn;
lastChange = "2023-02-17 10:52:01 +0000";
layers = (
{
anchors = (
{
name = bottom;
pos = (257,0);
},
{
name = top;
pos = (257,700);
}
);
background = {
shapes = (
{
closed = 1;
nodes = (
(90,700,l),
(90,0,l),
(176,0,l),
(176,124,l),
(241,124,ls),
(400,124,o),
(463,183,o),
(463,350,cs),
(463,517,o),
(400,576,o),
(241,576,cs),
(176,576,l),
(176,700,l,{
name = hr00;
})
);
},
{
closed = 1;
nodes = (
(376,248,o),
(376,195,o),
(242,195,cs),
(176,195,l),
(176,505,l),
(242,505,ls),
(376,505,o),
(376,452,o),
(376,374,cs),
(376,326,l)
);
}
);
};
layerId = master01;
shapes = (
{
closed = 1;
nodes = (
(90,700,l),
(90,0,l),
(176,0,l),
(176,124,l),
(241,124,ls),
(400,124,o),
(463,183,o),
(463,350,cs),
(463,517,o),
(400,576,o),
(241,576,cs),
(176,576,l),
(176,700,l,{
name = hr00;
})
);
},
{
closed = 1;
nodes = (
(376,248,o),
(376,195,o),
(242,195,cs),
(176,195,l),
(176,505,l),
(242,505,ls),
(376,505,o),
(376,452,o),
(376,374,cs),
(376,326,l)
);
}
);
width = 513;
}
);
unicode = 222;
},
{
glyphname = Q;
lastChange = "2023-02-17 10:52:01 +0000";
layers = (
{
anchors = (
{
name = bottom;
pos = (297,0);
},
{
name = top;
pos = (297,700);
}
);
background = {
shapes = (
{
closed = 1;
nodes = (
(365,-124,l),
(340,-21,l),
(334,-16,l),
(334,-11,l),
(516,0,o),
(518,98,o),
(518,349,cs),
(518,615,o),
(516,712,o),
(296,712,cs),
(77,712,o),
(75,615,o),
(75,349,cs),
(75,95,o),
(77,-2,o),
(266,-11,c),
(287,-124,l,{
name = hr00;
})
);
},
{
closed = 1;
nodes = (
(431,115,o),
(431,59,o),
(297,59,cs),
(162,59,o),
(162,115,o),
(162,193,cs),
(162,507,ls),
(162,585,o),
(162,641,o),
(297,641,cs),
(431,641,o),
(431,585,o),
(431,507,cs),
(431,193,l)
);
}
);
};
layerId = master01;
shapes = (
{
closed = 1;
nodes = (
(365,-124,l),
(340,-21,l),
(334,-16,l),
(334,-11,l),
(516,0,o),
(518,98,o),
(518,349,cs),
(518,615,o),
(516,712,o),
(296,712,cs),
(77,712,o),
(75,615,o),
(75,349,cs),
(75,95,o),
(77,-2,o),
(266,-11,c),
(287,-124,l,{
name = hr00;
})
);
},
{
closed = 1;
nodes = (
(431,115,o),
(431,59,o),
(297,59,cs),
(162,59,o),
(162,115,o),
(162,193,cs),
(162,507,ls),
(162,585,o),
(162,641,o),
(297,641,cs),
(431,641,o),
(431,585,o),
(431,507,cs),
(431,193,l)
);
}
);
width = 593;
}
);
unicode = 81;
},
{
glyphname = R;
kernRight = R;
lastChange = "2023-02-17 11:12:29 +0000";
layers = (
{
anchors = (
{
name = bottom;
pos = (270,0);
},
{
name = top;
pos = (270,700);
}
);
background = {
shapes = (
{
closed = 1;
nodes = (
(480,0,l),
(365,287,l),
(433,314,o),
(463,375,o),
(463,484,cs),
(463,644,o),
(400,700,o),
(241,700,cs),
(90,700,l),
(90,0,l),
(176,0,l),
(176,268,l),
(241,268,ls),
(255,268,o),
(269,268,o),
(282,269,c),
(392,0,l,{
name = hr00;
})
);
},
{
closed = 1;
nodes = (
(376,389,o),
(376,339,o),
(242,339,cs),
(176,339,l),
(176,629,l),
(242,629,ls),
(376,629,o),
(376,579,o),
(376,506,cs),
(376,462,l)
);
}
);
};
layerId = master01;
shapes = (
{
closed = 1;
nodes = (
(480,0,l),
(365,287,l),
(433,314,o),
(463,375,o),
(463,484,cs),
(463,644,o),
(400,700,o),
(241,700,cs),
(90,700,l),
(90,0,l),
(176,0,l),
(176,268,l),
(241,268,ls),
(255,268,o),
(269,268,o),
(282,269,c),
(392,0,l,{
name = hr00;
})
);
},
{
closed = 1;
nodes = (
(376,389,o),
(376,339,o),
(242,339,cs),
(176,339,l),
(176,629,l),
(242,629,ls),
(376,629,o),
(376,579,o),
(376,506,cs),
(376,462,l)
);
}
);
width = 540;
}
);
unicode = 82;
},
{
glyphname = Racute;
kernRight = R;
lastChange = "2023-02-17 11:12:29 +0000";
layers = (
{
background = {
shapes = (
{
closed = 1;
nodes = (
(480,0,l),
(365,287,l),
(433,314,o),
(463,375,o),
(463,484,cs),
(463,644,o),
(400,700,o),
(241,700,cs),
(90,700,l),
(90,0,l),
(176,0,l),
(176,268,l),
(241,268,ls),
(255,268,o),
(269,268,o),
(282,269,c),
(392,0,l,{
name = hr00;
})
);
},
{
closed = 1;
nodes = (
(376,389,o),
(376,339,o),
(242,339,cs),
(176,339,l),
(176,629,l),
(242,629,ls),
(376,629,o),
(376,579,o),
(376,506,cs),
(376,462,l)
);
},
{
closed = 1;
nodes = (
(187,731,l),
(375,834,l),
(329,901,l),
(164,765,l,{
name = hr00;
})
);
}
);
};
layerId = master01;
shapes = (
{
ref = R;
},
{
pos = (40,0);
ref = acutecomb.case;
}
);
width = 540;
}
);
unicode = 340;
},
{
glyphname = Rcaron;
kernRight = R;
lastChange = "2023-02-17 11:12:29 +0000";
layers = (
{
background = {
shapes = (
{
closed = 1;
nodes = (
(480,0,l),
(365,287,l),
(433,314,o),
(463,375,o),
(463,484,cs),
(463,644,o),
(400,700,o),
(241,700,cs),
(90,700,l),
(90,0,l),
(176,0,l),
(176,268,l),
(241,268,ls),
(255,268,o),
(269,268,o),
(282,269,c),
(392,0,l,{
name = hr00;
})
);
},
{
closed = 1;
nodes = (
(376,389,o),
(376,339,o),
(242,339,cs),
(176,339,l),
(176,629,l),
(242,629,ls),
(376,629,o),
(376,579,o),
(376,506,cs),
(376,462,l)
);
},
{
closed = 1;
nodes = (
(136,845,l),
(270,729,l),
(403,845,l),
(373,882,l),
(270,815,l),
(167,882,l,{
name = hr00;
})
);
}
);
};
layerId = master01;
shapes = (
{
ref = R;
},
{
pos = (54,0);
ref = caroncomb.case;
}
);
width = 540;
}
);
unicode = 344;
},
{
glyphname = Rcommaaccent;
kernRight = R;
lastChange = "2023-02-17 11:12:29 +0000";
layers = (
{
background = {
shapes = (
{
closed = 1;
nodes = (
(480,0,l),
(365,287,l),
(433,314,o),
(463,375,o),
(463,484,cs),
(463,644,o),
(400,700,o),
(241,700,cs),
(90,700,l),
(90,0,l),
(176,0,l),
(176,268,l),
(241,268,ls),
(255,268,o),
(269,268,o),
(282,269,c),
(392,0,l,{
name = hr00;
})
);
},
{
closed = 1;
nodes = (
(376,389,o),
(376,339,o),
(242,339,cs),
(176,339,l),
(176,629,l),
(242,629,ls),
(376,629,o),
(376,579,o),
(376,506,cs),
(376,462,l)
);
},
{
closed = 1;
nodes = (
(237,-50,o),
(215,-50,o),
(215,-105,cs),
(215,-140,o),
(223,-153,o),
(238,-158,c),
(210,-241,l),
(255,-265,l),
(296,-200,ls),
(309,-179,o),
(319,-159,o),
(325,-138,cs),
(327,-130,o),
(329,-119,o),
(329,-105,cs),
(329,-50,o),
(307,-50,o),
(272,-50,c,{
name = hr00;
})
);
}
);
};
layerId = master01;
shapes = (
{
ref = R;
},
{
pos = (151,0);
ref = commaaccentcomb;
}
);
width = 540;
}
);
unicode = 342;
},
{
glyphname = S;
lastChange = "2023-02-17 10:52:01 +0000";
layers = (
{
anchors = (
{
name = bottom;
pos = (245,0);
},
{
name = top;
pos = (245,700);
}
);
background = {
shapes = (
{
closed = 1;
nodes = (
(385,-12,o),
(435,77,o),
(435,187,cs),
(435,325,o),
(387,368,o),
(308,380,cs),
(214,394,ls),
(152,403,o),
(141,444,o),
(141,518,cs),
(141,626,o),
(191,641,o),
(247,641,cs),
(308,641,o),
(368,627,o),
(393,620,c),
(411,680,l),
(368,696,o),
(312,712,o),
(246,712,cs),
(122,712,o),
(57,638,o),
(57,518,cs),
(57,401,o),
(75,335,o),
(174,320,cs),
(273,306,ls),
(344,296,o),
(351,240,o),
(351,188,cs),
(351,90,o),
(312,59,o),
(237,59,cs),
(176,59,o),
(110,74,o),
(73,87,c),
(55,25,l),
(110,1,o),
(182,-12,o),
(248,-12,c,{
name = hr00;
})
);
}
);
};
layerId = master01;
shapes = (
{
closed = 1;
nodes = (
(385,-12,o),
(435,77,o),
(435,187,cs),
(435,325,o),
(387,368,o),
(308,380,cs),
(214,394,ls),
(152,403,o),
(141,444,o),
(141,518,cs),
(141,626,o),
(191,641,o),
(247,641,cs),
(308,641,o),
(368,627,o),
(393,620,c),
(411,680,l),
(368,696,o),
(312,712,o),
(246,712,cs),
(122,712,o),
(57,638,o),
(57,518,cs),
(57,401,o),
(75,335,o),
(174,320,cs),
(273,306,ls),
(344,296,o),
(351,240,o),
(351,188,cs),
(351,90,o),
(312,59,o),
(237,59,cs),
(176,59,o),
(110,74,o),
(73,87,c),
(55,25,l),
(110,1,o),
(182,-12,o),
(248,-12,c,{
name = hr00;
})
);
}
);
width = 490;
}
);
unicode = 83;
},
{
glyphname = Sacute;
lastChange = "2023-02-17 10:52:01 +0000";
layers = (
{
background = {
shapes = (
{
closed = 1;
nodes = (
(385,-12,o),
(435,77,o),
(435,187,cs),
(435,325,o),
(387,368,o),
(308,380,cs),
(214,394,ls),
(152,403,o),
(141,444,o),
(141,518,cs),
(141,626,o),
(191,641,o),
(247,641,cs),
(308,641,o),
(368,627,o),
(393,620,c),
(411,680,l),
(368,696,o),
(312,712,o),
(246,712,cs),
(122,712,o),
(57,638,o),
(57,518,cs),
(57,401,o),
(75,335,o),
(174,320,cs),
(273,306,ls),
(344,296,o),
(351,240,o),
(351,188,cs),
(351,90,o),
(312,59,o),
(237,59,cs),
(176,59,o),
(110,74,o),
(73,87,c),
(55,25,l),
(110,1,o),
(182,-12,o),
(248,-12,c,{
name = hr00;
})
);
},
{
closed = 1;
nodes = (
(162,731,l),
(350,834,l),
(304,901,l),
(139,765,l,{
name = hr00;
})
);
}
);
};
layerId = master01;
shapes = (
{
ref = S;
},
{
pos = (15,0);
ref = acutecomb.case;
}
);
width = 490;
}
);
unicode = 346;
},
{
glyphname = Scaron;
lastChange = "2023-02-17 10:52:01 +0000";
layers = (
{
background = {
shapes = (
{
closed = 1;
nodes = (
(385,-12,o),
(435,77,o),
(435,187,cs),
(435,325,o),
(387,368,o),
(308,380,cs),
(214,394,ls),
(152,403,o),
(141,444,o),
(141,518,cs),
(141,626,o),
(191,641,o),
(247,641,cs),
(308,641,o),
(368,627,o),
(393,620,c),
(411,680,l),
(368,696,o),
(312,712,o),
(246,712,cs),
(122,712,o),
(57,638,o),
(57,518,cs),
(57,401,o),
(75,335,o),
(174,320,cs),
(273,306,ls),
(344,296,o),
(351,240,o),
(351,188,cs),
(351,90,o),
(312,59,o),
(237,59,cs),
(176,59,o),
(110,74,o),
(73,87,c),
(55,25,l),
(110,1,o),
(182,-12,o),
(248,-12,c,{
name = hr00;
})
);
},
{
closed = 1;
nodes = (
(111,845,l),
(245,729,l),
(378,845,l),
(348,882,l),
(245,815,l),
(142,882,l,{
name = hr00;
})
);
}
);
};
layerId = master01;
shapes = (
{
ref = S;
},
{
pos = (29,0);
ref = caroncomb.case;
}
);
width = 490;
}
);
unicode = 352;
},
{
glyphname = Scedilla;
lastChange = "2023-02-17 10:52:01 +0000";
layers = (
{
background = {
shapes = (
{
closed = 1;
nodes = (
(385,-12,o),
(435,77,o),
(435,187,cs),
(435,325,o),
(387,368,o),
(308,380,cs),
(214,394,ls),
(152,403,o),
(141,444,o),
(141,518,cs),
(141,626,o),
(191,641,o),
(247,641,cs),
(308,641,o),
(368,627,o),
(393,620,c),
(411,680,l),
(368,696,o),
(312,712,o),
(246,712,cs),
(122,712,o),
(57,638,o),
(57,518,cs),
(57,401,o),
(75,335,o),
(174,320,cs),
(273,306,ls),
(344,296,o),
(351,240,o),
(351,188,cs),
(351,90,o),
(312,59,o),
(237,59,cs),
(176,59,o),
(110,74,o),
(73,87,c),
(55,25,l),
(110,1,o),
(182,-12,o),
(248,-12,c,{
name = hr00;
})
);
},
{
closed = 1;
nodes = (
(207,0,l),
(197,-70,l),
(212,-94,l),
(232,-94,ls),
(261,-94,o),
(261,-112,o),
(261,-122,cs),
(261,-136,o),
(261,-150,o),
(225,-150,cs),
(199,-150,o),
(195,-147,o),
(174,-142,c),
(164,-177,l),
(175,-183,o),
(201,-194,o),
(235,-194,cs),
(315,-194,o),
(326,-157,o),
(326,-118,cs),
(326,-85,o),
(316,-56,o),
(253,-56,cs),
(241,-56,l),
(248,0,l,{
name = hr00;
})
);
}
);
};
layerId = master01;
shapes = (
{
ref = S;
},
{
pos = (154,0);
ref = cedillacomb;
}
);
width = 490;
}
);
unicode = 350;
},
{
glyphname = Scircumflex;
lastChange = "2023-02-17 10:52:01 +0000";
layers = (
{
background = {
shapes = (
{
closed = 1;
nodes = (
(385,-12,o),
(435,77,o),
(435,187,cs),
(435,325,o),
(387,368,o),
(308,380,cs),
(214,394,ls),
(152,403,o),
(141,444,o),
(141,518,cs),
(141,626,o),
(191,641,o),
(247,641,cs),
(308,641,o),
(368,627,o),
(393,620,c),
(411,680,l),
(368,696,o),
(312,712,o),
(246,712,cs),
(122,712,o),
(57,638,o),
(57,518,cs),
(57,401,o),
(75,335,o),
(174,320,cs),
(273,306,ls),
(344,296,o),
(351,240,o),
(351,188,cs),
(351,90,o),
(312,59,o),
(237,59,cs),
(176,59,o),
(110,74,o),
(73,87,c),
(55,25,l),
(110,1,o),
(182,-12,o),
(248,-12,c,{
name = hr00;
})
);
},
{
closed = 1;
nodes = (
(378,775,l),
(244,891,l),
(111,775,l),
(141,738,l),
(244,805,l),
(347,738,l,{
name = hr00;
})
);
}
);
};
layerId = master01;
shapes = (
{
ref = S;
},
{
pos = (29,0);
ref = circumflexcomb.case;
}
);
width = 490;
}
);
unicode = 348;
},
{
glyphname = Scommaaccent;
lastChange = "2023-02-17 10:52:01 +0000";
layers = (
{
background = {
shapes = (
{
closed = 1;
nodes = (
(385,-12,o),
(435,77,o),
(435,187,cs),
(435,325,o),
(387,368,o),
(308,380,cs),
(214,394,ls),
(152,403,o),
(141,444,o),
(141,518,cs),
(141,626,o),
(191,641,o),
(247,641,cs),
(308,641,o),
(368,627,o),
(393,620,c),
(411,680,l),
(368,696,o),
(312,712,o),
(246,712,cs),
(122,712,o),
(57,638,o),
(57,518,cs),
(57,401,o),
(75,335,o),
(174,320,cs),
(273,306,ls),
(344,296,o),
(351,240,o),
(351,188,cs),
(351,90,o),
(312,59,o),
(237,59,cs),
(176,59,o),
(110,74,o),
(73,87,c),
(55,25,l),
(110,1,o),
(182,-12,o),
(248,-12,c,{
name = hr00;
})
);
},
{
closed = 1;
nodes = (
(212,-50,o),
(190,-50,o),
(190,-105,cs),
(190,-140,o),
(198,-153,o),
(213,-158,c),
(185,-241,l),
(230,-265,l),
(271,-200,ls),
(284,-179,o),
(294,-159,o),
(300,-138,cs),
(302,-130,o),
(304,-119,o),
(304,-105,cs),
(304,-50,o),
(282,-50,o),
(247,-50,c,{
name = hr00;
})
);
}
);
};
layerId = master01;
shapes = (
{
ref = S;
},
{
pos = (126,0);
ref = commaaccentcomb;
}
);
width = 490;
}
);
unicode = 536;
},
{
glyphname = T;
kernLeft = T;
kernRight = T;
lastChange = "2023-02-17 11:03:12 +0000";
layers = (
{
anchors = (
{
name = bottom;
pos = (200,0);
},
{
name = center;
pos = (200,350);
},
{
name = top;
pos = (200,700);
}
);
background = {
shapes = (
{
closed = 1;
nodes = (
(10,630,l),
(157,630,l),
(157,0,l),
(243,0,l),
(243,630,l),
(390,630,l),
(390,700,l),
(10,700,l,{
name = hr00;
})
);
}
);
};
layerId = master01;
shapes = (
{
closed = 1;
nodes = (
(10,630,l),
(157,630,l),
(157,0,l),
(243,0,l),
(243,630,l),
(390,630,l),
(390,700,l),
(10,700,l,{
name = hr00;
})
);
}
);
width = 400;
}
);
unicode = 84;
},
{
glyphname = Tbar;
kernLeft = T;
kernRight = T;
lastChange = "2023-02-17 11:03:12 +0000";
layers = (
{
background = {
shapes = (
{
closed = 1;
nodes = (
(10,630,l),
(157,630,l),
(157,0,l),
(243,0,l),
(243,630,l),
(390,630,l),
(390,700,l),
(10,700,l,{
name = hr00;
})
);
},
{
closed = 1;
nodes = (
(32,305,l),
(368,305,l),
(368,365,l),
(32,365,l,{
name = hr00;
})
);
}
);
};
layerId = master01;
shapes = (
{
closed = 1;
nodes = (
(368,305,l),
(368,365,l),
(32,365,l,{
name = hr00;
}),
(32,305,l)
);
},
{
alignment = -1;
ref = T;
}
);
width = 400;
}
);
unicode = 358;
},
{
glyphname = Tcaron;
kernLeft = T;
kernRight = T;
lastChange = "2023-02-17 11:03:12 +0000";
layers = (
{
background = {
shapes = (
{
closed = 1;
nodes = (
(10,630,l),
(157,630,l),
(157,0,l),
(243,0,l),
(243,630,l),
(390,630,l),
(390,700,l),
(10,700,l,{
name = hr00;
})
);
},
{
closed = 1;
nodes = (
(66,845,l),
(200,729,l),
(333,845,l),
(303,882,l),
(200,815,l),
(97,882,l,{
name = hr00;
})
);
}
);
};
layerId = master01;
shapes = (
{
ref = T;
},
{
pos = (-16,0);
ref = caroncomb.case;
}
);
width = 400;
}
);
unicode = 356;
},
{
glyphname = Tcedilla;
kernLeft = T;
kernRight = T;
lastChange = "2023-02-17 11:03:12 +0000";
layers = (
{
background = {
shapes = (
{
closed = 1;
nodes = (
(10,630,l),
(157,630,l),
(157,0,l),
(243,0,l),
(243,630,l),
(390,630,l),
(390,700,l),
(10,700,l,{
name = hr00;
})
);
},
{
closed = 1;
nodes = (
(162,0,l),
(152,-70,l),
(167,-94,l),
(187,-94,ls),
(216,-94,o),
(216,-112,o),
(216,-122,cs),
(216,-136,o),
(216,-150,o),
(180,-150,cs),
(154,-150,o),
(150,-147,o),
(129,-142,c),
(119,-177,l),
(130,-183,o),
(156,-194,o),
(190,-194,cs),
(270,-194,o),
(281,-157,o),
(281,-118,cs),
(281,-85,o),
(271,-56,o),
(208,-56,cs),
(196,-56,l),
(203,0,l,{
name = hr00;
})
);
}
);
};
layerId = master01;
shapes = (
{
ref = T;
},
{
pos = (109,0);
ref = cedillacomb;
}
);
width = 400;
}
);
unicode = 354;
},
{
glyphname = Tcommaaccent;
kernLeft = T;
kernRight = T;
lastChange = "2023-02-17 11:03:12 +0000";
layers = (
{
background = {
shapes = (
{
closed = 1;
nodes = (
(10,630,l),
(157,630,l),
(157,0,l),
(243,0,l),
(243,630,l),
(390,630,l),
(390,700,l),
(10,700,l,{
name = hr00;
})
);
},
{
closed = 1;
nodes = (
(167,-50,o),
(145,-50,o),
(145,-105,cs),
(145,-140,o),
(153,-153,o),
(168,-158,c),
(140,-241,l),
(185,-265,l),
(226,-200,ls),
(239,-179,o),
(249,-159,o),
(255,-138,cs),
(257,-130,o),
(259,-119,o),
(259,-105,cs),
(259,-50,o),
(237,-50,o),
(202,-50,c,{
name = hr00;
})
);
}
);
};
layerId = master01;
shapes = (
{
ref = T;
},
{
pos = (81,0);
ref = commaaccentcomb;
}
);
width = 400;
}
);
unicode = 538;
},
{
glyphname = U;
lastChange = "2023-02-17 10:52:01 +0000";
layers = (
{
anchors = (
{
name = bottom;
pos = (306,0);
},
{
name = ogonek;
pos = (406,15);
},
{
name = top;
pos = (306,700);
},
{
name = topright;
pos = (591,700);
}
);
background = {
shapes = (
{
closed = 1;
nodes = (
(440,193,ls),
(440,115,o),
(440,62,o),
(306,62,cs),
(171,62,o),
(171,115,o),
(171,193,cs),
(171,700,l),
(85,700,l),
(85,349,ls),
(85,82,o),
(86,-12,o),
(305,-12,cs),
(525,-12,o),
(526,82,o),
(526,349,cs),
(526,700,l),
(440,700,l,{
name = hr00;
})
);
}
);
};
layerId = master01;
shapes = (
{
closed = 1;
nodes = (
(440,193,ls),
(440,115,o),
(440,62,o),
(306,62,cs),
(171,62,o),
(171,115,o),
(171,193,cs),
(171,700,l),
(85,700,l),
(85,349,ls),
(85,82,o),
(86,-12,o),
(305,-12,cs),
(525,-12,o),
(526,82,o),
(526,349,cs),
(526,700,l),
(440,700,l,{
name = hr00;
})
);
}
);
width = 611;
}
);
unicode = 85;
},
{
glyphname = Uacute;
lastChange = "2023-02-17 10:52:01 +0000";
layers = (
{
background = {
shapes = (
{
closed = 1;
nodes = (
(440,193,ls),
(440,115,o),
(440,62,o),
(306,62,cs),
(171,62,o),
(171,115,o),
(171,193,cs),
(171,700,l),
(85,700,l),
(85,349,ls),
(85,82,o),
(86,-12,o),
(305,-12,cs),
(525,-12,o),
(526,82,o),
(526,349,cs),
(526,700,l),
(440,700,l,{
name = hr00;
})
);
},
{
closed = 1;
nodes = (
(223,731,l),
(411,834,l),
(365,901,l),
(200,765,l,{
name = hr00;
})
);
}
);
};
layerId = master01;
shapes = (
{
ref = U;
},
{
pos = (76,0);
ref = acutecomb.case;
}
);
width = 611;
}
);
unicode = 218;
},
{
glyphname = Ubreve;
lastChange = "2023-02-17 10:52:01 +0000";
layers = (
{
background = {
shapes = (
{
closed = 1;
nodes = (
(440,193,ls),
(440,115,o),
(440,62,o),
(306,62,cs),
(171,62,o),
(171,115,o),
(171,193,cs),
(171,700,l),
(85,700,l),
(85,349,ls),
(85,82,o),
(86,-12,o),
(305,-12,cs),
(525,-12,o),
(526,82,o),
(526,349,cs),
(526,700,l),
(440,700,l,{
name = hr00;
})
);
},
{
closed = 1;
nodes = (
(363,736,o),
(392,757,o),
(414,803,cs),
(435,847,l),
(390,869,l),
(374,838,o),
(359,806,o),
(306,806,cs),
(253,806,o),
(238,838,o),
(222,869,c),
(177,847,l),
(198,803,ls),
(220,757,o),
(249,736,o),
(306,736,c,{
name = hr00;
})
);
}
);
};
layerId = master01;
shapes = (
{
ref = U;
},
{
pos = (91,0);
ref = brevecomb.case;
}
);
width = 611;
}
);
unicode = 364;
},
{
glyphname = Ucircumflex;
lastChange = "2023-02-17 10:52:01 +0000";
layers = (
{
background = {
shapes = (
{
closed = 1;
nodes = (
(440,193,ls),
(440,115,o),
(440,62,o),
(306,62,cs),
(171,62,o),
(171,115,o),
(171,193,cs),
(171,700,l),
(85,700,l),
(85,349,ls),
(85,82,o),
(86,-12,o),
(305,-12,cs),
(525,-12,o),
(526,82,o),
(526,349,cs),
(526,700,l),
(440,700,l,{
name = hr00;
})
);
},
{
closed = 1;
nodes = (
(439,775,l),
(305,891,l),
(172,775,l),
(202,738,l),
(305,805,l),
(408,738,l,{
name = hr00;
})
);
}
);
};
layerId = master01;
shapes = (
{
ref = U;
},
{
pos = (90,0);
ref = circumflexcomb.case;
}
);
width = 611;
}
);
unicode = 219;
},
{
glyphname = Udieresis;
lastChange = "2023-02-17 10:52:01 +0000";
layers = (
{
background = {
shapes = (
{
closed = 1;
nodes = (
(440,193,ls),
(440,115,o),
(440,62,o),
(306,62,cs),
(171,62,o),
(171,115,o),
(171,193,cs),
(171,700,l),
(85,700,l),
(85,349,ls),
(85,82,o),
(86,-12,o),
(305,-12,cs),
(525,-12,o),
(526,82,o),
(526,349,cs),
(526,700,l),
(440,700,l,{
name = hr00;
})
);
},
{
closed = 1;
nodes = (
(184,862,o),
(164,862,o),
(164,812,cs),
(164,761,o),
(184,761,o),
(216,761,cs),
(248,761,o),
(268,761,o),
(268,812,cs),
(268,862,o),
(248,862,o),
(216,862,c,{
name = hr00;
})
);
},
{
closed = 1;
nodes = (
(364,862,o),
(344,862,o),
(344,812,cs),
(344,761,o),
(364,761,o),
(396,761,cs),
(428,761,o),
(448,761,o),
(448,812,cs),
(448,862,o),
(428,862,o),
(396,862,c)
);
}
);
};
layerId = master01;
shapes = (
{
ref = U;
},
{
pos = (91,0);
ref = dieresiscomb.case;
}
);
width = 611;
}
);
unicode = 220;
},
{
glyphname = Ugrave;
lastChange = "2023-02-17 13:10:10 +0000";
layers = (
{
background = {
shapes = (
{
closed = 1;
nodes = (
(440,193,ls),
(440,115,o),
(440,62,o),
(306,62,cs),
(171,62,o),
(171,115,o),
(171,193,cs),
(171,700,l),
(85,700,l),
(85,349,ls),
(85,82,o),
(86,-12,o),
(305,-12,cs),
(525,-12,o),
(526,82,o),
(526,349,cs),
(526,700,l),
(440,700,l,{
name = hr00;
})
);
},
{
closed = 1;
nodes = (
(411,765,l),
(246,901,l),
(200,834,l),
(388,731,l,{
name = hr00;
})
);
}
);
};
layerId = master01;
shapes = (
{
ref = U;
},
{
pos = (106,180);
ref = gravecomb.case;
}
);
width = 611;
}
);
unicode = 217;
},
{
glyphname = Uhungarumlaut;
lastChange = "2023-02-17 10:52:01 +0000";
layers = (
{
background = {
shapes = (
{
closed = 1;
nodes = (
(440,193,ls),
(440,115,o),
(440,62,o),
(306,62,cs),
(171,62,o),
(171,115,o),
(171,193,cs),
(171,700,l),
(85,700,l),
(85,349,ls),
(85,82,o),
(86,-12,o),
(305,-12,cs),
(525,-12,o),
(526,82,o),
(526,349,cs),
(526,700,l),
(440,700,l,{
name = hr00;
})
);
},
{
closed = 1;
nodes = (
(185,731,l),
(353,834,l),
(303,900,l),
(158,764,l,{
name = hr00;
})
);
},
{
closed = 1;
nodes = (
(385,731,l),
(553,834,l),
(503,900,l),
(358,764,l)
);
}
);
};
layerId = master01;
shapes = (
{
ref = U;
},
{
pos = (123,0);
ref = hungarumlautcomb.case;
}
);
width = 611;
}
);
unicode = 368;
},
{
glyphname = Umacron;
lastChange = "2023-02-17 10:52:01 +0000";
layers = (
{
background = {
shapes = (
{
closed = 1;
nodes = (
(440,193,ls),
(440,115,o),
(440,62,o),
(306,62,cs),
(171,62,o),
(171,115,o),
(171,193,cs),
(171,700,l),
(85,700,l),
(85,349,ls),
(85,82,o),
(86,-12,o),
(305,-12,cs),
(525,-12,o),
(526,82,o),
(526,349,cs),
(526,700,l),
(440,700,l,{
name = hr00;
})
);
},
{
closed = 1;
nodes = (
(186,780,l),
(426,780,l),
(426,843,l),
(186,843,l,{
name = hr00;
})
);
}
);
};
layerId = master01;
shapes = (
{
ref = U;
},
{
pos = (106,0);
ref = macroncomb.case;
}
);
width = 611;
}
);
unicode = 362;
},
{
glyphname = Uogonek;
lastChange = "2023-02-17 10:52:01 +0000";
layers = (
{
background = {
shapes = (
{
closed = 1;
nodes = (
(440,193,ls),
(440,115,o),
(440,62,o),
(306,62,cs),
(171,62,o),
(171,115,o),
(171,193,cs),
(171,700,l),
(85,700,l),
(85,349,ls),
(85,82,o),
(86,-12,o),
(305,-12,cs),
(525,-12,o),
(526,82,o),
(526,349,cs),
(526,700,l),
(440,700,l,{
name = hr00;
})
);
},
{
closed = 1;
nodes = (
(325,15,l),
(270,-44,ls),
(244,-72,o),
(234,-90,o),
(234,-113,cs),
(234,-143,o),
(245,-177,o),
(306,-177,cs),
(354,-177,o),
(388,-157,o),
(406,-144,c),
(396,-109,l),
(372,-125,o),
(351,-133,o),
(325,-133,cs),
(302,-133,o),
(299,-120,o),
(299,-107,cs),
(299,-91,o),
(323,-53,o),
(336,-33,cs),
(356,0,l),
(356,15,l,{
name = hr00;
})
);
}
);
};
layerId = master01;
shapes = (
{
ref = U;
},
{
pos = (218,0);
ref = ogonekcomb;
}
);
width = 611;
}
);
unicode = 370;
},
{
glyphname = Uring;
lastChange = "2023-02-17 10:52:01 +0000";
layers = (
{
background = {
shapes = (
{
closed = 1;
nodes = (
(440,193,ls),
(440,115,o),
(440,62,o),
(306,62,cs),
(171,62,o),
(171,115,o),
(171,193,cs),
(171,700,l),
(85,700,l),
(85,349,ls),
(85,82,o),
(86,-12,o),
(305,-12,cs),
(525,-12,o),
(526,82,o),
(526,349,cs),
(526,700,l),
(440,700,l,{
name = hr00;
})
);
},
{
closed = 1;
nodes = (
(324,847,o),
(339,844,o),
(339,812,cs),
(339,779,o),
(324,777,o),
(306,777,cs),
(288,777,o),
(273,779,o),
(273,812,cs),
(273,844,o),
(288,847,o),
(306,847,c,{
name = hr00;
})
);
},
{
closed = 1;
nodes = (
(254,896,o),
(219,888,o),
(219,812,cs),
(219,736,o),
(254,728,o),
(306,728,cs),
(358,728,o),
(393,736,o),
(393,812,cs),
(393,888,o),
(358,896,o),
(306,896,c)
);
}
);
};
layerId = master01;
shapes = (
{
ref = U;
},
{
pos = (91,0);
ref = ringcomb.case;
}
);
width = 611;
}
);
unicode = 366;
},
{
glyphname = Utilde;
lastChange = "2023-02-17 10:52:01 +0000";
layers = (
{
background = {
shapes = (
{
closed = 1;
nodes = (
(440,193,ls),
(440,115,o),
(440,62,o),
(306,62,cs),
(171,62,o),
(171,115,o),
(171,193,cs),
(171,700,l),
(85,700,l),
(85,349,ls),
(85,82,o),
(86,-12,o),
(305,-12,cs),
(525,-12,o),
(526,82,o),
(526,349,cs),
(526,700,l),
(440,700,l,{
name = hr00;
})
);
},
{
closed = 1;
nodes = (
(395,837,o),
(379,830,o),
(359,830,cs),
(321,830,o),
(293,857,o),
(258,857,cs,{
name = hr01;
}),
(234,857,o),
(215,852,o),
(174,810,c),
(196,772,l),
(216,785,o),
(232,792,o),
(252,792,cs),
(290,792,o),
(318,765,o),
(353,765,cs,{
name = hr02;
}),
(377,765,o),
(396,770,o),
(437,812,c),
(415,850,l)
);
}
);
};
layerId = master01;
shapes = (
{
ref = U;
},
{
pos = (75,0);
ref = tildecomb.case;
}
);
width = 611;
}
);
unicode = 360;
},
{
glyphname = V;
kernLeft = V;
kernRight = V;
lastChange = "2023-02-17 11:03:15 +0000";
layers = (
{
anchors = (
{
name = bottom;
pos = (266,0);
},
{
name = top;
pos = (266,700);
}
);
background = {
shapes = (
{
closed = 1;
nodes = (
(333,0,l),
(497,700,l),
(412,700,l),
(269,57,l),
(263,57,l),
(120,700,l),
(35,700,l),
(199,0,l,{
name = hr00;
})
);
}
);
};
layerId = master01;
shapes = (
{
closed = 1;
nodes = (
(333,0,l),
(497,700,l),
(412,700,l),
(269,57,l),
(263,57,l),
(120,700,l),
(35,700,l),
(199,0,l,{
name = hr00;
})
);
}
);
width = 532;
}
);
unicode = 86;
},
{
glyphname = W;
kernLeft = W;
kernRight = W;
lastChange = "2023-02-17 11:03:20 +0000";
layers = (
{
anchors = (
{
name = bottom;
pos = (423,0);
},
{
name = top;
pos = (423,700);
}
);
background = {
shapes = (
{
closed = 1;
nodes = (
(672,0,l),
(790,700,l),
(705,700,l),
(604,57,l),
(598,57,l),
(470,700,l),
(375,700,l),
(247,57,l),
(241,57,l),
(140,700,l),
(55,700,l),
(173,0,l),
(308,0,l),
(419,572,l),
(425,572,l),
(537,0,l,{
name = hr00;
})
);
}
);
};
layerId = master01;
shapes = (
{
closed = 1;
nodes = (
(672,0,l),
(790,700,l),
(705,700,l),
(604,57,l),
(598,57,l),
(470,700,l),
(375,700,l),
(247,57,l),
(241,57,l),
(140,700,l),
(55,700,l),
(173,0,l),
(308,0,l),
(419,572,l),
(425,572,l),
(537,0,l,{
name = hr00;
})
);
}
);
width = 845;
}
);
unicode = 87;
},
{
glyphname = Wacute;
kernLeft = W;
kernRight = W;
lastChange = "2023-02-17 11:03:20 +0000";
layers = (
{
background = {
shapes = (
{
closed = 1;
nodes = (
(672,0,l),
(790,700,l),
(705,700,l),
(604,57,l),
(598,57,l),
(470,700,l),
(375,700,l),
(247,57,l),
(241,57,l),
(140,700,l),
(55,700,l),
(173,0,l),
(308,0,l),
(419,572,l),
(425,572,l),
(537,0,l,{
name = hr00;
})
);
},
{
closed = 1;
nodes = (
(340,731,l),
(528,834,l),
(482,901,l),
(317,765,l,{
name = hr00;
})
);
}
);
};
layerId = master01;
shapes = (
{
ref = W;
},
{
pos = (193,0);
ref = acutecomb.case;
}
);
width = 845;
}
);
unicode = 7810;
},
{
glyphname = Wcircumflex;
kernLeft = W;
kernRight = W;
lastChange = "2023-02-17 11:03:20 +0000";
layers = (
{
background = {
shapes = (
{
closed = 1;
nodes = (
(672,0,l),
(790,700,l),
(705,700,l),
(604,57,l),
(598,57,l),
(470,700,l),
(375,700,l),
(247,57,l),
(241,57,l),
(140,700,l),
(55,700,l),
(173,0,l),
(308,0,l),
(419,572,l),
(425,572,l),
(537,0,l,{
name = hr00;
})
);
},
{
closed = 1;
nodes = (
(556,775,l),
(422,891,l),
(289,775,l),
(319,738,l),
(422,805,l),
(525,738,l,{
name = hr00;
})
);
}
);
};
layerId = master01;
shapes = (
{
ref = W;
},
{
pos = (207,0);
ref = circumflexcomb.case;
}
);
width = 845;
}
);
unicode = 372;
},
{
glyphname = Wdieresis;
kernLeft = W;
kernRight = W;
lastChange = "2023-02-17 11:03:20 +0000";
layers = (
{
background = {
shapes = (
{
closed = 1;
nodes = (
(672,0,l),
(790,700,l),
(705,700,l),
(604,57,l),
(598,57,l),
(470,700,l),
(375,700,l),
(247,57,l),
(241,57,l),
(140,700,l),
(55,700,l),
(173,0,l),
(308,0,l),
(419,572,l),
(425,572,l),
(537,0,l,{
name = hr00;
})
);
},
{
closed = 1;
nodes = (
(301,862,o),
(281,862,o),
(281,812,cs),
(281,761,o),
(301,761,o),
(333,761,cs),
(365,761,o),
(385,761,o),
(385,812,cs),
(385,862,o),
(365,862,o),
(333,862,c,{
name = hr00;
})
);
},
{
closed = 1;
nodes = (
(481,862,o),
(461,862,o),
(461,812,cs),
(461,761,o),
(481,761,o),
(513,761,cs),
(545,761,o),
(565,761,o),
(565,812,cs),
(565,862,o),
(545,862,o),
(513,862,c)
);
}
);
};
layerId = master01;
shapes = (
{
ref = W;
},
{
pos = (208,0);
ref = dieresiscomb.case;
}
);
width = 845;
}
);
unicode = 7812;
},
{
glyphname = Wgrave;
kernLeft = W;
kernRight = W;
lastChange = "2023-02-17 13:10:10 +0000";
layers = (
{
background = {
shapes = (
{
closed = 1;
nodes = (
(672,0,l),
(790,700,l),
(705,700,l),
(604,57,l),
(598,57,l),
(470,700,l),
(375,700,l),
(247,57,l),
(241,57,l),
(140,700,l),
(55,700,l),
(173,0,l),
(308,0,l),
(419,572,l),
(425,572,l),
(537,0,l,{
name = hr00;
})
);
},
{
closed = 1;
nodes = (
(528,765,l),
(363,901,l),
(317,834,l),
(505,731,l,{
name = hr00;
})
);
}
);
};
layerId = master01;
shapes = (
{
ref = W;
},
{
pos = (223,180);
ref = gravecomb.case;
}
);
width = 845;
}
);
unicode = 7808;
},
{
glyphname = X;
lastChange = "2023-02-17 10:52:01 +0000";
layers = (
{
anchors = (
{
name = bottom;
pos = (258,0);
},
{
name = top;
pos = (258,700);
}
);
background = {
shapes = (
{
closed = 1;
nodes = (
(257,435,l),
(122,700,l),
(31,700,l),
(210,350,l),
(30,0,l),
(122,0,l),
(257,265,l),
(393,0,l),
(485,0,l),
(305,350,l),
(484,700,l),
(393,700,l,{
name = hr00;
})
);
}
);
};
layerId = master01;
shapes = (
{
closed = 1;
nodes = (
(257,435,l),
(122,700,l),
(31,700,l),
(210,350,l),
(30,0,l),
(122,0,l),
(257,265,l),
(393,0,l),
(485,0,l),
(305,350,l),
(484,700,l),
(393,700,l,{
name = hr00;
})
);
}
);
width = 515;
}
);
unicode = 88;
},
{
glyphname = Y;
kernLeft = Y;
kernRight = Y;
lastChange = "2023-02-17 10:56:58 +0000";
layers = (
{
anchors = (
{
name = bottom;
pos = (239,0);
},
{
name = top;
pos = (239,700);
},
{
name = topleft;
pos = (20,700);
}
);
background = {
shapes = (
{
closed = 1;
nodes = (
(279,225,l),
(453,700,l),
(365,700,l),
(242,319,l),
(236,319,l),
(113,700,l),
(25,700,l),
(199,225,l),
(199,0,l),
(279,0,l,{
name = hr00;
})
);
}
);
};
layerId = master01;
shapes = (
{
closed = 1;
nodes = (
(279,225,l),
(453,700,l),
(365,700,l),
(242,319,l),
(236,319,l),
(113,700,l),
(25,700,l),
(199,225,l),
(199,0,l),
(279,0,l,{
name = hr00;
})
);
}
);
width = 478;
}
);
unicode = 89;
},
{
glyphname = Yacute;
kernLeft = Y;
kernRight = Y;
lastChange = "2023-02-17 10:56:58 +0000";
layers = (
{
background = {
shapes = (
{
closed = 1;
nodes = (
(279,225,l),
(453,700,l),
(365,700,l),
(242,319,l),
(236,319,l),
(113,700,l),
(25,700,l),
(199,225,l),
(199,0,l),
(279,0,l,{
name = hr00;
})
);
},
{
closed = 1;
nodes = (
(156,731,l),
(344,834,l),
(298,901,l),
(133,765,l,{
name = hr00;
})
);
}
);
};
layerId = master01;
shapes = (
{
ref = Y;
},
{
pos = (9,0);
ref = acutecomb.case;
}
);
width = 478;
}
);
unicode = 221;
},
{
glyphname = Ycircumflex;
kernLeft = Y;
kernRight = Y;
lastChange = "2023-02-17 10:56:58 +0000";
layers = (
{
background = {
shapes = (
{
closed = 1;
nodes = (
(279,225,l),
(453,700,l),
(365,700,l),
(242,319,l),
(236,319,l),
(113,700,l),
(25,700,l),
(199,225,l),
(199,0,l),
(279,0,l,{
name = hr00;
})
);
},
{
closed = 1;
nodes = (
(372,775,l),
(238,891,l),
(105,775,l),
(135,738,l),
(238,805,l),
(341,738,l,{
name = hr00;
})
);
}
);
};
layerId = master01;
shapes = (
{
ref = Y;
},
{
pos = (23,0);
ref = circumflexcomb.case;
}
);
width = 478;
}
);
unicode = 374;
},
{
glyphname = Ydieresis;
kernLeft = Y;
kernRight = Y;
lastChange = "2023-02-17 10:56:58 +0000";
layers = (
{
background = {
shapes = (
{
closed = 1;
nodes = (
(279,225,l),
(453,700,l),
(365,700,l),
(242,319,l),
(236,319,l),
(113,700,l),
(25,700,l),
(199,225,l),
(199,0,l),
(279,0,l,{
name = hr00;
})
);
},
{
closed = 1;
nodes = (
(117,862,o),
(97,862,o),
(97,812,cs),
(97,761,o),
(117,761,o),
(149,761,cs),
(181,761,o),
(201,761,o),
(201,812,cs),
(201,862,o),
(181,862,o),
(149,862,c,{
name = hr00;
})
);
},
{
closed = 1;
nodes = (
(297,862,o),
(277,862,o),
(277,812,cs),
(277,761,o),
(297,761,o),
(329,761,cs),
(361,761,o),
(381,761,o),
(381,812,cs),
(381,862,o),
(361,862,o),
(329,862,c)
);
}
);
};
layerId = master01;
shapes = (
{
ref = Y;
},
{
pos = (24,0);
ref = dieresiscomb.case;
}
);
width = 478;
}
);
unicode = 376;
},
{
glyphname = Ygrave;
kernLeft = Y;
kernRight = Y;
lastChange = "2023-02-17 13:10:10 +0000";
layers = (
{
background = {
shapes = (
{
closed = 1;
nodes = (
(279,225,l),
(453,700,l),
(365,700,l),
(242,319,l),
(236,319,l),
(113,700,l),
(25,700,l),
(199,225,l),
(199,0,l),
(279,0,l,{
name = hr00;
})
);
},
{
closed = 1;
nodes = (
(344,765,l),
(179,901,l),
(133,834,l),
(321,731,l,{
name = hr00;
})
);
}
);
};
layerId = master01;
shapes = (
{
ref = Y;
},
{
pos = (39,180);
ref = gravecomb.case;
}
);
width = 478;
}
);
unicode = 7922;
},
{
glyphname = Z;
lastChange = "2023-02-17 10:52:01 +0000";
layers = (
{
anchors = (
{
name = bottom;
pos = (244,0);
},
{
name = center;
pos = (244,350);
},
{
name = top;
pos = (244,700);
}
);
background = {
shapes = (
{
closed = 1;
nodes = (
(60,630,l),
(355,630,l),
(40,59,l),
(40,0,l),
(442,0,l),
(442,70,l),
(133,70,l),
(447,641,l),
(447,700,l),
(60,700,l,{
name = hr00;
})
);
}
);
};
layerId = master01;
shapes = (
{
closed = 1;
nodes = (
(60,630,l),
(355,630,l),
(40,59,l),
(40,0,l),
(442,0,l),
(442,70,l),
(133,70,l),
(447,641,l),
(447,700,l),
(60,700,l,{
name = hr00;
})
);
}
);
width = 487;
}
);
unicode = 90;
},
{
glyphname = Zacute;
lastChange = "2023-02-17 10:52:01 +0000";
layers = (
{
background = {
shapes = (
{
closed = 1;
nodes = (
(60,630,l),
(355,630,l),
(40,59,l),
(40,0,l),
(442,0,l),
(442,70,l),
(133,70,l),
(447,641,l),
(447,700,l),
(60,700,l,{
name = hr00;
})
);
},
{
closed = 1;
nodes = (
(161,731,l),
(349,834,l),
(303,901,l),
(138,765,l,{
name = hr00;
})
);
}
);
};
layerId = master01;
shapes = (
{
ref = Z;
},
{
pos = (14,0);
ref = acutecomb.case;
}
);
width = 487;
}
);
unicode = 377;
},
{
glyphname = Zcaron;
lastChange = "2023-02-17 10:52:01 +0000";
layers = (
{
background = {
shapes = (
{
closed = 1;
nodes = (
(60,630,l),
(355,630,l),
(40,59,l),
(40,0,l),
(442,0,l),
(442,70,l),
(133,70,l),
(447,641,l),
(447,700,l),
(60,700,l,{
name = hr00;
})
);
},
{
closed = 1;
nodes = (
(110,845,l),
(244,729,l),
(377,845,l),
(347,882,l),
(244,815,l),
(141,882,l,{
name = hr00;
})
);
}
);
};
layerId = master01;
shapes = (
{
ref = Z;
},
{
pos = (28,0);
ref = caroncomb.case;
}
);
width = 487;
}
);
unicode = 381;
},
{
glyphname = Zdotaccent;
lastChange = "2023-02-17 10:52:01 +0000";
layers = (
{
background = {
shapes = (
{
closed = 1;
nodes = (
(60,630,l),
(355,630,l),
(40,59,l),
(40,0,l),
(442,0,l),
(442,70,l),
(133,70,l),
(447,641,l),
(447,700,l),
(60,700,l,{
name = hr00;
})
);
},
{
closed = 1;
nodes = (
(209,867,o),
(187,867,o),
(187,812,cs),
(187,756,o),
(209,756,o),
(244,756,cs),
(279,756,o),
(301,756,o),
(301,812,cs),
(301,867,o),
(279,867,o),
(244,867,c,{
name = hr00;
})
);
}
);
};
layerId = master01;
shapes = (
{
ref = Z;
},
{
pos = (117,0);
ref = dotaccentcomb.case;
}
);
width = 487;
}
);
unicode = 379;
},
{
glyphname = a;
kernLeft = a;
lastChange = "2023-02-17 11:06:15 +0000";
layers = (
{
anchors = (
{
name = bottom;
pos = (249,0);
},
{
name = ogonek;
pos = (467,15);
},
{
name = top;
pos = (249,520);
}
);
background = {
shapes = (
{
closed = 1;
nodes = (
(417,0,l),
(417,375,ls),
(417,470,o),
(399,530,o),
(256,530,cs),
(189,530,o),
(132,512,o),
(91,492,c),
(107,442,l),
(144,454,o),
(198,464,o),
(246,464,cs),
(299,464,o),
(335,450,o),
(335,375,cs),
(335,300,l),
(167,298,o),
(70,295,o),
(70,153,cs),
(70,68,o),
(86,-12,o),
(205,-12,cs,{
name = hr01;
}),
(251,-12,o),
(307,-10,o),
(359,49,c),
(372,0,l)
);
},
{
closed = 1;
nodes = (
(335,90,o),
(319,53,o),
(240,53,cs,{
name = hr03;
}),
(156,53,o),
(152,86,o),
(152,142,cs),
(152,165,ls),
(152,243,o),
(240,243,o),
(335,243,c),
(335,140,l)
);
}
);
};
layerId = master01;
shapes = (
{
closed = 1;
nodes = (
(417,0,l),
(417,375,ls),
(417,470,o),
(399,530,o),
(256,530,cs),
(189,530,o),
(132,512,o),
(91,492,c),
(107,442,l),
(144,454,o),
(198,464,o),
(246,464,cs),
(299,464,o),
(335,450,o),
(335,375,cs),
(335,300,l),
(167,298,o),
(70,295,o),
(70,153,cs),
(70,68,o),
(86,-12,o),
(205,-12,cs,{
name = hr01;
}),
(251,-12,o),
(307,-10,o),
(359,49,c),
(372,0,l)
);
},
{
closed = 1;
nodes = (
(335,90,o),
(319,53,o),
(240,53,cs,{
name = hr03;
}),
(156,53,o),
(152,86,o),
(152,142,cs),
(152,165,ls),
(152,243,o),
(240,243,o),
(335,243,c),
(335,140,l)
);
}
);
width = 497;
}
);
unicode = 97;
},
{
glyphname = aacute;
kernLeft = a;
lastChange = "2023-02-17 11:04:55 +0000";
layers = (
{
background = {
shapes = (
{
closed = 1;
nodes = (
(417,0,l),
(417,375,ls),
(417,470,o),
(399,530,o),
(256,530,cs),
(189,530,o),
(132,512,o),
(91,492,c),
(107,442,l),
(144,454,o),
(198,464,o),
(246,464,cs),
(299,464,o),
(335,450,o),
(335,375,cs),
(335,300,l),
(167,298,o),
(70,295,o),
(70,153,cs),
(70,68,o),
(86,-12,o),
(205,-12,cs,{
name = hr01;
}),
(251,-12,o),
(307,-10,o),
(359,49,c),
(372,0,l)
);
},
{
closed = 1;
nodes = (
(335,90,o),
(319,53,o),
(240,53,cs,{
name = hr03;
}),
(156,53,o),
(152,86,o),
(152,142,cs),
(152,165,ls),
(152,243,o),
(240,243,o),
(335,243,c),
(335,140,l)
);
},
{
closed = 1;
nodes = (
(176,586,l),
(364,689,l),
(318,756,l),
(153,620,l,{
name = hr00;
})
);
}
);
};
layerId = master01;
shapes = (
{
ref = a;
},
{
pos = (9,0);
ref = acutecomb;
}
);
width = 497;
}
);
unicode = 225;
},
{
glyphname = abreve;
kernLeft = a;
lastChange = "2023-02-17 11:06:25 +0000";
layers = (
{
background = {
shapes = (
{
closed = 1;
nodes = (
(417,0,l),
(417,375,ls),
(417,470,o),
(399,530,o),
(256,530,cs),
(189,530,o),
(132,512,o),
(91,492,c),
(107,442,l),
(144,454,o),
(198,464,o),
(246,464,cs),
(299,464,o),
(335,450,o),
(335,375,cs),
(335,300,l),
(167,298,o),
(70,295,o),
(70,153,cs),
(70,68,o),
(86,-12,o),
(205,-12,cs,{
name = hr01;
}),
(251,-12,o),
(307,-10,o),
(359,49,c),
(372,0,l)
);
},
{
closed = 1;
nodes = (
(335,90,o),
(319,53,o),
(240,53,cs,{
name = hr03;
}),
(156,53,o),
(152,86,o),
(152,142,cs),
(152,165,ls),
(152,243,o),
(240,243,o),
(335,243,c),
(335,140,l)
);
},
{
closed = 1;
nodes = (
(306,591,o),
(335,612,o),
(357,658,cs),
(378,702,l),
(333,724,l),
(317,693,o),
(302,661,o),
(249,661,cs),
(196,661,o),
(181,693,o),
(165,724,c),
(120,702,l),
(141,658,ls),
(163,612,o),
(192,591,o),
(249,591,c,{
name = hr00;
})
);
}
);
};
layerId = master01;
shapes = (
{
ref = a;
},
{
pos = (34,0);
ref = brevecomb;
}
);
width = 497;
}
);
unicode = 259;
},
{
glyphname = acircumflex;
kernLeft = a;
lastChange = "2023-02-17 11:06:25 +0000";
layers = (
{
background = {
shapes = (
{
closed = 1;
nodes = (
(417,0,l),
(417,375,ls),
(417,470,o),
(399,530,o),
(256,530,cs),
(189,530,o),
(132,512,o),
(91,492,c),
(107,442,l),
(144,454,o),
(198,464,o),
(246,464,cs),
(299,464,o),
(335,450,o),
(335,375,cs),
(335,300,l),
(167,298,o),
(70,295,o),
(70,153,cs),
(70,68,o),
(86,-12,o),
(205,-12,cs,{
name = hr01;
}),
(251,-12,o),
(307,-10,o),
(359,49,c),
(372,0,l)
);
},
{
closed = 1;
nodes = (
(335,90,o),
(319,53,o),
(240,53,cs,{
name = hr03;
}),
(156,53,o),
(152,86,o),
(152,142,cs),
(152,165,ls),
(152,243,o),
(240,243,o),
(335,243,c),
(335,140,l)
);
},
{
closed = 1;
nodes = (
(382,640,l),
(248,756,l),
(115,640,l),
(145,603,l),
(248,670,l),
(351,603,l,{
name = hr00;
})
);
}
);
};
layerId = master01;
shapes = (
{
ref = a;
},
{
pos = (33,0);
ref = circumflexcomb;
}
);
width = 497;
}
);
unicode = 226;
},
{
glyphname = adieresis;
kernLeft = a;
lastChange = "2023-02-17 11:06:25 +0000";
layers = (
{
background = {
shapes = (
{
closed = 1;
nodes = (
(417,0,l),
(417,375,ls),
(417,470,o),
(399,530,o),
(256,530,cs),
(189,530,o),
(132,512,o),
(91,492,c),
(107,442,l),
(144,454,o),
(198,464,o),
(246,464,cs),
(299,464,o),
(335,450,o),
(335,375,cs),
(335,300,l),
(167,298,o),
(70,295,o),
(70,153,cs),
(70,68,o),
(86,-12,o),
(205,-12,cs,{
name = hr01;
}),
(251,-12,o),
(307,-10,o),
(359,49,c),
(372,0,l)
);
},
{
closed = 1;
nodes = (
(335,90,o),
(319,53,o),
(240,53,cs,{
name = hr03;
}),
(156,53,o),
(152,86,o),
(152,142,cs),
(152,165,ls),
(152,243,o),
(240,243,o),
(335,243,c),
(335,140,l)
);
},
{
closed = 1;
nodes = (
(127,717,o),
(107,717,o),
(107,667,cs),
(107,616,o),
(127,616,o),
(159,616,cs),
(191,616,o),
(211,616,o),
(211,667,cs),
(211,717,o),
(191,717,o),
(159,717,c,{
name = hr00;
})
);
},
{
closed = 1;
nodes = (
(307,717,o),
(287,717,o),
(287,667,cs),
(287,616,o),
(307,616,o),
(339,616,cs),
(371,616,o),
(391,616,o),
(391,667,cs),
(391,717,o),
(371,717,o),
(339,717,c)
);
}
);
};
layerId = master01;
shapes = (
{
ref = a;
},
{
pos = (34,0);
ref = dieresiscomb;
}
);
width = 497;
}
);
unicode = 228;
},
{
glyphname = agrave;
kernLeft = a;
lastChange = "2023-02-17 11:06:25 +0000";
layers = (
{
background = {
shapes = (
{
closed = 1;
nodes = (
(417,0,l),
(417,375,ls),
(417,470,o),
(399,530,o),
(256,530,cs),
(189,530,o),
(132,512,o),
(91,492,c),
(107,442,l),
(144,454,o),
(198,464,o),
(246,464,cs),
(299,464,o),
(335,450,o),
(335,375,cs),
(335,300,l),
(167,298,o),
(70,295,o),
(70,153,cs),
(70,68,o),
(86,-12,o),
(205,-12,cs,{
name = hr01;
}),
(251,-12,o),
(307,-10,o),
(359,49,c),
(372,0,l)
);
},
{
closed = 1;
nodes = (
(335,90,o),
(319,53,o),
(240,53,cs,{
name = hr03;
}),
(156,53,o),
(152,86,o),
(152,142,cs),
(152,165,ls),
(152,243,o),
(240,243,o),
(335,243,c),
(335,140,l)
);
},
{
closed = 1;
nodes = (
(354,620,l),
(189,756,l),
(143,689,l),
(331,586,l,{
name = hr00;
})
);
}
);
};
layerId = master01;
shapes = (
{
ref = a;
},
{
pos = (49,0);
ref = gravecomb;
}
);
width = 497;
}
);
unicode = 224;
},
{
glyphname = amacron;
kernLeft = a;
lastChange = "2023-02-17 11:06:25 +0000";
layers = (
{
background = {
shapes = (
{
closed = 1;
nodes = (
(417,0,l),
(417,375,ls),
(417,470,o),
(399,530,o),
(256,530,cs),
(189,530,o),
(132,512,o),
(91,492,c),
(107,442,l),
(144,454,o),
(198,464,o),
(246,464,cs),
(299,464,o),
(335,450,o),
(335,375,cs),
(335,300,l),
(167,298,o),
(70,295,o),
(70,153,cs),
(70,68,o),
(86,-12,o),
(205,-12,cs,{
name = hr01;
}),
(251,-12,o),
(307,-10,o),
(359,49,c),
(372,0,l)
);
},
{
closed = 1;
nodes = (
(335,90,o),
(319,53,o),
(240,53,cs,{
name = hr03;
}),
(156,53,o),
(152,86,o),
(152,142,cs),
(152,165,ls),
(152,243,o),
(240,243,o),
(335,243,c),
(335,140,l)
);
},
{
closed = 1;
nodes = (
(129,635,l),
(369,635,l),
(369,698,l),
(129,698,l,{
name = hr00;
})
);
}
);
};
layerId = master01;
shapes = (
{
ref = a;
},
{
pos = (49,0);
ref = macroncomb;
}
);
width = 497;
}
);
unicode = 257;
},
{
glyphname = aogonek;
kernLeft = a;
lastChange = "2023-02-17 11:06:25 +0000";
layers = (
{
background = {
shapes = (
{
closed = 1;
nodes = (
(417,0,l),
(417,375,ls),
(417,470,o),
(399,530,o),
(256,530,cs),
(189,530,o),
(132,512,o),
(91,492,c),
(107,442,l),
(144,454,o),
(198,464,o),
(246,464,cs),
(299,464,o),
(335,450,o),
(335,375,cs),
(335,300,l),
(167,298,o),
(70,295,o),
(70,153,cs),
(70,68,o),
(86,-12,o),
(205,-12,cs,{
name = hr01;
}),
(251,-12,o),
(307,-10,o),
(359,49,c),
(372,0,l)
);
},
{
closed = 1;
nodes = (
(335,90,o),
(319,53,o),
(240,53,cs,{
name = hr03;
}),
(156,53,o),
(152,86,o),
(152,142,cs),
(152,165,ls),
(152,243,o),
(240,243,o),
(335,243,c),
(335,140,l)
);
},
{
closed = 1;
nodes = (
(386,15,l),
(331,-44,ls),
(305,-72,o),
(295,-90,o),
(295,-113,cs),
(295,-143,o),
(306,-177,o),
(367,-177,cs),
(415,-177,o),
(449,-157,o),
(467,-144,c),
(457,-109,l),
(433,-125,o),
(412,-133,o),
(386,-133,cs),
(363,-133,o),
(360,-120,o),
(360,-107,cs),
(360,-91,o),
(384,-53,o),
(397,-33,cs),
(417,0,l),
(417,15,l,{
name = hr00;
})
);
}
);
};
layerId = master01;
shapes = (
{
ref = a;
},
{
pos = (279,0);
ref = ogonekcomb;
}
);
width = 497;
}
);
unicode = 261;
},
{
glyphname = aring;
kernLeft = a;
lastChange = "2023-02-17 11:06:25 +0000";
layers = (
{
background = {
shapes = (
{
closed = 1;
nodes = (
(417,0,l),
(417,375,ls),
(417,470,o),
(399,530,o),
(256,530,cs),
(189,530,o),
(132,512,o),
(91,492,c),
(107,442,l),
(144,454,o),
(198,464,o),
(246,464,cs),
(299,464,o),
(335,450,o),
(335,375,cs),
(335,300,l),
(167,298,o),
(70,295,o),
(70,153,cs),
(70,68,o),
(86,-12,o),
(205,-12,cs,{
name = hr01;
}),
(251,-12,o),
(307,-10,o),
(359,49,c),
(372,0,l)
);
},
{
closed = 1;
nodes = (
(335,90,o),
(319,53,o),
(240,53,cs,{
name = hr03;
}),
(156,53,o),
(152,86,o),
(152,142,cs),
(152,165,ls),
(152,243,o),
(240,243,o),
(335,243,c),
(335,140,l)
);
},
{
closed = 1;
nodes = (
(267,712,o),
(282,709,o),
(282,677,cs),
(282,644,o),
(267,642,o),
(249,642,cs),
(231,642,o),
(216,644,o),
(216,677,cs),
(216,709,o),
(231,712,o),
(249,712,c,{
name = hr00;
})
);
},
{
closed = 1;
nodes = (
(197,761,o),
(162,753,o),
(162,677,cs),
(162,601,o),
(197,593,o),
(249,593,cs),
(301,593,o),
(336,601,o),
(336,677,cs),
(336,753,o),
(301,761,o),
(249,761,c)
);
}
);
};
layerId = master01;
shapes = (
{
ref = a;
},
{
pos = (34,0);
ref = ringcomb;
}
);
width = 497;
}
);
unicode = 229;
},
{
glyphname = aringacute;
kernLeft = a;
lastChange = "2023-02-17 11:06:25 +0000";
layers = (
{
background = {
shapes = (
{
closed = 1;
nodes = (
(417,0,l),
(417,375,ls),
(417,470,o),
(399,530,o),
(256,530,cs),
(189,530,o),
(132,512,o),
(91,492,c),
(107,442,l),
(144,454,o),
(198,464,o),
(246,464,cs),
(299,464,o),
(335,450,o),
(335,375,cs),
(335,300,l),
(167,298,o),
(70,295,o),
(70,153,cs),
(70,68,o),
(86,-12,o),
(205,-12,cs,{
name = hr01;
}),
(251,-12,o),
(307,-10,o),
(359,49,c),
(372,0,l)
);
},
{
closed = 1;
nodes = (
(335,90,o),
(319,53,o),
(240,53,cs,{
name = hr03;
}),
(156,53,o),
(152,86,o),
(152,142,cs),
(152,165,ls),
(152,243,o),
(240,243,o),
(335,243,c),
(335,140,l)
);
},
{
closed = 1;
nodes = (
(391,823,l),
(309,750,l),
(294,759,o),
(273,761,o),
(249,761,cs),
(197,761,o),
(162,753,o),
(162,677,cs),
(162,601,o),
(197,593,o),
(249,593,cs),
(301,593,o),
(336,601,o),
(336,677,cs),
(336,687,o),
(335,697,o),
(334,705,c),
(437,756,l,{
name = hr00;
})
);
},
{
closed = 1;
nodes = (
(231,642,o),
(216,644,o),
(216,677,cs),
(216,709,o),
(231,712,o),
(249,712,cs),
(267,712,o),
(282,709,o),
(282,677,cs),
(282,644,o),
(267,642,o),
(249,642,c)
);
}
);
};
layerId = master01;
shapes = (
{
closed = 1;
nodes = (
(301,593,o),
(336,601,o),
(336,677,cs),
(336,687,o),
(335,697,o),
(334,705,c),
(437,756,l,{
name = hr00;
}),
(391,823,l),
(309,750,l),
(294,759,o),
(273,761,o),
(249,761,cs),
(197,761,o),
(162,753,o),
(162,677,cs),
(162,601,o),
(197,593,o),
(249,593,cs)
);
},
{
ref = a;
},
{
closed = 1;
nodes = (
(231,642,o),
(216,644,o),
(216,677,cs),
(216,709,o),
(231,712,o),
(249,712,cs),
(267,712,o),
(282,709,o),
(282,677,cs),
(282,644,o),
(267,642,o),
(249,642,c)
);
}
);
width = 497;
}
);
unicode = 507;
},
{
glyphname = atilde;
kernLeft = a;
lastChange = "2023-02-17 11:06:25 +0000";
layers = (
{
background = {
shapes = (
{
closed = 1;
nodes = (
(417,0,l),
(417,375,ls),
(417,470,o),
(399,530,o),
(256,530,cs),
(189,530,o),
(132,512,o),
(91,492,c),
(107,442,l),
(144,454,o),
(198,464,o),
(246,464,cs),
(299,464,o),
(335,450,o),
(335,375,cs),
(335,300,l),
(167,298,o),
(70,295,o),
(70,153,cs),
(70,68,o),
(86,-12,o),
(205,-12,cs,{
name = hr01;
}),
(251,-12,o),
(307,-10,o),
(359,49,c),
(372,0,l)
);
},
{
closed = 1;
nodes = (
(335,90,o),
(319,53,o),
(240,53,cs,{
name = hr03;
}),
(156,53,o),
(152,86,o),
(152,142,cs),
(152,165,ls),
(152,243,o),
(240,243,o),
(335,243,c),
(335,140,l)
);
},
{
closed = 1;
nodes = (
(338,702,o),
(322,695,o),
(302,695,cs),
(264,695,o),
(236,722,o),
(201,722,cs,{
name = hr01;
}),
(177,722,o),
(158,717,o),
(117,675,c),
(139,637,l),
(159,650,o),
(175,657,o),
(195,657,cs),
(233,657,o),
(261,630,o),
(296,630,cs,{
name = hr02;
}),
(320,630,o),
(339,635,o),
(380,677,c),
(358,715,l)
);
}
);
};
layerId = master01;
shapes = (
{
ref = a;
},
{
pos = (18,0);
ref = tildecomb;
}
);
width = 497;
}
);
unicode = 227;
},
{
glyphname = ae;
kernLeft = a;
lastChange = "2023-02-17 11:06:25 +0000";
layers = (
{
anchors = (
{
name = bottom;
pos = (369,0);
},
{
name = top;
pos = (409,520);
}
);
background = {
shapes = (
{
closed = 1;
nodes = (
(450,531,o),
(410,518,o),
(384,494,c),
(361,517,o),
(322,531,o),
(256,531,cs),
(189,531,o),
(132,513,o),
(91,493,c),
(107,443,l),
(144,455,o),
(198,465,o),
(246,465,cs),
(299,465,o),
(335,451,o),
(335,376,cs),
(335,288,l),
(167,288,o),
(70,283,o),
(70,147,cs),
(70,61,o),
(87,-12,o),
(212,-12,cs),
(252,-12,o),
(317,-10,o),
(362,53,c),
(384,11,o),
(425,-12,o),
(505,-12,cs),
(572,-12,o),
(620,2,o),
(671,32,c),
(655,82,l),
(608,62,o),
(554,54,o),
(506,54,cs),
(455,54,o),
(417,67,o),
(417,137,cs),
(417,231,l),
(585,231,o),
(682,235,o),
(682,381,cs),
(682,467,o),
(665,531,o),
(513,531,c,{
name = hr00;
})
);
},
{
closed = 1;
nodes = (
(417,431,o),
(437,465,o),
(512,465,cs),
(596,465,o),
(600,432,o),
(600,376,cs),
(600,356,ls),
(600,289,o),
(517,288,o),
(417,288,c),
(417,385,l)
);
},
{
closed = 1;
nodes = (
(335,90,o),
(319,53,o),
(240,53,cs),
(156,53,o),
(152,86,o),
(152,142,cs),
(152,162,ls),
(152,231,o),
(240,231,o),
(335,231,c),
(335,140,l)
);
}
);
};
layerId = master01;
shapes = (
{
closed = 1;
nodes = (
(450,531,o),
(410,518,o),
(384,494,c),
(361,517,o),
(322,531,o),
(256,531,cs),
(189,531,o),
(132,513,o),
(91,493,c),
(107,443,l),
(144,455,o),
(198,465,o),
(246,465,cs),
(299,465,o),
(335,451,o),
(335,376,cs),
(335,288,l),
(167,288,o),
(70,283,o),
(70,147,cs),
(70,61,o),
(87,-12,o),
(212,-12,cs),
(252,-12,o),
(317,-10,o),
(362,53,c),
(384,11,o),
(425,-12,o),
(505,-12,cs),
(572,-12,o),
(620,2,o),
(671,32,c),
(655,82,l),
(608,62,o),
(554,54,o),
(506,54,cs),
(455,54,o),
(417,67,o),
(417,137,cs),
(417,231,l),
(585,231,o),
(682,235,o),
(682,381,cs),
(682,467,o),
(665,531,o),
(513,531,c,{
name = hr00;
})
);
},
{
closed = 1;
nodes = (
(417,431,o),
(437,465,o),
(512,465,cs),
(596,465,o),
(600,432,o),
(600,376,cs),
(600,356,ls),
(600,289,o),
(517,288,o),
(417,288,c),
(417,385,l)
);
},
{
closed = 1;
nodes = (
(335,90,o),
(319,53,o),
(240,53,cs),
(156,53,o),
(152,86,o),
(152,142,cs),
(152,162,ls),
(152,231,o),
(240,231,o),
(335,231,c),
(335,140,l)
);
}
);
width = 737;
}
);
unicode = 230;
},
{
glyphname = aeacute;
kernLeft = a;
lastChange = "2023-02-17 11:06:25 +0000";
layers = (
{
background = {
shapes = (
{
closed = 1;
nodes = (
(450,531,o),
(410,518,o),
(384,494,c),
(361,517,o),
(322,531,o),
(256,531,cs),
(189,531,o),
(132,513,o),
(91,493,c),
(107,443,l),
(144,455,o),
(198,465,o),
(246,465,cs),
(299,465,o),
(335,451,o),
(335,376,cs),
(335,288,l),
(167,288,o),
(70,283,o),
(70,147,cs),
(70,61,o),
(87,-12,o),
(212,-12,cs),
(252,-12,o),
(317,-10,o),
(362,53,c),
(384,11,o),
(425,-12,o),
(505,-12,cs),
(572,-12,o),
(620,2,o),
(671,32,c),
(655,82,l),
(608,62,o),
(554,54,o),
(506,54,cs),
(455,54,o),
(417,67,o),
(417,137,cs),
(417,231,l),
(585,231,o),
(682,235,o),
(682,381,cs),
(682,467,o),
(665,531,o),
(513,531,c,{
name = hr00;
})
);
},
{
closed = 1;
nodes = (
(417,431,o),
(437,465,o),
(512,465,cs),
(596,465,o),
(600,432,o),
(600,376,cs),
(600,356,ls),
(600,289,o),
(517,288,o),
(417,288,c),
(417,385,l)
);
},
{
closed = 1;
nodes = (
(335,90,o),
(319,53,o),
(240,53,cs),
(156,53,o),
(152,86,o),
(152,142,cs),
(152,162,ls),
(152,231,o),
(240,231,o),
(335,231,c),
(335,140,l)
);
},
{
closed = 1;
nodes = (
(326,586,l),
(514,689,l),
(468,756,l),
(303,620,l,{
name = hr00;
})
);
}
);
};
layerId = master01;
shapes = (
{
ref = ae;
},
{
pos = (169,0);
ref = acutecomb;
}
);
width = 737;
}
);
unicode = 509;
},
{
glyphname = b;
lastChange = "2023-02-17 10:52:01 +0000";
layers = (
{
anchors = (
{
name = bottom;
pos = (257,0);
},
{
name = center;
pos = (257,260);
},
{
name = top;
pos = (257,520);
}
);
background = {
shapes = (
{
closed = 1;
nodes = (
(172,424,o),
(188,461,o),
(267,461,cs),
(351,461,o),
(355,428,o),
(355,372,cs),
(355,147,ls),
(355,75,o),
(344,53,o),
(265,53,cs),
(233,53,o),
(202,58,o),
(172,64,c),
(172,374,l,{
name = hr00;
})
);
},
{
closed = 1;
nodes = (
(90,17,l),
(165,-5,o),
(230,-12,o),
(267,-12,cs),
(436,-12,o),
(439,84,o),
(439,284,cs),
(439,449,o),
(421,525,o),
(302,525,cs),
(262,525,o),
(208,524,o),
(167,486,c),
(167,720,l),
(90,720,l)
);
}
);
};
layerId = master01;
shapes = (
{
closed = 1;
nodes = (
(172,424,o),
(188,461,o),
(267,461,cs),
(351,461,o),
(355,428,o),
(355,372,cs),
(355,147,ls),
(355,75,o),
(344,53,o),
(265,53,cs),
(233,53,o),
(202,58,o),
(172,64,c),
(172,374,l,{
name = hr00;
})
);
},
{
closed = 1;
nodes = (
(90,17,l),
(165,-5,o),
(230,-12,o),
(267,-12,cs),
(436,-12,o),
(439,84,o),
(439,284,cs),
(439,449,o),
(421,525,o),
(302,525,cs),
(262,525,o),
(208,524,o),
(167,486,c),
(167,720,l),
(90,720,l)
);
}
);
width = 514;
}
);
unicode = 98;
},
{
glyphname = c;
kernLeft = c;
lastChange = "2023-02-17 10:56:40 +0000";
layers = (
{
anchors = (
{
name = bottom;
pos = (243,0);
},
{
name = top;
pos = (244,520);
}
);
background = {
shapes = (
{
closed = 1;
nodes = (
(77,531,o),
(75,427,o),
(75,260,cs),
(75,93,o),
(77,-12,o),
(246,-12,cs),
(299,-12,o),
(338,-2,o),
(373,14,c),
(361,68,l),
(323,59,o),
(286,52,o),
(254,52,cs),
(198,52,o),
(158,74,o),
(158,146,cs),
(158,374,ls),
(158,426,o),
(158,465,o),
(256,465,cs),
(304,465,o),
(331,460,o),
(355,454,c),
(371,507,l),
(330,525,o),
(280,531,o),
(254,531,c,{
name = hr00;
})
);
}
);
};
layerId = master01;
shapes = (
{
closed = 1;
nodes = (
(77,531,o),
(75,427,o),
(75,260,cs),
(75,93,o),
(77,-12,o),
(246,-12,cs),
(299,-12,o),
(338,-2,o),
(373,14,c),
(361,68,l),
(323,59,o),
(286,52,o),
(254,52,cs),
(198,52,o),
(158,74,o),
(158,146,cs),
(158,374,ls),
(158,426,o),
(158,465,o),
(256,465,cs),
(304,465,o),
(331,460,o),
(355,454,c),
(371,507,l),
(330,525,o),
(280,531,o),
(254,531,c,{
name = hr00;
})
);
}
);
width = 405;
}
);
unicode = 99;
},
{
glyphname = cacute;
kernLeft = c;
lastChange = "2023-02-17 10:56:40 +0000";
layers = (
{
background = {
shapes = (
{
closed = 1;
nodes = (
(77,531,o),
(75,427,o),
(75,260,cs),
(75,93,o),
(77,-12,o),
(246,-12,cs),
(299,-12,o),
(338,-2,o),
(373,14,c),
(361,68,l),
(323,59,o),
(286,52,o),
(254,52,cs),
(198,52,o),
(158,74,o),
(158,146,cs),
(158,374,ls),
(158,426,o),
(158,465,o),
(256,465,cs),
(304,465,o),
(331,460,o),
(355,454,c),
(371,507,l),
(330,525,o),
(280,531,o),
(254,531,c,{
name = hr00;
})
);
},
{
closed = 1;
nodes = (
(170,586,l),
(358,689,l),
(312,756,l),
(147,620,l,{
name = hr00;
})
);
}
);
};
layerId = master01;
shapes = (
{
ref = c;
},
{
pos = (4,0);
ref = acutecomb;
}
);
width = 405;
}
);
unicode = 263;
},
{
glyphname = ccaron;
kernLeft = c;
lastChange = "2023-02-17 10:56:40 +0000";
layers = (
{
background = {
shapes = (
{
closed = 1;
nodes = (
(77,531,o),
(75,427,o),
(75,260,cs),
(75,93,o),
(77,-12,o),
(246,-12,cs),
(299,-12,o),
(338,-2,o),
(373,14,c),
(361,68,l),
(323,59,o),
(286,52,o),
(254,52,cs),
(198,52,o),
(158,74,o),
(158,146,cs),
(158,374,ls),
(158,426,o),
(158,465,o),
(256,465,cs),
(304,465,o),
(331,460,o),
(355,454,c),
(371,507,l),
(330,525,o),
(280,531,o),
(254,531,c,{
name = hr00;
})
);
},
{
closed = 1;
nodes = (
(109,710,l),
(243,594,l),
(376,710,l),
(346,747,l),
(243,680,l),
(140,747,l,{
name = hr00;
})
);
}
);
};
layerId = master01;
shapes = (
{
ref = c;
},
{
pos = (28,0);
ref = caroncomb;
}
);
width = 405;
}
);
unicode = 269;
},
{
glyphname = ccedilla;
kernLeft = c;
lastChange = "2023-02-17 10:56:40 +0000";
layers = (
{
background = {
shapes = (
{
closed = 1;
nodes = (
(77,531,o),
(75,427,o),
(75,260,cs),
(75,93,o),
(77,-12,o),
(246,-12,cs),
(299,-12,o),
(338,-2,o),
(373,14,c),
(361,68,l),
(323,59,o),
(286,52,o),
(254,52,cs),
(198,52,o),
(158,74,o),
(158,146,cs),
(158,374,ls),
(158,426,o),
(158,465,o),
(256,465,cs),
(304,465,o),
(331,460,o),
(355,454,c),
(371,507,l),
(330,525,o),
(280,531,o),
(254,531,c,{
name = hr00;
})
);
},
{
closed = 1;
nodes = (
(205,0,l),
(195,-70,l),
(210,-94,l),
(230,-94,ls),
(259,-94,o),
(259,-112,o),
(259,-122,cs),
(259,-136,o),
(259,-150,o),
(223,-150,cs),
(197,-150,o),
(193,-147,o),
(172,-142,c),
(162,-177,l),
(173,-183,o),
(199,-194,o),
(233,-194,cs),
(313,-194,o),
(324,-157,o),
(324,-118,cs),
(324,-85,o),
(314,-56,o),
(251,-56,cs),
(239,-56,l),
(246,0,l,{
name = hr00;
})
);
}
);
};
layerId = master01;
shapes = (
{
ref = c;
},
{
pos = (152,0);
ref = cedillacomb;
}
);
width = 405;
}
);
unicode = 231;
},
{
glyphname = ccircumflex;
kernLeft = c;
lastChange = "2023-02-17 10:56:40 +0000";
layers = (
{
background = {
shapes = (
{
closed = 1;
nodes = (
(77,531,o),
(75,427,o),
(75,260,cs),
(75,93,o),
(77,-12,o),
(246,-12,cs),
(299,-12,o),
(338,-2,o),
(373,14,c),
(361,68,l),
(323,59,o),
(286,52,o),
(254,52,cs),
(198,52,o),
(158,74,o),
(158,146,cs),
(158,374,ls),
(158,426,o),
(158,465,o),
(256,465,cs),
(304,465,o),
(331,460,o),
(355,454,c),
(371,507,l),
(330,525,o),
(280,531,o),
(254,531,c,{
name = hr00;
})
);
},
{
closed = 1;
nodes = (
(376,640,l),
(242,756,l),
(109,640,l),
(139,603,l),
(242,670,l),
(345,603,l,{
name = hr00;
})
);
}
);
};
layerId = master01;
shapes = (
{
ref = c;
},
{
pos = (28,0);
ref = circumflexcomb;
}
);
width = 405;
}
);
unicode = 265;
},
{
glyphname = cdotaccent;
kernLeft = c;
lastChange = "2023-02-17 10:56:40 +0000";
layers = (
{
background = {
shapes = (
{
closed = 1;
nodes = (
(77,531,o),
(75,427,o),
(75,260,cs),
(75,93,o),
(77,-12,o),
(246,-12,cs),
(299,-12,o),
(338,-2,o),
(373,14,c),
(361,68,l),
(323,59,o),
(286,52,o),
(254,52,cs),
(198,52,o),
(158,74,o),
(158,146,cs),
(158,374,ls),
(158,426,o),
(158,465,o),
(256,465,cs),
(304,465,o),
(331,460,o),
(355,454,c),
(371,507,l),
(330,525,o),
(280,531,o),
(254,531,c,{
name = hr00;
})
);
},
{
closed = 1;
nodes = (
(208,732,o),
(186,732,o),
(186,677,cs),
(186,621,o),
(208,621,o),
(243,621,cs),
(278,621,o),
(300,621,o),
(300,677,cs),
(300,732,o),
(278,732,o),
(243,732,c,{
name = hr00;
})
);
}
);
};
layerId = master01;
shapes = (
{
ref = c;
},
{
pos = (117,0);
ref = dotaccentcomb;
}
);
width = 405;
}
);
unicode = 267;
},
{
glyphname = d;
kernLeft = c;
lastChange = "2023-02-17 10:56:40 +0000";
layers = (
{
anchors = (
{
name = bottom;
pos = (257,0);
},
{
name = center;
pos = (257,260);
},
{
name = top;
pos = (257,901);
},
{
name = topright;
pos = (604,700);
}
);
background = {
shapes = (
{
closed = 1;
nodes = (
(342,90,o),
(326,53,o),
(247,53,cs),
(163,53,o),
(159,86,o),
(159,142,cs),
(159,367,ls),
(159,439,o),
(170,461,o),
(249,461,cs),
(281,461,o),
(312,456,o),
(342,450,c),
(342,140,l)
);
},
{
closed = 1;
nodes = (
(75,64,o),
(93,-12,o),
(212,-12,cs),
(258,-12,o),
(324,-10,o),
(366,49,c),
(379,0,l,{
name = hr01;
}),
(424,0,l),
(424,720,l),
(347,720,l),
(347,512,l),
(320,520,o),
(284,525,o),
(247,525,cs),
(78,525,o),
(75,429,o),
(75,229,c)
);
}
);
};
layerId = master01;
shapes = (
{
closed = 1;
nodes = (
(342,90,o),
(326,53,o),
(247,53,cs),
(163,53,o),
(159,86,o),
(159,142,cs),
(159,367,ls),
(159,439,o),
(170,461,o),
(249,461,cs),
(281,461,o),
(312,456,o),
(342,450,c),
(342,140,l)
);
},
{
closed = 1;
nodes = (
(75,64,o),
(93,-12,o),
(212,-12,cs),
(258,-12,o),
(324,-10,o),
(366,49,c),
(379,0,l,{
name = hr01;
}),
(424,0,l),
(424,720,l),
(347,720,l),
(347,512,l),
(320,520,o),
(284,525,o),
(247,525,cs),
(78,525,o),
(75,429,o),
(75,229,c)
);
}
);
width = 514;
}
);
unicode = 100;
},
{
glyphname = eth;
kernLeft = c;
lastChange = "2023-02-17 10:56:40 +0000";
layers = (
{
anchors = (
{
name = bottom;
pos = (257,0);
},
{
name = top;
pos = (257,901);
}
);
background = {
shapes = (
{
closed = 1;
nodes = (
(250,535,l),
(340,581,l),
(351,551,o),
(356,515,o),
(357,475,c),
(332,485,o),
(299,491,o),
(256,491,cs),
(75,491,o),
(75,395,o),
(75,240,cs),
(75,85,o),
(75,-12,o),
(256,-12,cs),
(438,-12,o),
(438,85,o),
(438,240,cs),
(438,452,ls),
(438,520,o),
(427,574,o),
(408,615,c),
(499,662,l),
(469,720,l),
(373,671,l),
(335,715,o),
(285,741,o),
(234,761,c),
(207,702,l),
(250,686,o),
(283,664,o),
(306,637,c),
(220,593,l,{
name = hr00;
})
);
},
{
closed = 1;
nodes = (
(353,93,o),
(353,53,o),
(256,53,cs),
(158,53,o),
(158,93,o),
(158,145,cs),
(158,334,ls),
(158,386,o),
(158,426,o),
(256,426,cs),
(353,426,o),
(353,386,o),
(353,334,cs),
(353,145,l)
);
}
);
};
layerId = master01;
shapes = (
{
closed = 1;
nodes = (
(250,535,l),
(340,581,l),
(351,551,o),
(356,515,o),
(357,475,c),
(332,485,o),
(299,491,o),
(256,491,cs),
(75,491,o),
(75,395,o),
(75,240,cs),
(75,85,o),
(75,-12,o),
(256,-12,cs),
(438,-12,o),
(438,85,o),
(438,240,cs),
(438,452,ls),
(438,520,o),
(427,574,o),
(408,615,c),
(499,662,l),
(469,720,l),
(373,671,l),
(335,715,o),
(285,741,o),
(234,761,c),
(207,702,l),
(250,686,o),
(283,664,o),
(306,637,c),
(220,593,l,{
name = hr00;
})
);
},
{
closed = 1;
nodes = (
(353,93,o),
(353,53,o),
(256,53,cs),
(158,53,o),
(158,93,o),
(158,145,cs),
(158,334,ls),
(158,386,o),
(158,426,o),
(256,426,cs),
(353,426,o),
(353,386,o),
(353,334,cs),
(353,145,l)
);
}
);
width = 513;
}
);
unicode = 240;
},
{
glyphname = dcaron;
kernLeft = c;
lastChange = "2023-02-17 10:56:40 +0000";
layers = (
{
background = {
shapes = (
{
closed = 1;
nodes = (
(342,90,o),
(326,53,o),
(247,53,cs),
(163,53,o),
(159,86,o),
(159,142,cs),
(159,367,ls),
(159,439,o),
(170,461,o),
(249,461,cs),
(281,461,o),
(312,456,o),
(342,450,c),
(342,140,l)
);
},
{
closed = 1;
nodes = (
(75,64,o),
(93,-12,o),
(212,-12,cs),
(258,-12,o),
(324,-10,o),
(366,49,c),
(379,0,l,{
name = hr01;
}),
(424,0,l),
(424,720,l),
(347,720,l),
(347,512,l),
(320,520,o),
(284,525,o),
(247,525,cs),
(78,525,o),
(75,429,o),
(75,229,c)
);
},
{
closed = 1;
nodes = (
(481,730,o),
(459,730,o),
(459,675,cs),
(459,640,o),
(467,627,o),
(482,622,c),
(454,539,l),
(499,515,l),
(540,580,ls),
(553,601,o),
(563,621,o),
(569,642,cs),
(571,650,o),
(573,661,o),
(573,675,cs),
(573,730,o),
(551,730,o),
(516,730,c,{
name = hr00;
})
);
}
);
};
layerId = master01;
shapes = (
{
ref = d;
},
{
pos = (402,0);
ref = caroncomb.alt;
}
);
width = 514;
}
);
unicode = 271;
},
{
glyphname = dcroat;
kernLeft = c;
lastChange = "2023-02-17 10:56:40 +0000";
layers = (
{
background = {
shapes = (
{
closed = 1;
nodes = (
(342,90,o),
(326,53,o),
(247,53,cs),
(163,53,o),
(159,86,o),
(159,142,cs),
(159,367,ls),
(159,439,o),
(170,461,o),
(249,461,cs),
(281,461,o),
(312,456,o),
(342,450,c),
(342,140,l)
);
},
{
closed = 1;
nodes = (
(75,64,o),
(93,-12,o),
(212,-12,cs),
(258,-12,o),
(324,-10,o),
(366,49,c),
(379,0,l,{
name = hr01;
}),
(424,0,l),
(424,720,l),
(347,720,l),
(347,512,l),
(320,520,o),
(284,525,o),
(247,525,cs),
(78,525,o),
(75,429,o),
(75,229,c)
);
},
{
closed = 1;
nodes = (
(204,608,l),
(484,608,l),
(484,668,l),
(204,668,l,{
name = hr00;
})
);
}
);
};
layerId = master01;
shapes = (
{
closed = 1;
nodes = (
(484,608,l),
(484,668,l),
(204,668,l,{
name = hr00;
}),
(204,608,l)
);
},
{
alignment = -1;
ref = d;
}
);
width = 514;
}
);
unicode = 273;
},
{
glyphname = e;
kernLeft = c;
lastChange = "2023-02-17 10:56:40 +0000";
layers = (
{
anchors = (
{
name = bottom;
pos = (239,0);
},
{
name = ogonek;
pos = (389,15);
},
{
name = top;
pos = (259,520);
}
);
background = {
shapes = (
{
closed = 1;
nodes = (
(158,428,o),
(174,465,o),
(253,465,cs),
(337,465,o),
(341,432,o),
(341,376,cs),
(341,353,ls),
(341,275,o),
(253,275,o),
(158,275,c),
(158,378,l,{
name = hr00;
})
);
},
{
closed = 1;
nodes = (
(77,531,o),
(75,427,o),
(75,260,cs),
(75,93,o),
(77,-12,o),
(246,-12,cs),
(313,-12,o),
(361,2,o),
(412,32,c),
(396,82,l),
(349,62,o),
(295,54,o),
(247,54,cs),
(194,54,o),
(158,68,o),
(158,143,cs),
(158,218,l),
(326,220,o),
(423,223,o),
(423,375,cs),
(423,464,o),
(406,531,o),
(254,531,c)
);
}
);
};
layerId = master01;
shapes = (
{
closed = 1;
nodes = (
(158,428,o),
(174,465,o),
(253,465,cs),
(337,465,o),
(341,432,o),
(341,376,cs),
(341,353,ls),
(341,275,o),
(253,275,o),
(158,275,c),
(158,378,l,{
name = hr00;
})
);
},
{
closed = 1;
nodes = (
(77,531,o),
(75,427,o),
(75,260,cs),
(75,93,o),
(77,-12,o),
(246,-12,cs),
(313,-12,o),
(361,2,o),
(412,32,c),
(396,82,l),
(349,62,o),
(295,54,o),
(247,54,cs),
(194,54,o),
(158,68,o),
(158,143,cs),
(158,218,l),
(326,220,o),
(423,223,o),
(423,375,cs),
(423,464,o),
(406,531,o),
(254,531,c)
);
}
);
width = 478;
}
);
unicode = 101;
},
{
glyphname = eacute;
kernLeft = c;
lastChange = "2023-02-17 10:56:40 +0000";
layers = (
{
background = {
shapes = (
{
closed = 1;
nodes = (
(158,428,o),
(174,465,o),
(253,465,cs),
(337,465,o),
(341,432,o),
(341,376,cs),
(341,353,ls),
(341,275,o),
(253,275,o),
(158,275,c),
(158,378,l,{
name = hr00;
})
);
},
{
closed = 1;
nodes = (
(77,531,o),
(75,427,o),
(75,260,cs),
(75,93,o),
(77,-12,o),
(246,-12,cs),
(313,-12,o),
(361,2,o),
(412,32,c),
(396,82,l),
(349,62,o),
(295,54,o),
(247,54,cs),
(194,54,o),
(158,68,o),
(158,143,cs),
(158,218,l),
(326,220,o),
(423,223,o),
(423,375,cs),
(423,464,o),
(406,531,o),
(254,531,c)
);
},
{
closed = 1;
nodes = (
(186,586,l),
(374,689,l),
(328,756,l),
(163,620,l,{
name = hr00;
})
);
}
);
};
layerId = master01;
shapes = (
{
ref = e;
},
{
pos = (19,0);
ref = acutecomb;
}
);
width = 478;
}
);
unicode = 233;
},
{
glyphname = ebreve;
kernLeft = c;
lastChange = "2023-02-17 10:56:40 +0000";
layers = (
{
background = {
shapes = (
{
closed = 1;
nodes = (
(158,428,o),
(174,465,o),
(253,465,cs),
(337,465,o),
(341,432,o),
(341,376,cs),
(341,353,ls),
(341,275,o),
(253,275,o),
(158,275,c),
(158,378,l,{
name = hr00;
})
);
},
{
closed = 1;
nodes = (
(77,531,o),
(75,427,o),
(75,260,cs),
(75,93,o),
(77,-12,o),
(246,-12,cs),
(313,-12,o),
(361,2,o),
(412,32,c),
(396,82,l),
(349,62,o),
(295,54,o),
(247,54,cs),
(194,54,o),
(158,68,o),
(158,143,cs),
(158,218,l),
(326,220,o),
(423,223,o),
(423,375,cs),
(423,464,o),
(406,531,o),
(254,531,c)
);
},
{
closed = 1;
nodes = (
(316,591,o),
(345,612,o),
(367,658,cs),
(388,702,l),
(343,724,l),
(327,693,o),
(312,661,o),
(259,661,cs),
(206,661,o),
(191,693,o),
(175,724,c),
(130,702,l),
(151,658,ls),
(173,612,o),
(202,591,o),
(259,591,c,{
name = hr00;
})
);
}
);
};
layerId = master01;
shapes = (
{
ref = e;
},
{
pos = (44,0);
ref = brevecomb;
}
);
width = 478;
}
);
unicode = 277;
},
{
glyphname = ecaron;
kernLeft = c;
lastChange = "2023-02-17 10:56:40 +0000";
layers = (
{
background = {
shapes = (
{
closed = 1;
nodes = (
(158,428,o),
(174,465,o),
(253,465,cs),
(337,465,o),
(341,432,o),
(341,376,cs),
(341,353,ls),
(341,275,o),
(253,275,o),
(158,275,c),
(158,378,l,{
name = hr00;
})
);
},
{
closed = 1;
nodes = (
(77,531,o),
(75,427,o),
(75,260,cs),
(75,93,o),
(77,-12,o),
(246,-12,cs),
(313,-12,o),
(361,2,o),
(412,32,c),
(396,82,l),
(349,62,o),
(295,54,o),
(247,54,cs),
(194,54,o),
(158,68,o),
(158,143,cs),
(158,218,l),
(326,220,o),
(423,223,o),
(423,375,cs),
(423,464,o),
(406,531,o),
(254,531,c)
);
},
{
closed = 1;
nodes = (
(125,710,l),
(259,594,l),
(392,710,l),
(362,747,l),
(259,680,l),
(156,747,l,{
name = hr00;
})
);
}
);
};
layerId = master01;
shapes = (
{
ref = e;
},
{
pos = (43,0);
ref = caroncomb;
}
);
width = 478;
}
);
unicode = 283;
},
{
glyphname = ecircumflex;
kernLeft = c;
lastChange = "2023-02-17 10:56:40 +0000";
layers = (
{
background = {
shapes = (
{
closed = 1;
nodes = (
(158,428,o),
(174,465,o),
(253,465,cs),
(337,465,o),
(341,432,o),
(341,376,cs),
(341,353,ls),
(341,275,o),
(253,275,o),
(158,275,c),
(158,378,l,{
name = hr00;
})
);
},
{
closed = 1;
nodes = (
(77,531,o),
(75,427,o),
(75,260,cs),
(75,93,o),
(77,-12,o),
(246,-12,cs),
(313,-12,o),
(361,2,o),
(412,32,c),
(396,82,l),
(349,62,o),
(295,54,o),
(247,54,cs),
(194,54,o),
(158,68,o),
(158,143,cs),
(158,218,l),
(326,220,o),
(423,223,o),
(423,375,cs),
(423,464,o),
(406,531,o),
(254,531,c)
);
},
{
closed = 1;
nodes = (
(392,640,l),
(258,756,l),
(125,640,l),
(155,603,l),
(258,670,l),
(361,603,l,{
name = hr00;
})
);
}
);
};
layerId = master01;
shapes = (
{
ref = e;
},
{
pos = (43,0);
ref = circumflexcomb;
}
);
width = 478;
}
);
unicode = 234;
},
{
glyphname = edieresis;
kernLeft = c;
lastChange = "2023-02-17 10:56:40 +0000";
layers = (
{
background = {
shapes = (
{
closed = 1;
nodes = (
(158,428,o),
(174,465,o),
(253,465,cs),
(337,465,o),
(341,432,o),
(341,376,cs),
(341,353,ls),
(341,275,o),
(253,275,o),
(158,275,c),
(158,378,l,{
name = hr00;
})
);
},
{
closed = 1;
nodes = (
(77,531,o),
(75,427,o),
(75,260,cs),
(75,93,o),
(77,-12,o),
(246,-12,cs),
(313,-12,o),
(361,2,o),
(412,32,c),
(396,82,l),
(349,62,o),
(295,54,o),
(247,54,cs),
(194,54,o),
(158,68,o),
(158,143,cs),
(158,218,l),
(326,220,o),
(423,223,o),
(423,375,cs),
(423,464,o),
(406,531,o),
(254,531,c)
);
},
{
closed = 1;
nodes = (
(137,717,o),
(117,717,o),
(117,667,cs),
(117,616,o),
(137,616,o),
(169,616,cs),
(201,616,o),
(221,616,o),
(221,667,cs),
(221,717,o),
(201,717,o),
(169,717,c,{
name = hr00;
})
);
},
{
closed = 1;
nodes = (
(317,717,o),
(297,717,o),
(297,667,cs),
(297,616,o),
(317,616,o),
(349,616,cs),
(381,616,o),
(401,616,o),
(401,667,cs),
(401,717,o),
(381,717,o),
(349,717,c)
);
}
);
};
layerId = master01;
shapes = (
{
ref = e;
},
{
pos = (44,0);
ref = dieresiscomb;
}
);
width = 478;
}
);
unicode = 235;
},
{
glyphname = edotaccent;
kernLeft = c;
lastChange = "2023-02-17 10:56:40 +0000";
layers = (
{
background = {
shapes = (
{
closed = 1;
nodes = (
(158,428,o),
(174,465,o),
(253,465,cs),
(337,465,o),
(341,432,o),
(341,376,cs),
(341,353,ls),
(341,275,o),
(253,275,o),
(158,275,c),
(158,378,l,{
name = hr00;
})
);
},
{
closed = 1;
nodes = (
(77,531,o),
(75,427,o),
(75,260,cs),
(75,93,o),
(77,-12,o),
(246,-12,cs),
(313,-12,o),
(361,2,o),
(412,32,c),
(396,82,l),
(349,62,o),
(295,54,o),
(247,54,cs),
(194,54,o),
(158,68,o),
(158,143,cs),
(158,218,l),
(326,220,o),
(423,223,o),
(423,375,cs),
(423,464,o),
(406,531,o),
(254,531,c)
);
},
{
closed = 1;
nodes = (
(224,732,o),
(202,732,o),
(202,677,cs),
(202,621,o),
(224,621,o),
(259,621,cs),
(294,621,o),
(316,621,o),
(316,677,cs),
(316,732,o),
(294,732,o),
(259,732,c,{
name = hr00;
})
);
}
);
};
layerId = master01;
shapes = (
{
ref = e;
},
{
pos = (132,0);
ref = dotaccentcomb;
}
);
width = 478;
}
);
unicode = 279;
},
{
glyphname = egrave;
kernLeft = c;
lastChange = "2023-02-17 10:56:40 +0000";
layers = (
{
background = {
shapes = (
{
closed = 1;
nodes = (
(158,428,o),
(174,465,o),
(253,465,cs),
(337,465,o),
(341,432,o),
(341,376,cs),
(341,353,ls),
(341,275,o),
(253,275,o),
(158,275,c),
(158,378,l,{
name = hr00;
})
);
},
{
closed = 1;
nodes = (
(77,531,o),
(75,427,o),
(75,260,cs),
(75,93,o),
(77,-12,o),
(246,-12,cs),
(313,-12,o),
(361,2,o),
(412,32,c),
(396,82,l),
(349,62,o),
(295,54,o),
(247,54,cs),
(194,54,o),
(158,68,o),
(158,143,cs),
(158,218,l),
(326,220,o),
(423,223,o),
(423,375,cs),
(423,464,o),
(406,531,o),
(254,531,c)
);
},
{
closed = 1;
nodes = (
(364,620,l),
(199,756,l),
(153,689,l),
(341,586,l,{
name = hr00;
})
);
}
);
};
layerId = master01;
shapes = (
{
ref = e;
},
{
pos = (59,0);
ref = gravecomb;
}
);
width = 478;
}
);
unicode = 232;
},
{
glyphname = emacron;
kernLeft = c;
lastChange = "2023-02-17 10:56:40 +0000";
layers = (
{
background = {
shapes = (
{
closed = 1;
nodes = (
(158,428,o),
(174,465,o),
(253,465,cs),
(337,465,o),
(341,432,o),
(341,376,cs),
(341,353,ls),
(341,275,o),
(253,275,o),
(158,275,c),
(158,378,l,{
name = hr00;
})
);
},
{
closed = 1;
nodes = (
(77,531,o),
(75,427,o),
(75,260,cs),
(75,93,o),
(77,-12,o),
(246,-12,cs),
(313,-12,o),
(361,2,o),
(412,32,c),
(396,82,l),
(349,62,o),
(295,54,o),
(247,54,cs),
(194,54,o),
(158,68,o),
(158,143,cs),
(158,218,l),
(326,220,o),
(423,223,o),
(423,375,cs),
(423,464,o),
(406,531,o),
(254,531,c)
);
},
{
closed = 1;
nodes = (
(139,635,l),
(379,635,l),
(379,698,l),
(139,698,l,{
name = hr00;
})
);
}
);
};
layerId = master01;
shapes = (
{
ref = e;
},
{
pos = (59,0);
ref = macroncomb;
}
);
width = 478;
}
);
unicode = 275;
},
{
glyphname = eogonek;
kernLeft = c;
lastChange = "2023-02-17 10:56:40 +0000";
layers = (
{
background = {
shapes = (
{
closed = 1;
nodes = (
(158,428,o),
(174,465,o),
(253,465,cs),
(337,465,o),
(341,432,o),
(341,376,cs),
(341,353,ls),
(341,275,o),
(253,275,o),
(158,275,c),
(158,378,l,{
name = hr00;
})
);
},
{
closed = 1;
nodes = (
(77,531,o),
(75,427,o),
(75,260,cs),
(75,93,o),
(77,-12,o),
(246,-12,cs),
(313,-12,o),
(361,2,o),
(412,32,c),
(396,82,l),
(349,62,o),
(295,54,o),
(247,54,cs),
(194,54,o),
(158,68,o),
(158,143,cs),
(158,218,l),
(326,220,o),
(423,223,o),
(423,375,cs),
(423,464,o),
(406,531,o),
(254,531,c)
);
},
{
closed = 1;
nodes = (
(308,15,l),
(253,-44,ls),
(227,-72,o),
(217,-90,o),
(217,-113,cs),
(217,-143,o),
(228,-177,o),
(289,-177,cs),
(337,-177,o),
(371,-157,o),
(389,-144,c),
(379,-109,l),
(355,-125,o),
(334,-133,o),
(308,-133,cs),
(285,-133,o),
(282,-120,o),
(282,-107,cs),
(282,-91,o),
(306,-53,o),
(319,-33,cs),
(339,0,l),
(339,15,l,{
name = hr00;
})
);
}
);
};
layerId = master01;
shapes = (
{
ref = e;
},
{
pos = (201,0);
ref = ogonekcomb;
}
);
width = 478;
}
);
unicode = 281;
},
{
glyphname = f;
lastChange = "2023-02-17 10:52:01 +0000";
layers = (
{
anchors = (
{
name = bottom;
pos = (161,0);
},
{
name = top;
pos = (161,901);
}
);
background = {
shapes = (
{
closed = 1;
nodes = (
(301,726,o),
(277,729,o),
(256,729,cs),
(139,729,o),
(122,647,o),
(119,519,c),
(50,505,l),
(50,461,l),
(119,461,l),
(119,0,l),
(201,0,l),
(201,461,l),
(295,461,l),
(295,520,l),
(201,520,l),
(201,554,ls),
(201,645,o),
(226,672,o),
(283,672,cs),
(295,672,o),
(308,671,o),
(323,669,c),
(329,721,l,{
name = hr00;
})
);
}
);
};
layerId = master01;
shapes = (
{
closed = 1;
nodes = (
(301,726,o),
(277,729,o),
(256,729,cs),
(139,729,o),
(122,647,o),
(119,519,c),
(50,505,l),
(50,461,l),
(119,461,l),
(119,0,l),
(201,0,l),
(201,461,l),
(295,461,l),
(295,520,l),
(201,520,l),
(201,554,ls),
(201,645,o),
(226,672,o),
(283,672,cs),
(295,672,o),
(308,671,o),
(323,669,c),
(329,721,l,{
name = hr00;
})
);
}
);
width = 321;
}
);
unicode = 102;
},
{
glyphname = g;
kernLeft = c;
lastChange = "2023-02-17 10:56:40 +0000";
layers = (
{
anchors = (
{
name = bottom;
pos = (260,-194);
},
{
name = top;
pos = (260,520);
}
);
background = {
shapes = (
{
closed = 1;
nodes = (
(342,111,o),
(326,74,o),
(247,74,cs),
(163,74,o),
(159,107,o),
(159,163,cs),
(159,372,ls),
(159,444,o),
(170,466,o),
(249,466,cs),
(281,466,o),
(312,461,o),
(342,455,c),
(342,161,l,{
name = hr00;
})
);
},
{
closed = 1;
nodes = (
(347,-114,o),
(311,-128,o),
(258,-128,cs),
(210,-128,o),
(156,-118,o),
(119,-106,c),
(103,-156,l),
(144,-176,o),
(201,-194,o),
(268,-194,cs),
(411,-194,o),
(429,-131,o),
(429,-36,cs),
(429,502,l),
(354,524,o),
(284,531,o),
(247,531,cs),
(78,531,o),
(75,429,o),
(75,259,cs),
(75,94,o),
(93,10,o),
(212,10,cs),
(252,10,o),
(306,11,o),
(347,49,c),
(347,-39,l)
);
}
);
};
layerId = master01;
shapes = (
{
closed = 1;
nodes = (
(342,111,o),
(326,74,o),
(247,74,cs),
(163,74,o),
(159,107,o),
(159,163,cs),
(159,372,ls),
(159,444,o),
(170,466,o),
(249,466,cs),
(281,466,o),
(312,461,o),
(342,455,c),
(342,161,l,{
name = hr00;
})
);
},
{
closed = 1;
nodes = (
(347,-114,o),
(311,-128,o),
(258,-128,cs),
(210,-128,o),
(156,-118,o),
(119,-106,c),
(103,-156,l),
(144,-176,o),
(201,-194,o),
(268,-194,cs),
(411,-194,o),
(429,-131,o),
(429,-36,cs),
(429,502,l),
(354,524,o),
(284,531,o),
(247,531,cs),
(78,531,o),
(75,429,o),
(75,259,cs),
(75,94,o),
(93,10,o),
(212,10,cs),
(252,10,o),
(306,11,o),
(347,49,c),
(347,-39,l)
);
}
);
width = 519;
}
);
unicode = 103;
},
{
glyphname = gbreve;
kernLeft = c;
lastChange = "2023-02-17 10:56:40 +0000";
layers = (
{
background = {
shapes = (
{
closed = 1;
nodes = (
(342,111,o),
(326,74,o),
(247,74,cs),
(163,74,o),
(159,107,o),
(159,163,cs),
(159,372,ls),
(159,444,o),
(170,466,o),
(249,466,cs),
(281,466,o),
(312,461,o),
(342,455,c),
(342,161,l,{
name = hr00;
})
);
},
{
closed = 1;
nodes = (
(347,-114,o),
(311,-128,o),
(258,-128,cs),
(210,-128,o),
(156,-118,o),
(119,-106,c),
(103,-156,l),
(144,-176,o),
(201,-194,o),
(268,-194,cs),
(411,-194,o),
(429,-131,o),
(429,-36,cs),
(429,502,l),
(354,524,o),
(284,531,o),
(247,531,cs),
(78,531,o),
(75,429,o),
(75,259,cs),
(75,94,o),
(93,10,o),
(212,10,cs),
(252,10,o),
(306,11,o),
(347,49,c),
(347,-39,l)
);
},
{
closed = 1;
nodes = (
(317,591,o),
(346,612,o),
(368,658,cs),
(389,702,l),
(344,724,l),
(328,693,o),
(313,661,o),
(260,661,cs),
(207,661,o),
(192,693,o),
(176,724,c),
(131,702,l),
(152,658,ls),
(174,612,o),
(203,591,o),
(260,591,c,{
name = hr00;
})
);
}
);
};
layerId = master01;
shapes = (
{
ref = g;
},
{
pos = (45,0);
ref = brevecomb;
}
);
width = 519;
}
);
unicode = 287;
},
{
glyphname = gcircumflex;
kernLeft = c;
lastChange = "2023-02-17 10:56:40 +0000";
layers = (
{
background = {
shapes = (
{
closed = 1;
nodes = (
(342,111,o),
(326,74,o),
(247,74,cs),
(163,74,o),
(159,107,o),
(159,163,cs),
(159,372,ls),
(159,444,o),
(170,466,o),
(249,466,cs),
(281,466,o),
(312,461,o),
(342,455,c),
(342,161,l,{
name = hr00;
})
);
},
{
closed = 1;
nodes = (
(347,-114,o),
(311,-128,o),
(258,-128,cs),
(210,-128,o),
(156,-118,o),
(119,-106,c),
(103,-156,l),
(144,-176,o),
(201,-194,o),
(268,-194,cs),
(411,-194,o),
(429,-131,o),
(429,-36,cs),
(429,502,l),
(354,524,o),
(284,531,o),
(247,531,cs),
(78,531,o),
(75,429,o),
(75,259,cs),
(75,94,o),
(93,10,o),
(212,10,cs),
(252,10,o),
(306,11,o),
(347,49,c),
(347,-39,l)
);
},
{
closed = 1;
nodes = (
(393,640,l),
(259,756,l),
(126,640,l),
(156,603,l),
(259,670,l),
(362,603,l,{
name = hr00;
})
);
}
);
};
layerId = master01;
shapes = (
{
ref = g;
},
{
pos = (44,0);
ref = circumflexcomb;
}
);
width = 519;
}
);
unicode = 285;
},
{
glyphname = gcommaaccent;
kernLeft = c;
lastChange = "2023-02-17 10:56:40 +0000";
layers = (
{
background = {
shapes = (
{
closed = 1;
nodes = (
(342,111,o),
(326,74,o),
(247,74,cs),
(163,74,o),
(159,107,o),
(159,163,cs),
(159,372,ls),
(159,444,o),
(170,466,o),
(249,466,cs),
(281,466,o),
(312,461,o),
(342,455,c),
(342,161,l,{
name = hr00;
})
);
},
{
closed = 1;
nodes = (
(347,-114,o),
(311,-128,o),
(258,-128,cs),
(210,-128,o),
(156,-118,o),
(119,-106,c),
(103,-156,l),
(144,-176,o),
(201,-194,o),
(268,-194,cs),
(411,-194,o),
(429,-131,o),
(429,-36,cs),
(429,502,l),
(354,524,o),
(284,531,o),
(247,531,cs),
(78,531,o),
(75,429,o),
(75,259,cs),
(75,94,o),
(93,10,o),
(212,10,cs),
(252,10,o),
(306,11,o),
(347,49,c),
(347,-39,l)
);
},
{
closed = 1;
nodes = (
(293,622,o),
(315,622,o),
(315,677,cs),
(315,712,o),
(307,725,o),
(292,730,c),
(320,813,l),
(275,837,l),
(234,772,ls),
(221,751,o),
(211,731,o),
(205,710,cs),
(203,702,o),
(201,691,o),
(201,677,cs),
(201,622,o),
(223,622,o),
(258,622,c,{
name = hr00;
})
);
}
);
};
layerId = master01;
shapes = (
{
ref = g;
},
{
pos = (140,0);
ref = commaturnedabovecomb;
}
);
width = 519;
}
);
unicode = 291;
},
{
glyphname = gdotaccent;
kernLeft = c;
lastChange = "2023-02-17 10:56:40 +0000";
layers = (
{
background = {
shapes = (
{
closed = 1;
nodes = (
(342,111,o),
(326,74,o),
(247,74,cs),
(163,74,o),
(159,107,o),
(159,163,cs),
(159,372,ls),
(159,444,o),
(170,466,o),
(249,466,cs),
(281,466,o),
(312,461,o),
(342,455,c),
(342,161,l,{
name = hr00;
})
);
},
{
closed = 1;
nodes = (
(347,-114,o),
(311,-128,o),
(258,-128,cs),
(210,-128,o),
(156,-118,o),
(119,-106,c),
(103,-156,l),
(144,-176,o),
(201,-194,o),
(268,-194,cs),
(411,-194,o),
(429,-131,o),
(429,-36,cs),
(429,502,l),
(354,524,o),
(284,531,o),
(247,531,cs),
(78,531,o),
(75,429,o),
(75,259,cs),
(75,94,o),
(93,10,o),
(212,10,cs),
(252,10,o),
(306,11,o),
(347,49,c),
(347,-39,l)
);
},
{
closed = 1;
nodes = (
(225,732,o),
(203,732,o),
(203,677,cs),
(203,621,o),
(225,621,o),
(260,621,cs),
(295,621,o),
(317,621,o),
(317,677,cs),
(317,732,o),
(295,732,o),
(260,732,c,{
name = hr00;
})
);
}
);
};
layerId = master01;
shapes = (
{
ref = g;
},
{
pos = (133,0);
ref = dotaccentcomb;
}
);
width = 519;
}
);
unicode = 289;
},
{
glyphname = h;
lastChange = "2023-02-17 10:52:01 +0000";
layers = (
{
anchors = (
{
name = bottom;
pos = (259,0);
},
{
name = center;
pos = (259,451);
},
{
name = top;
pos = (130,730);
}
);
background = {
shapes = (
{
closed = 1;
nodes = (
(437,360,ls),
(437,445,o),
(421,525,o),
(302,525,cs),
(256,525,o),
(209,520,o),
(167,475,c),
(167,720,l),
(90,720,l),
(90,0,l),
(172,0,l),
(172,373,ls),
(172,423,o),
(188,460,o),
(267,460,cs),
(351,460,o),
(355,427,o),
(355,371,cs),
(355,0,l),
(437,0,l,{
name = hr00;
})
);
}
);
};
layerId = master01;
shapes = (
{
closed = 1;
nodes = (
(437,360,ls),
(437,445,o),
(421,525,o),
(302,525,cs),
(256,525,o),
(209,520,o),
(167,475,c),
(167,720,l),
(90,720,l),
(90,0,l),
(172,0,l),
(172,373,ls),
(172,423,o),
(188,460,o),
(267,460,cs),
(351,460,o),
(355,427,o),
(355,371,cs),
(355,0,l),
(437,0,l,{
name = hr00;
})
);
}
);
width = 517;
}
);
unicode = 104;
},
{
glyphname = hbar;
lastChange = "2023-02-17 10:52:01 +0000";
layers = (
{
background = {
shapes = (
{
closed = 1;
nodes = (
(437,360,ls),
(437,445,o),
(421,525,o),
(302,525,cs),
(256,525,o),
(209,520,o),
(167,475,c),
(167,720,l),
(90,720,l),
(90,0,l),
(172,0,l),
(172,373,ls),
(172,423,o),
(188,460,o),
(267,460,cs),
(351,460,o),
(355,427,o),
(355,371,cs),
(355,0,l),
(437,0,l,{
name = hr00;
})
);
},
{
closed = 1;
nodes = (
(30,608,l),
(310,608,l),
(310,668,l),
(30,668,l,{
name = hr00;
})
);
}
);
};
layerId = master01;
shapes = (
{
closed = 1;
nodes = (
(310,608,l),
(310,668,l),
(30,668,l,{
name = hr00;
}),
(30,608,l)
);
},
{
alignment = -1;
ref = h;
}
);
width = 517;
}
);
unicode = 295;
},
{
glyphname = hcircumflex;
lastChange = "2023-02-17 10:52:01 +0000";
layers = (
{
background = {
shapes = (
{
closed = 1;
nodes = (
(437,360,ls),
(437,445,o),
(421,525,o),
(302,525,cs),
(256,525,o),
(209,520,o),
(167,475,c),
(167,720,l),
(90,720,l),
(90,0,l),
(172,0,l),
(172,373,ls),
(172,423,o),
(188,460,o),
(267,460,cs),
(351,460,o),
(355,427,o),
(355,371,cs),
(355,0,l),
(437,0,l,{
name = hr00;
})
);
},
{
closed = 1;
nodes = (
(263,805,l),
(129,921,l),
(-4,805,l),
(26,768,l),
(129,835,l),
(232,768,l,{
name = hr00;
})
);
}
);
};
layerId = master01;
shapes = (
{
ref = h;
},
{
pos = (-86,30);
ref = circumflexcomb.case;
}
);
width = 517;
}
);
unicode = 293;
},
{
glyphname = i;
kernLeft = i;
lastChange = "2023-02-17 11:12:50 +0000";
layers = (
{
anchors = (
{
name = bottom;
pos = (131,0);
}
);
background = {
shapes = (
{
closed = 1;
nodes = (
(90,520,l),
(90,0,l),
(172,0,l),
(172,520,l,{
name = hr00;
})
);
},
{
closed = 1;
nodes = (
(99,717,o),
(79,717,o),
(79,667,cs),
(79,616,o),
(99,616,o),
(131,616,cs),
(163,616,o),
(183,616,o),
(183,667,cs),
(183,717,o),
(163,717,o),
(131,717,c)
);
}
);
};
layerId = master01;
shapes = (
{
ref = idotless;
},
{
pos = (4,0);
ref = dotaccentcomb;
}
);
width = 262;
}
);
unicode = 105;
},
{
glyphname = idotless;
kernLeft = i;
lastChange = "2023-02-17 11:12:50 +0000";
layers = (
{
anchors = (
{
name = bottom;
pos = (131,0);
},
{
name = ogonek;
pos = (222,15);
},
{
name = top;
pos = (131,520);
}
);
background = {
shapes = (
{
closed = 1;
nodes = (
(90,520,l),
(90,0,l),
(172,0,l),
(172,520,l,{
name = hr00;
})
);
}
);
};
layerId = master01;
shapes = (
{
closed = 1;
nodes = (
(90,520,l),
(90,0,l),
(172,0,l),
(172,520,l,{
name = hr00;
})
);
}
);
width = 262;
}
);
unicode = 305;
},
{
glyphname = iacute;
kernLeft = i;
lastChange = "2023-02-17 11:12:50 +0000";
layers = (
{
background = {
shapes = (
{
closed = 1;
nodes = (
(90,520,l),
(90,0,l),
(172,0,l),
(172,520,l,{
name = hr00;
})
);
},
{
closed = 1;
nodes = (
(58,586,l),
(246,689,l),
(200,756,l),
(35,620,l,{
name = hr00;
})
);
}
);
};
layerId = master01;
shapes = (
{
ref = idotless;
},
{
pos = (-109,0);
ref = acutecomb;
}
);
width = 262;
}
);
unicode = 237;
},
{
glyphname = ibreve;
kernLeft = i;
lastChange = "2023-02-17 11:12:50 +0000";
layers = (
{
background = {
shapes = (
{
closed = 1;
nodes = (
(90,520,l),
(90,0,l),
(172,0,l),
(172,520,l,{
name = hr00;
})
);
},
{
closed = 1;
nodes = (
(188,591,o),
(217,612,o),
(239,658,cs),
(260,702,l),
(215,724,l),
(199,693,o),
(184,661,o),
(131,661,cs),
(78,661,o),
(63,693,o),
(47,724,c),
(2,702,l),
(23,658,ls),
(45,612,o),
(74,591,o),
(131,591,c,{
name = hr00;
})
);
}
);
};
layerId = master01;
shapes = (
{
ref = idotless;
},
{
pos = (-84,0);
ref = brevecomb;
}
);
width = 262;
}
);
unicode = 301;
},
{
glyphname = icircumflex;
kernLeft = i;
lastChange = "2023-02-17 11:12:50 +0000";
layers = (
{
background = {
shapes = (
{
closed = 1;
nodes = (
(90,520,l),
(90,0,l),
(172,0,l),
(172,520,l,{
name = hr00;
})
);
},
{
closed = 1;
nodes = (
(264,640,l),
(130,756,l),
(-3,640,l),
(27,603,l),
(130,670,l),
(233,603,l,{
name = hr00;
})
);
}
);
};
layerId = master01;
shapes = (
{
ref = idotless;
},
{
pos = (-85,0);
ref = circumflexcomb;
}
);
width = 262;
}
);
unicode = 238;
},
{
glyphname = idieresis;
kernLeft = i;
lastChange = "2023-02-17 11:12:50 +0000";
layers = (
{
background = {
shapes = (
{
closed = 1;
nodes = (
(90,520,l),
(90,0,l),
(172,0,l),
(172,520,l,{
name = hr00;
})
);
},
{
closed = 1;
nodes = (
(9,717,o),
(-11,717,o),
(-11,667,cs),
(-11,616,o),
(9,616,o),
(41,616,cs),
(73,616,o),
(93,616,o),
(93,667,cs),
(93,717,o),
(73,717,o),
(41,717,c,{
name = hr00;
})
);
},
{
closed = 1;
nodes = (
(189,717,o),
(169,717,o),
(169,667,cs),
(169,616,o),
(189,616,o),
(221,616,cs),
(253,616,o),
(273,616,o),
(273,667,cs),
(273,717,o),
(253,717,o),
(221,717,c)
);
}
);
};
layerId = master01;
shapes = (
{
ref = idotless;
},
{
pos = (-84,0);
ref = dieresiscomb;
}
);
width = 262;
}
);
unicode = 239;
},
{
glyphname = igrave;
kernLeft = i;
lastChange = "2023-02-17 11:12:50 +0000";
layers = (
{
background = {
shapes = (
{
closed = 1;
nodes = (
(90,520,l),
(90,0,l),
(172,0,l),
(172,520,l,{
name = hr00;
})
);
},
{
closed = 1;
nodes = (
(236,620,l),
(71,756,l),
(25,689,l),
(213,586,l,{
name = hr00;
})
);
}
);
};
layerId = master01;
shapes = (
{
ref = idotless;
},
{
pos = (-69,0);
ref = gravecomb;
}
);
width = 262;
}
);
unicode = 236;
},
{
glyphname = ij;
kernLeft = i;
lastChange = "2023-02-17 11:12:50 +0000";
layers = (
{
background = {
shapes = (
{
closed = 1;
nodes = (
(90,520,l),
(90,0,l),
(172,0,l),
(172,520,l,{
name = hr00;
})
);
},
{
closed = 1;
nodes = (
(99,717,o),
(79,717,o),
(79,667,cs),
(79,616,o),
(99,616,o),
(131,616,cs),
(163,616,o),
(183,616,o),
(183,667,cs),
(183,717,o),
(163,717,o),
(131,717,c)
);
},
{
closed = 1;
nodes = (
(361,717,o),
(341,717,o),
(341,667,cs),
(341,616,o),
(361,616,o),
(393,616,cs),
(425,616,o),
(445,616,o),
(445,667,cs),
(445,717,o),
(425,717,o),
(393,717,c,{
name = hr00;
})
);
},
{
closed = 1;
nodes = (
(352,-54,ls),
(352,-105,o),
(346,-130,o),
(311,-130,cs),
(293,-130,o),
(280,-127,o),
(262,-122,c),
(244,-180,l),
(264,-189,o),
(288,-194,o),
(313,-194,cs),
(430,-194,o),
(434,-113,o),
(434,-33,cs),
(434,520,l),
(352,520,l)
);
}
);
};
layerId = master01;
shapes = (
{
ref = i;
},
{
pos = (262,0);
ref = j;
}
);
width = 524;
}
);
unicode = 307;
},
{
glyphname = imacron;
kernLeft = i;
lastChange = "2023-02-17 11:12:50 +0000";
layers = (
{
background = {
shapes = (
{
closed = 1;
nodes = (
(90,520,l),
(90,0,l),
(172,0,l),
(172,520,l,{
name = hr00;
})
);
},
{
closed = 1;
nodes = (
(11,635,l),
(251,635,l),
(251,698,l),
(11,698,l,{
name = hr00;
})
);
}
);
};
layerId = master01;
shapes = (
{
ref = idotless;
},
{
pos = (-69,0);
ref = macroncomb;
}
);
width = 262;
}
);
unicode = 299;
},
{
glyphname = iogonek;
kernLeft = i;
lastChange = "2023-02-17 11:12:50 +0000";
layers = (
{
background = {
shapes = (
{
closed = 1;
nodes = (
(90,520,l),
(90,0,l),
(172,0,l),
(172,520,l,{
name = hr00;
})
);
},
{
closed = 1;
nodes = (
(96,732,o),
(74,732,o),
(74,677,cs),
(74,621,o),
(96,621,o),
(131,621,cs),
(166,621,o),
(188,621,o),
(188,677,cs),
(188,732,o),
(166,732,o),
(131,732,c,{
name = hr00;
})
);
},
{
closed = 1;
nodes = (
(141,15,l),
(86,-44,ls),
(60,-72,o),
(50,-90,o),
(50,-113,cs),
(50,-143,o),
(61,-177,o),
(122,-177,cs),
(170,-177,o),
(204,-157,o),
(222,-144,c),
(212,-109,l),
(188,-125,o),
(167,-133,o),
(141,-133,cs),
(118,-133,o),
(115,-120,o),
(115,-107,cs),
(115,-91,o),
(139,-53,o),
(152,-33,cs),
(172,0,l),
(172,15,l,{
name = hr00;
})
);
}
);
};
layerId = master01;
shapes = (
{
ref = idotless;
},
{
pos = (4,0);
ref = dotaccentcomb;
},
{
pos = (34,0);
ref = ogonekcomb;
}
);
width = 262;
}
);
unicode = 303;
},
{
glyphname = itilde;
kernLeft = i;
lastChange = "2023-02-17 11:12:50 +0000";
layers = (
{
background = {
shapes = (
{
closed = 1;
nodes = (
(90,520,l),
(90,0,l),
(172,0,l),
(172,520,l,{
name = hr00;
})
);
},
{
closed = 1;
nodes = (
(220,702,o),
(204,695,o),
(184,695,cs),
(146,695,o),
(118,722,o),
(83,722,cs,{
name = hr01;
}),
(59,722,o),
(40,717,o),
(-1,675,c),
(21,637,l),
(41,650,o),
(57,657,o),
(77,657,cs),
(115,657,o),
(143,630,o),
(178,630,cs,{
name = hr02;
}),
(202,630,o),
(221,635,o),
(262,677,c),
(240,715,l)
);
}
);
};
layerId = master01;
shapes = (
{
ref = idotless;
},
{
pos = (-100,0);
ref = tildecomb;
}
);
width = 262;
}
);
unicode = 297;
},
{
glyphname = j;
kernLeft = i;
lastChange = "2023-02-17 11:12:50 +0000";
layers = (
{
background = {
shapes = (
{
closed = 1;
nodes = (
(99,717,o),
(79,717,o),
(79,667,cs),
(79,616,o),
(99,616,o),
(131,616,cs),
(163,616,o),
(183,616,o),
(183,667,cs),
(183,717,o),
(163,717,o),
(131,717,c,{
name = hr00;
})
);
},
{
closed = 1;
nodes = (
(90,-54,ls),
(90,-105,o),
(84,-130,o),
(49,-130,cs),
(31,-130,o),
(18,-127,o),
(0,-122,c),
(-18,-180,l),
(2,-189,o),
(26,-194,o),
(51,-194,cs),
(168,-194,o),
(172,-113,o),
(172,-33,cs),
(172,520,l),
(90,520,l)
);
}
);
};
layerId = master01;
shapes = (
{
ref = jdotless;
},
{
pos = (4,0);
ref = dotaccentcomb;
}
);
width = 262;
}
);
unicode = 106;
},
{
glyphname = jdotless;
kernLeft = i;
lastChange = "2023-02-17 11:12:50 +0000";
layers = (
{
anchors = (
{
name = bottom;
pos = (131,-194);
},
{
name = top;
pos = (131,520);
}
);
background = {
shapes = (
{
closed = 1;
nodes = (
(90,-54,ls),
(90,-105,o),
(84,-130,o),
(49,-130,cs),
(31,-130,o),
(18,-127,o),
(0,-122,c),
(-18,-180,l),
(2,-189,o),
(26,-194,o),
(51,-194,cs),
(168,-194,o),
(172,-113,o),
(172,-33,cs),
(172,520,l),
(90,520,l,{
name = hr00;
})
);
}
);
};
layerId = master01;
shapes = (
{
closed = 1;
nodes = (
(90,-54,ls),
(90,-105,o),
(84,-130,o),
(49,-130,cs),
(31,-130,o),
(18,-127,o),
(0,-122,c),
(-18,-180,l),
(2,-189,o),
(26,-194,o),
(51,-194,cs),
(168,-194,o),
(172,-113,o),
(172,-33,cs),
(172,520,l),
(90,520,l,{
name = hr00;
})
);
}
);
width = 262;
}
);
unicode = 567;
},
{
glyphname = jcircumflex;
kernLeft = i;
lastChange = "2023-02-17 11:12:50 +0000";
layers = (
{
background = {
shapes = (
{
closed = 1;
nodes = (
(90,-54,ls),
(90,-105,o),
(84,-130,o),
(49,-130,cs),
(31,-130,o),
(18,-127,o),
(0,-122,c),
(-18,-180,l),
(2,-189,o),
(26,-194,o),
(51,-194,cs),
(168,-194,o),
(172,-113,o),
(172,-33,cs),
(172,520,l),
(90,520,l,{
name = hr00;
})
);
},
{
closed = 1;
nodes = (
(264,640,l),
(130,756,l),
(-3,640,l),
(27,603,l),
(130,670,l),
(233,603,l,{
name = hr00;
})
);
}
);
};
layerId = master01;
shapes = (
{
ref = jdotless;
},
{
pos = (-85,0);
ref = circumflexcomb;
}
);
width = 262;
}
);
unicode = 309;
},
{
glyphname = k;
lastChange = "2023-02-17 10:52:01 +0000";
layers = (
{
anchors = (
{
name = bottom;
pos = (255,0);
},
{
name = top;
pos = (235,901);
}
);
background = {
shapes = (
{
closed = 1;
nodes = (
(172,720,l),
(90,720,l),
(90,0,l),
(172,0,l,{
name = hr00;
})
);
},
{
closed = 1;
nodes = (
(196,276,l),
(353,0,l),
(440,0,l),
(283,276,l),
(432,520,l),
(345,520,l)
);
}
);
};
layerId = master01;
shapes = (
{
closed = 1;
nodes = (
(172,720,l),
(90,720,l),
(90,0,l),
(172,0,l,{
name = hr00;
})
);
},
{
closed = 1;
nodes = (
(196,276,l),
(353,0,l),
(440,0,l),
(283,276,l),
(432,520,l),
(345,520,l)
);
}
);
width = 470;
}
);
unicode = 107;
},
{
glyphname = kcommaaccent;
lastChange = "2023-02-17 10:52:01 +0000";
layers = (
{
background = {
shapes = (
{
closed = 1;
nodes = (
(172,720,l),
(90,720,l),
(90,0,l),
(172,0,l,{
name = hr00;
})
);
},
{
closed = 1;
nodes = (
(196,276,l),
(353,0,l),
(440,0,l),
(283,276,l),
(432,520,l),
(345,520,l)
);
},
{
closed = 1;
nodes = (
(222,-50,o),
(200,-50,o),
(200,-105,cs),
(200,-140,o),
(208,-153,o),
(223,-158,c),
(195,-241,l),
(240,-265,l),
(281,-200,ls),
(294,-179,o),
(304,-159,o),
(310,-138,cs),
(312,-130,o),
(314,-119,o),
(314,-105,cs),
(314,-50,o),
(292,-50,o),
(257,-50,c,{
name = hr00;
})
);
}
);
};
layerId = master01;
shapes = (
{
ref = k;
},
{
pos = (136,0);
ref = commaaccentcomb;
}
);
width = 470;
}
);
unicode = 311;
},
{
glyphname = kgreenlandic;
lastChange = "2023-02-17 10:52:01 +0000";
layers = (
{
anchors = (
{
name = bottom;
pos = (235,0);
},
{
name = top;
pos = (235,520);
}
);
background = {
shapes = (
{
closed = 1;
nodes = (
(172,520,l),
(90,520,l),
(90,0,l),
(172,0,l,{
name = hr00;
})
);
},
{
closed = 1;
nodes = (
(196,276,l),
(353,0,l),
(440,0,l),
(283,276,l),
(432,520,l),
(345,520,l)
);
}
);
};
layerId = master01;
shapes = (
{
closed = 1;
nodes = (
(172,520,l),
(90,520,l),
(90,0,l),
(172,0,l,{
name = hr00;
})
);
},
{
closed = 1;
nodes = (
(196,276,l),
(353,0,l),
(440,0,l),
(283,276,l),
(432,520,l),
(345,520,l)
);
}
);
width = 470;
}
);
unicode = 312;
},
{
glyphname = l;
lastChange = "2023-02-17 10:52:01 +0000";
layers = (
{
anchors = (
{
name = bottom;
pos = (131,0);
},
{
name = center;
pos = (131,451);
},
{
name = top;
pos = (131,720);
},
{
name = topright;
pos = (351,700);
}
);
background = {
shapes = (
{
closed = 1;
nodes = (
(172,0,l),
(172,720,l),
(90,720,l),
(90,0,l,{
name = hr00;
})
);
}
);
};
layerId = master01;
shapes = (
{
closed = 1;
nodes = (
(172,0,l),
(172,720,l),
(90,720,l),
(90,0,l,{
name = hr00;
})
);
}
);
width = 262;
}
);
unicode = 108;
},
{
glyphname = lacute;
lastChange = "2023-02-17 10:52:01 +0000";
layers = (
{
background = {
shapes = (
{
closed = 1;
nodes = (
(172,0,l),
(172,720,l),
(90,720,l),
(90,0,l,{
name = hr00;
})
);
},
{
closed = 1;
nodes = (
(58,751,l),
(246,854,l),
(200,921,l),
(35,785,l,{
name = hr00;
})
);
}
);
};
layerId = master01;
shapes = (
{
ref = l;
},
{
pos = (-99,20);
ref = acutecomb.case;
}
);
width = 262;
}
);
unicode = 314;
},
{
glyphname = lcaron;
lastChange = "2023-02-17 10:52:01 +0000";
layers = (
{
background = {
shapes = (
{
closed = 1;
nodes = (
(172,0,l),
(172,720,l),
(90,720,l),
(90,0,l,{
name = hr00;
})
);
},
{
closed = 1;
nodes = (
(229,730,o),
(207,730,o),
(207,675,cs),
(207,640,o),
(215,627,o),
(230,622,c),
(202,539,l),
(247,515,l),
(288,580,ls),
(301,601,o),
(311,621,o),
(317,642,cs),
(319,650,o),
(321,661,o),
(321,675,cs),
(321,730,o),
(299,730,o),
(264,730,c,{
name = hr00;
})
);
}
);
};
layerId = master01;
shapes = (
{
ref = l;
},
{
pos = (149,0);
ref = caroncomb.alt;
}
);
width = 262;
}
);
unicode = 318;
},
{
glyphname = lcommaaccent;
lastChange = "2023-02-17 10:52:01 +0000";
layers = (
{
background = {
shapes = (
{
closed = 1;
nodes = (
(172,0,l),
(172,720,l),
(90,720,l),
(90,0,l,{
name = hr00;
})
);
},
{
closed = 1;
nodes = (
(98,-50,o),
(76,-50,o),
(76,-105,cs),
(76,-140,o),
(84,-153,o),
(99,-158,c),
(71,-241,l),
(116,-265,l),
(157,-200,ls),
(170,-179,o),
(180,-159,o),
(186,-138,cs),
(188,-130,o),
(190,-119,o),
(190,-105,cs),
(190,-50,o),
(168,-50,o),
(133,-50,c,{
name = hr00;
})
);
}
);
};
layerId = master01;
shapes = (
{
ref = l;
},
{
pos = (12,0);
ref = commaaccentcomb;
}
);
width = 262;
}
);
unicode = 316;
},
{
glyphname = ldot;
lastChange = "2023-02-17 10:52:01 +0000";
layers = (
{
background = {
shapes = (
{
closed = 1;
nodes = (
(172,0,l),
(172,720,l),
(90,720,l),
(90,0,l,{
name = hr00;
})
);
},
{
closed = 1;
nodes = (
(228,414,o),
(208,414,o),
(208,362,cs),
(208,308,o),
(228,308,o),
(261,308,cs),
(294,308,o),
(316,308,o),
(316,362,cs),
(316,414,o),
(294,414,o),
(261,414,c,{
name = hr00;
})
);
}
);
};
layerId = master01;
shapes = (
{
ref = l;
},
{
closed = 1;
nodes = (
(228,414,o),
(208,414,o),
(208,362,cs),
(208,308,o),
(228,308,o),
(261,308,cs),
(294,308,o),
(316,308,o),
(316,362,cs),
(316,414,o),
(294,414,o),
(261,414,c,{
name = hr00;
})
);
}
);
width = 272;
}
);
unicode = 320;
},
{
glyphname = lslash;
lastChange = "2023-02-17 10:52:01 +0000";
layers = (
{
background = {
shapes = (
{
closed = 1;
nodes = (
(22,345,l),
(90,379,l),
(90,0,l),
(172,0,l),
(172,421,l),
(271,472,l),
(241,530,l),
(172,495,l),
(172,720,l),
(90,720,l),
(90,453,l),
(-8,403,l,{
name = hr00;
})
);
}
);
};
layerId = master01;
shapes = (
{
closed = 1;
nodes = (
(22,345,l),
(90,379,l),
(90,0,l),
(172,0,l),
(172,421,l),
(271,472,l),
(241,530,l),
(172,495,l),
(172,720,l),
(90,720,l),
(90,453,l),
(-8,403,l,{
name = hr00;
})
);
}
);
width = 262;
}
);
unicode = 322;
},
{
glyphname = m;
kernLeft = n;
lastChange = "2023-02-17 11:10:50 +0000";
layers = (
{
anchors = (
{
name = bottom;
pos = (376,0);
},
{
name = top;
pos = (376,520);
}
);
background = {
shapes = (
{
closed = 1;
nodes = (
(672,366,ls),
(672,451,o),
(656,531,o),
(541,531,cs),
(499,531,o),
(441,529,o),
(402,476,c),
(384,509,o),
(351,531,o),
(291,531,cs),
(248,531,o),
(187,530,o),
(148,471,c),
(135,520,l,{
name = hr01;
}),
(90,520,l),
(90,0,l),
(172,0,l),
(172,379,ls),
(172,429,o),
(187,466,o),
(259,466,cs,{
name = hr02;
}),
(336,466,o),
(340,433,o),
(340,377,cs),
(340,0,l),
(422,0,l),
(422,379,ls),
(422,429,o),
(437,466,o),
(509,466,cs),
(586,466,o),
(590,433,o),
(590,377,cs),
(590,0,l),
(672,0,l)
);
}
);
};
layerId = master01;
shapes = (
{
closed = 1;
nodes = (
(672,366,ls),
(672,451,o),
(656,531,o),
(541,531,cs),
(499,531,o),
(441,529,o),
(402,476,c),
(384,509,o),
(351,531,o),
(291,531,cs),
(248,531,o),
(187,530,o),
(148,471,c),
(135,520,l,{
name = hr01;
}),
(90,520,l),
(90,0,l),
(172,0,l),
(172,379,ls),
(172,429,o),
(187,466,o),
(259,466,cs,{
name = hr02;
}),
(336,466,o),
(340,433,o),
(340,377,cs),
(340,0,l),
(422,0,l),
(422,379,ls),
(422,429,o),
(437,466,o),
(509,466,cs),
(586,466,o),
(590,433,o),
(590,377,cs),
(590,0,l),
(672,0,l)
);
}
);
width = 752;
}
);
unicode = 109;
},
{
glyphname = n;
kernLeft = n;
lastChange = "2023-02-17 11:10:50 +0000";
layers = (
{
anchors = (
{
name = bottom;
pos = (259,0);
},
{
name = top;
pos = (259,520);
}
);
background = {
shapes = (
{
closed = 1;
nodes = (
(437,366,ls),
(437,451,o),
(421,531,o),
(302,531,cs),
(256,531,o),
(190,530,o),
(148,471,c),
(135,520,l,{
name = hr01;
}),
(90,520,l),
(90,0,l),
(172,0,l),
(172,379,ls),
(172,429,o),
(188,466,o),
(267,466,cs,{
name = hr02;
}),
(351,466,o),
(355,433,o),
(355,377,cs),
(355,0,l),
(437,0,l)
);
}
);
};
layerId = master01;
shapes = (
{
closed = 1;
nodes = (
(437,366,ls),
(437,451,o),
(421,531,o),
(302,531,cs),
(256,531,o),
(190,530,o),
(148,471,c),
(135,520,l,{
name = hr01;
}),
(90,520,l),
(90,0,l),
(172,0,l),
(172,379,ls),
(172,429,o),
(188,466,o),
(267,466,cs,{
name = hr02;
}),
(351,466,o),
(355,433,o),
(355,377,cs),
(355,0,l),
(437,0,l)
);
}
);
width = 517;
}
);
unicode = 110;
},
{
glyphname = nacute;
kernLeft = n;
lastChange = "2023-02-17 11:10:50 +0000";
layers = (
{
background = {
shapes = (
{
closed = 1;
nodes = (
(437,366,ls),
(437,451,o),
(421,531,o),
(302,531,cs),
(256,531,o),
(190,530,o),
(148,471,c),
(135,520,l,{
name = hr01;
}),
(90,520,l),
(90,0,l),
(172,0,l),
(172,379,ls),
(172,429,o),
(188,466,o),
(267,466,cs,{
name = hr02;
}),
(351,466,o),
(355,433,o),
(355,377,cs),
(355,0,l),
(437,0,l)
);
},
{
closed = 1;
nodes = (
(186,586,l),
(374,689,l),
(328,756,l),
(163,620,l,{
name = hr00;
})
);
}
);
};
layerId = master01;
shapes = (
{
ref = n;
},
{
pos = (19,0);
ref = acutecomb;
}
);
width = 517;
}
);
unicode = 324;
},
{
glyphname = napostrophe;
lastChange = "2023-02-17 10:52:01 +0000";
layers = (
{
background = {
shapes = (
{
closed = 1;
nodes = (
(437,366,ls),
(437,451,o),
(421,531,o),
(302,531,cs),
(256,531,o),
(190,530,o),
(148,471,c),
(135,520,l,{
name = hr01;
}),
(90,520,l),
(90,0,l),
(172,0,l),
(172,379,ls),
(172,429,o),
(188,466,o),
(267,466,cs,{
name = hr02;
}),
(351,466,o),
(355,433,o),
(355,377,cs),
(355,0,l),
(437,0,l)
);
},
{
closed = 1;
nodes = (
(19,730,o),
(-3,730,o),
(-3,675,cs),
(-3,640,o),
(5,627,o),
(20,622,c),
(-8,539,l),
(37,515,l),
(78,580,ls),
(91,601,o),
(101,621,o),
(107,642,cs),
(109,650,o),
(111,661,o),
(111,675,cs),
(111,730,o),
(89,730,o),
(54,730,c,{
name = hr00;
})
);
}
);
};
layerId = master01;
shapes = (
{
alignment = -1;
ref = n;
},
{
alignment = -1;
pos = (-67,0);
ref = caron.salt;
}
);
width = 517;
}
);
unicode = 329;
},
{
glyphname = ncaron;
kernLeft = n;
lastChange = "2023-02-17 11:10:50 +0000";
layers = (
{
background = {
shapes = (
{
closed = 1;
nodes = (
(437,366,ls),
(437,451,o),
(421,531,o),
(302,531,cs),
(256,531,o),
(190,530,o),
(148,471,c),
(135,520,l,{
name = hr01;
}),
(90,520,l),
(90,0,l),
(172,0,l),
(172,379,ls),
(172,429,o),
(188,466,o),
(267,466,cs,{
name = hr02;
}),
(351,466,o),
(355,433,o),
(355,377,cs),
(355,0,l),
(437,0,l)
);
},
{
closed = 1;
nodes = (
(125,710,l),
(259,594,l),
(392,710,l),
(362,747,l),
(259,680,l),
(156,747,l,{
name = hr00;
})
);
}
);
};
layerId = master01;
shapes = (
{
ref = n;
},
{
pos = (43,0);
ref = caroncomb;
}
);
width = 517;
}
);
unicode = 328;
},
{
glyphname = ncommaaccent;
kernLeft = n;
lastChange = "2023-02-17 11:10:50 +0000";
layers = (
{
background = {
shapes = (
{
closed = 1;
nodes = (
(437,366,ls),
(437,451,o),
(421,531,o),
(302,531,cs),
(256,531,o),
(190,530,o),
(148,471,c),
(135,520,l,{
name = hr01;
}),
(90,520,l),
(90,0,l),
(172,0,l),
(172,379,ls),
(172,429,o),
(188,466,o),
(267,466,cs,{
name = hr02;
}),
(351,466,o),
(355,433,o),
(355,377,cs),
(355,0,l),
(437,0,l)
);
},
{
closed = 1;
nodes = (
(226,-50,o),
(204,-50,o),
(204,-105,cs),
(204,-140,o),
(212,-153,o),
(227,-158,c),
(199,-241,l),
(244,-265,l),
(285,-200,ls),
(298,-179,o),
(308,-159,o),
(314,-138,cs),
(316,-130,o),
(318,-119,o),
(318,-105,cs),
(318,-50,o),
(296,-50,o),
(261,-50,c,{
name = hr00;
})
);
}
);
};
layerId = master01;
shapes = (
{
ref = n;
},
{
pos = (140,0);
ref = commaaccentcomb;
}
);
width = 517;
}
);
unicode = 326;
},
{
glyphname = ntilde;
kernLeft = n;
lastChange = "2023-02-17 11:10:50 +0000";
layers = (
{
background = {
shapes = (
{
closed = 1;
nodes = (
(437,366,ls),
(437,451,o),
(421,531,o),
(302,531,cs),
(256,531,o),
(190,530,o),
(148,471,c),
(135,520,l,{
name = hr01;
}),
(90,520,l),
(90,0,l),
(172,0,l),
(172,379,ls),
(172,429,o),
(188,466,o),
(267,466,cs,{
name = hr02;
}),
(351,466,o),
(355,433,o),
(355,377,cs),
(355,0,l),
(437,0,l)
);
},
{
closed = 1;
nodes = (
(348,702,o),
(332,695,o),
(312,695,cs),
(274,695,o),
(246,722,o),
(211,722,cs,{
name = hr01;
}),
(187,722,o),
(168,717,o),
(127,675,c),
(149,637,l),
(169,650,o),
(185,657,o),
(205,657,cs),
(243,657,o),
(271,630,o),
(306,630,cs,{
name = hr02;
}),
(330,630,o),
(349,635,o),
(390,677,c),
(368,715,l)
);
}
);
};
layerId = master01;
shapes = (
{
ref = n;
},
{
pos = (28,0);
ref = tildecomb;
}
);
width = 517;
}
);
unicode = 241;
},
{
glyphname = eng;
kernLeft = n;
lastChange = "2023-02-17 11:10:50 +0000";
layers = (
{
anchors = (
{
name = bottom;
pos = (259,0);
},
{
name = top;
pos = (259,520);
}
);
background = {
shapes = (
{
closed = 1;
nodes = (
(90,520,l),
(90,0,l),
(172,0,l),
(172,379,ls),
(172,429,o),
(188,466,o),
(267,466,cs,{
name = hr01;
}),
(351,466,o),
(355,433,o),
(355,377,cs),
(355,-54,ls),
(355,-105,o),
(349,-130,o),
(314,-130,cs),
(296,-130,o),
(283,-127,o),
(265,-122,c),
(247,-180,l),
(267,-189,o),
(291,-194,o),
(316,-194,cs),
(433,-194,o),
(437,-113,o),
(437,-33,cs),
(437,366,ls),
(437,451,o),
(421,531,o),
(302,531,cs,{
name = hr02;
}),
(256,531,o),
(190,530,o),
(148,471,c),
(135,520,l)
);
}
);
};
layerId = master01;
shapes = (
{
closed = 1;
nodes = (
(90,520,l),
(90,0,l),
(172,0,l),
(172,379,ls),
(172,429,o),
(188,466,o),
(267,466,cs,{
name = hr01;
}),
(351,466,o),
(355,433,o),
(355,377,cs),
(355,-54,ls),
(355,-105,o),
(349,-130,o),
(314,-130,cs),
(296,-130,o),
(283,-127,o),
(265,-122,c),
(247,-180,l),
(267,-189,o),
(291,-194,o),
(316,-194,cs),
(433,-194,o),
(437,-113,o),
(437,-33,cs),
(437,366,ls),
(437,451,o),
(421,531,o),
(302,531,cs,{
name = hr02;
}),
(256,531,o),
(190,530,o),
(148,471,c),
(135,520,l)
);
}
);
width = 517;
}
);
unicode = 331;
},
{
glyphname = o;
kernLeft = c;
lastChange = "2023-02-17 10:56:40 +0000";
layers = (
{
anchors = (
{
name = bottom;
pos = (257,0);
},
{
name = center;
pos = (257,260);
},
{
name = ogonek;
pos = (462,10);
},
{
name = top;
pos = (257,520);
},
{
name = topright;
pos = (493,520);
}
);
background = {
shapes = (
{
closed = 1;
nodes = (
(438,-12,o),
(438,93,o),
(438,260,cs),
(438,427,o),
(438,531,o),
(256,531,cs),
(75,531,o),
(75,427,o),
(75,260,cs),
(75,93,o),
(75,-12,o),
(256,-12,c,{
name = hr00;
})
);
},
{
closed = 1;
nodes = (
(353,93,o),
(353,53,o),
(256,53,cs),
(158,53,o),
(158,93,o),
(158,145,cs),
(158,374,ls),
(158,426,o),
(158,466,o),
(256,466,cs),
(353,466,o),
(353,426,o),
(353,374,cs),
(353,145,l)
);
}
);
};
layerId = master01;
shapes = (
{
closed = 1;
nodes = (
(438,-12,o),
(438,93,o),
(438,260,cs),
(438,427,o),
(438,531,o),
(256,531,cs),
(75,531,o),
(75,427,o),
(75,260,cs),
(75,93,o),
(75,-12,o),
(256,-12,c,{
name = hr00;
})
);
},
{
closed = 1;
nodes = (
(353,93,o),
(353,53,o),
(256,53,cs),
(158,53,o),
(158,93,o),
(158,145,cs),
(158,374,ls),
(158,426,o),
(158,466,o),
(256,466,cs),
(353,466,o),
(353,426,o),
(353,374,cs),
(353,145,l)
);
}
);
width = 513;
}
);
unicode = 111;
},
{
glyphname = oacute;
kernLeft = c;
lastChange = "2023-02-17 10:56:40 +0000";
layers = (
{
background = {
shapes = (
{
closed = 1;
nodes = (
(438,-12,o),
(438,93,o),
(438,260,cs),
(438,427,o),
(438,531,o),
(256,531,cs),
(75,531,o),
(75,427,o),
(75,260,cs),
(75,93,o),
(75,-12,o),
(256,-12,c,{
name = hr00;
})
);
},
{
closed = 1;
nodes = (
(353,93,o),
(353,53,o),
(256,53,cs),
(158,53,o),
(158,93,o),
(158,145,cs),
(158,374,ls),
(158,426,o),
(158,466,o),
(256,466,cs),
(353,466,o),
(353,426,o),
(353,374,cs),
(353,145,l)
);
},
{
closed = 1;
nodes = (
(184,586,l),
(372,689,l),
(326,756,l),
(161,620,l,{
name = hr00;
})
);
}
);
};
layerId = master01;
shapes = (
{
ref = o;
},
{
pos = (17,0);
ref = acutecomb;
}
);
width = 513;
}
);
unicode = 243;
},
{
glyphname = obreve;
kernLeft = c;
lastChange = "2023-02-17 10:56:40 +0000";
layers = (
{
background = {
shapes = (
{
closed = 1;
nodes = (
(438,-12,o),
(438,93,o),
(438,260,cs),
(438,427,o),
(438,531,o),
(256,531,cs),
(75,531,o),
(75,427,o),
(75,260,cs),
(75,93,o),
(75,-12,o),
(256,-12,c,{
name = hr00;
})
);
},
{
closed = 1;
nodes = (
(353,93,o),
(353,53,o),
(256,53,cs),
(158,53,o),
(158,93,o),
(158,145,cs),
(158,374,ls),
(158,426,o),
(158,466,o),
(256,466,cs),
(353,466,o),
(353,426,o),
(353,374,cs),
(353,145,l)
);
},
{
closed = 1;
nodes = (
(314,591,o),
(343,612,o),
(365,658,cs),
(386,702,l),
(341,724,l),
(325,693,o),
(310,661,o),
(257,661,cs),
(204,661,o),
(189,693,o),
(173,724,c),
(128,702,l),
(149,658,ls),
(171,612,o),
(200,591,o),
(257,591,c,{
name = hr00;
})
);
}
);
};
layerId = master01;
shapes = (
{
ref = o;
},
{
pos = (42,0);
ref = brevecomb;
}
);
width = 513;
}
);
unicode = 335;
},
{
glyphname = ocircumflex;
kernLeft = c;
lastChange = "2023-02-17 10:56:40 +0000";
layers = (
{
background = {
shapes = (
{
closed = 1;
nodes = (
(438,-12,o),
(438,93,o),
(438,260,cs),
(438,427,o),
(438,531,o),
(256,531,cs),
(75,531,o),
(75,427,o),
(75,260,cs),
(75,93,o),
(75,-12,o),
(256,-12,c,{
name = hr00;
})
);
},
{
closed = 1;
nodes = (
(353,93,o),
(353,53,o),
(256,53,cs),
(158,53,o),
(158,93,o),
(158,145,cs),
(158,374,ls),
(158,426,o),
(158,466,o),
(256,466,cs),
(353,466,o),
(353,426,o),
(353,374,cs),
(353,145,l)
);
},
{
closed = 1;
nodes = (
(390,640,l),
(256,756,l),
(123,640,l),
(153,603,l),
(256,670,l),
(359,603,l,{
name = hr00;
})
);
}
);
};
layerId = master01;
shapes = (
{
ref = o;
},
{
pos = (41,0);
ref = circumflexcomb;
}
);
width = 513;
}
);
unicode = 244;
},
{
glyphname = odieresis;
kernLeft = c;
lastChange = "2023-02-17 10:56:40 +0000";
layers = (
{
background = {
shapes = (
{
closed = 1;
nodes = (
(438,-12,o),
(438,93,o),
(438,260,cs),
(438,427,o),
(438,531,o),
(256,531,cs),
(75,531,o),
(75,427,o),
(75,260,cs),
(75,93,o),
(75,-12,o),
(256,-12,c,{
name = hr00;
})
);
},
{
closed = 1;
nodes = (
(353,93,o),
(353,53,o),
(256,53,cs),
(158,53,o),
(158,93,o),
(158,145,cs),
(158,374,ls),
(158,426,o),
(158,466,o),
(256,466,cs),
(353,466,o),
(353,426,o),
(353,374,cs),
(353,145,l)
);
},
{
closed = 1;
nodes = (
(135,717,o),
(115,717,o),
(115,667,cs),
(115,616,o),
(135,616,o),
(167,616,cs),
(199,616,o),
(219,616,o),
(219,667,cs),
(219,717,o),
(199,717,o),
(167,717,c,{
name = hr00;
})
);
},
{
closed = 1;
nodes = (
(315,717,o),
(295,717,o),
(295,667,cs),
(295,616,o),
(315,616,o),
(347,616,cs),
(379,616,o),
(399,616,o),
(399,667,cs),
(399,717,o),
(379,717,o),
(347,717,c)
);
}
);
};
layerId = master01;
shapes = (
{
ref = o;
},
{
pos = (42,0);
ref = dieresiscomb;
}
);
width = 513;
}
);
unicode = 246;
},
{
glyphname = ograve;
kernLeft = c;
lastChange = "2023-02-17 10:56:40 +0000";
layers = (
{
background = {
shapes = (
{
closed = 1;
nodes = (
(438,-12,o),
(438,93,o),
(438,260,cs),
(438,427,o),
(438,531,o),
(256,531,cs),
(75,531,o),
(75,427,o),
(75,260,cs),
(75,93,o),
(75,-12,o),
(256,-12,c,{
name = hr00;
})
);
},
{
closed = 1;
nodes = (
(353,93,o),
(353,53,o),
(256,53,cs),
(158,53,o),
(158,93,o),
(158,145,cs),
(158,374,ls),
(158,426,o),
(158,466,o),
(256,466,cs),
(353,466,o),
(353,426,o),
(353,374,cs),
(353,145,l)
);
},
{
closed = 1;
nodes = (
(362,620,l),
(197,756,l),
(151,689,l),
(339,586,l,{
name = hr00;
})
);
}
);
};
layerId = master01;
shapes = (
{
ref = o;
},
{
pos = (57,0);
ref = gravecomb;
}
);
width = 513;
}
);
unicode = 242;
},
{
glyphname = ohungarumlaut;
kernLeft = c;
lastChange = "2023-02-17 10:56:40 +0000";
layers = (
{
background = {
shapes = (
{
closed = 1;
nodes = (
(438,-12,o),
(438,93,o),
(438,260,cs),
(438,427,o),
(438,531,o),
(256,531,cs),
(75,531,o),
(75,427,o),
(75,260,cs),
(75,93,o),
(75,-12,o),
(256,-12,c,{
name = hr00;
})
);
},
{
closed = 1;
nodes = (
(353,93,o),
(353,53,o),
(256,53,cs),
(158,53,o),
(158,93,o),
(158,145,cs),
(158,374,ls),
(158,426,o),
(158,466,o),
(256,466,cs),
(353,466,o),
(353,426,o),
(353,374,cs),
(353,145,l)
);
},
{
closed = 1;
nodes = (
(136,586,l),
(304,689,l),
(254,755,l),
(109,619,l,{
name = hr00;
})
);
},
{
closed = 1;
nodes = (
(336,586,l),
(504,689,l),
(454,755,l),
(309,619,l)
);
}
);
};
layerId = master01;
shapes = (
{
ref = o;
},
{
pos = (74,0);
ref = hungarumlautcomb;
}
);
width = 513;
}
);
unicode = 337;
},
{
glyphname = omacron;
kernLeft = c;
lastChange = "2023-02-17 10:56:40 +0000";
layers = (
{
background = {
shapes = (
{
closed = 1;
nodes = (
(438,-12,o),
(438,93,o),
(438,260,cs),
(438,427,o),
(438,531,o),
(256,531,cs),
(75,531,o),
(75,427,o),
(75,260,cs),
(75,93,o),
(75,-12,o),
(256,-12,c,{
name = hr00;
})
);
},
{
closed = 1;
nodes = (
(353,93,o),
(353,53,o),
(256,53,cs),
(158,53,o),
(158,93,o),
(158,145,cs),
(158,374,ls),
(158,426,o),
(158,466,o),
(256,466,cs),
(353,466,o),
(353,426,o),
(353,374,cs),
(353,145,l)
);
},
{
closed = 1;
nodes = (
(137,635,l),
(377,635,l),
(377,698,l),
(137,698,l,{
name = hr00;
})
);
}
);
};
layerId = master01;
shapes = (
{
ref = o;
},
{
pos = (57,0);
ref = macroncomb;
}
);
width = 513;
}
);
unicode = 333;
},
{
glyphname = oslash;
kernLeft = c;
lastChange = "2023-02-17 10:56:40 +0000";
layers = (
{
background = {
shapes = (
{
closed = 1;
nodes = (
(438,-12,o),
(438,93,o),
(438,260,cs),
(438,427,o),
(438,531,o),
(256,531,cs),
(75,531,o),
(75,427,o),
(75,260,cs),
(75,93,o),
(75,-12,o),
(256,-12,c,{
name = hr00;
})
);
},
{
closed = 1;
nodes = (
(353,93,o),
(353,53,o),
(256,53,cs),
(158,53,o),
(158,93,o),
(158,145,cs),
(158,374,ls),
(158,426,o),
(158,466,o),
(256,466,cs),
(353,466,o),
(353,426,o),
(353,374,cs),
(353,145,l)
);
},
{
closed = 1;
nodes = (
(191,-78,l),
(366,592,l),
(321,592,l),
(146,-78,l,{
name = hr00;
})
);
}
);
};
layerId = master01;
shapes = (
{
closed = 1;
nodes = (
(191,-78,l),
(366,592,l),
(321,592,l),
(146,-78,l,{
name = hr00;
})
);
},
{
alignment = -1;
ref = o;
}
);
width = 513;
}
);
unicode = 248;
},
{
glyphname = oslashacute;
kernLeft = c;
lastChange = "2023-02-17 10:56:40 +0000";
layers = (
{
background = {
shapes = (
{
closed = 1;
nodes = (
(184,586,l),
(372,689,l),
(326,756,l),
(161,620,l,{
name = hr00;
})
);
},
{
closed = 1;
nodes = (
(438,-12,o),
(438,93,o),
(438,260,cs),
(438,427,o),
(438,531,o),
(256,531,cs),
(75,531,o),
(75,427,o),
(75,260,cs),
(75,93,o),
(75,-12,o),
(256,-12,c,{
name = hr00;
})
);
},
{
closed = 1;
nodes = (
(353,93,o),
(353,53,o),
(256,53,cs),
(158,53,o),
(158,93,o),
(158,145,cs),
(158,374,ls),
(158,426,o),
(158,466,o),
(256,466,cs),
(353,466,o),
(353,426,o),
(353,374,cs),
(353,145,l)
);
},
{
closed = 1;
nodes = (
(191,-78,l),
(366,592,l),
(321,592,l),
(146,-78,l,{
name = hr00;
})
);
}
);
};
layerId = master01;
shapes = (
{
ref = oslash;
},
{
pos = (17,0);
ref = acutecomb;
}
);
width = 513;
}
);
unicode = 511;
},
{
glyphname = otilde;
kernLeft = c;
lastChange = "2023-02-17 10:56:40 +0000";
layers = (
{
background = {
shapes = (
{
closed = 1;
nodes = (
(438,-12,o),
(438,93,o),
(438,260,cs),
(438,427,o),
(438,531,o),
(256,531,cs),
(75,531,o),
(75,427,o),
(75,260,cs),
(75,93,o),
(75,-12,o),
(256,-12,c,{
name = hr00;
})
);
},
{
closed = 1;
nodes = (
(353,93,o),
(353,53,o),
(256,53,cs),
(158,53,o),
(158,93,o),
(158,145,cs),
(158,374,ls),
(158,426,o),
(158,466,o),
(256,466,cs),
(353,466,o),
(353,426,o),
(353,374,cs),
(353,145,l)
);
},
{
closed = 1;
nodes = (
(346,702,o),
(330,695,o),
(310,695,cs),
(272,695,o),
(244,722,o),
(209,722,cs,{
name = hr01;
}),
(185,722,o),
(166,717,o),
(125,675,c),
(147,637,l),
(167,650,o),
(183,657,o),
(203,657,cs),
(241,657,o),
(269,630,o),
(304,630,cs,{
name = hr02;
}),
(328,630,o),
(347,635,o),
(388,677,c),
(366,715,l)
);
}
);
};
layerId = master01;
shapes = (
{
ref = o;
},
{
pos = (26,0);
ref = tildecomb;
}
);
width = 513;
}
);
unicode = 245;
},
{
glyphname = oe;
kernLeft = c;
lastChange = "2023-02-17 10:56:40 +0000";
layers = (
{
anchors = (
{
name = bottom;
pos = (379,0);
},
{
name = top;
pos = (379,520);
}
);
background = {
shapes = (
{
closed = 1;
nodes = (
(465,531,o),
(422,515,o),
(396,486,c),
(370,515,o),
(327,531,o),
(256,531,cs),
(75,531,o),
(75,427,o),
(75,260,cs),
(75,93,o),
(75,-12,o),
(256,-12,cs),
(326,-12,o),
(369,3,o),
(395,32,c),
(420,3,o),
(460,-12,o),
(526,-12,cs),
(593,-12,o),
(641,2,o),
(692,32,c),
(676,82,l),
(629,62,o),
(575,54,o),
(527,54,cs),
(474,54,o),
(438,68,o),
(438,143,cs),
(438,218,l),
(606,220,o),
(703,223,o),
(703,375,cs),
(703,464,o),
(686,531,o),
(534,531,c,{
name = hr00;
})
);
},
{
closed = 1;
nodes = (
(353,93,o),
(353,53,o),
(256,53,cs),
(158,53,o),
(158,93,o),
(158,145,cs),
(158,374,ls),
(158,426,o),
(158,466,o),
(256,466,cs),
(353,466,o),
(353,426,o),
(353,374,cs),
(353,145,l)
);
},
{
closed = 1;
nodes = (
(438,428,o),
(454,465,o),
(533,465,cs),
(617,465,o),
(621,432,o),
(621,376,cs),
(621,353,ls),
(621,275,o),
(533,275,o),
(438,275,c),
(438,378,l)
);
}
);
};
layerId = master01;
shapes = (
{
closed = 1;
nodes = (
(465,531,o),
(422,515,o),
(396,486,c),
(370,515,o),
(327,531,o),
(256,531,cs),
(75,531,o),
(75,427,o),
(75,260,cs),
(75,93,o),
(75,-12,o),
(256,-12,cs),
(326,-12,o),
(369,3,o),
(395,32,c),
(420,3,o),
(460,-12,o),
(526,-12,cs),
(593,-12,o),
(641,2,o),
(692,32,c),
(676,82,l),
(629,62,o),
(575,54,o),
(527,54,cs),
(474,54,o),
(438,68,o),
(438,143,cs),
(438,218,l),
(606,220,o),
(703,223,o),
(703,375,cs),
(703,464,o),
(686,531,o),
(534,531,c,{
name = hr00;
})
);
},
{
closed = 1;
nodes = (
(353,93,o),
(353,53,o),
(256,53,cs),
(158,53,o),
(158,93,o),
(158,145,cs),
(158,374,ls),
(158,426,o),
(158,466,o),
(256,466,cs),
(353,466,o),
(353,426,o),
(353,374,cs),
(353,145,l)
);
},
{
closed = 1;
nodes = (
(438,428,o),
(454,465,o),
(533,465,cs),
(617,465,o),
(621,432,o),
(621,376,cs),
(621,353,ls),
(621,275,o),
(533,275,o),
(438,275,c),
(438,378,l)
);
}
);
width = 758;
}
);
unicode = 339;
},
{
glyphname = p;
kernLeft = n;
lastChange = "2023-02-17 11:10:50 +0000";
layers = (
{
anchors = (
{
name = bottom;
pos = (257,0);
},
{
name = top;
pos = (257,520);
}
);
background = {
shapes = (
{
closed = 1;
nodes = (
(172,429,o),
(188,466,o),
(267,466,cs),
(351,466,o),
(355,433,o),
(355,377,cs),
(355,158,ls),
(355,86,o),
(344,64,o),
(265,64,cs),
(233,64,o),
(202,69,o),
(172,75,c),
(172,379,l)
);
},
{
closed = 1;
nodes = (
(439,460,o),
(421,531,o),
(302,531,cs),
(256,531,o),
(190,530,o),
(148,471,c),
(135,520,l,{
name = hr01;
}),
(90,520,l),
(90,-182,l),
(167,-182,l),
(167,13,l),
(194,5,o),
(230,0,o),
(267,0,cs),
(436,0,o),
(439,95,o),
(439,295,c)
);
}
);
};
layerId = master01;
shapes = (
{
closed = 1;
nodes = (
(172,429,o),
(188,466,o),
(267,466,cs),
(351,466,o),
(355,433,o),
(355,377,cs),
(355,158,ls),
(355,86,o),
(344,64,o),
(265,64,cs),
(233,64,o),
(202,69,o),
(172,75,c),
(172,379,l)
);
},
{
closed = 1;
nodes = (
(439,460,o),
(421,531,o),
(302,531,cs),
(256,531,o),
(190,530,o),
(148,471,c),
(135,520,l,{
name = hr01;
}),
(90,520,l),
(90,-182,l),
(167,-182,l),
(167,13,l),
(194,5,o),
(230,0,o),
(267,0,cs),
(436,0,o),
(439,95,o),
(439,295,c)
);
}
);
width = 514;
}
);
unicode = 112;
},
{
glyphname = thorn;
lastChange = "2023-02-17 10:52:01 +0000";
layers = (
{
anchors = (
{
name = bottom;
pos = (257,0);
},
{
name = top;
pos = (257,520);
}
);
background = {
shapes = (
{
closed = 1;
nodes = (
(90,720,l),
(90,17,o),
(90,16,o),
(91,-181,c),
(166,-181,l),
(166,-1,l),
(208,-9,o),
(243,-12,o),
(267,-12,cs),
(436,-12,o),
(439,84,o),
(439,284,cs),
(439,449,o),
(421,520,o),
(302,520,cs),
(262,520,o),
(208,519,o),
(167,481,c),
(167,720,l,{
name = hr00;
})
);
},
{
closed = 1;
nodes = (
(172,419,o),
(188,456,o),
(267,456,cs),
(351,456,o),
(355,423,o),
(355,367,cs),
(355,147,ls),
(355,75,o),
(344,53,o),
(265,53,cs),
(233,53,o),
(202,58,o),
(172,64,c),
(172,369,l)
);
}
);
};
layerId = master01;
shapes = (
{
closed = 1;
nodes = (
(90,720,l),
(90,17,o),
(90,16,o),
(91,-181,c),
(166,-181,l),
(166,-1,l),
(208,-9,o),
(243,-12,o),
(267,-12,cs),
(436,-12,o),
(439,84,o),
(439,284,cs),
(439,449,o),
(421,520,o),
(302,520,cs),
(262,520,o),
(208,519,o),
(167,481,c),
(167,720,l,{
name = hr00;
})
);
},
{
closed = 1;
nodes = (
(172,419,o),
(188,456,o),
(267,456,cs),
(351,456,o),
(355,423,o),
(355,367,cs),
(355,147,ls),
(355,75,o),
(344,53,o),
(265,53,cs),
(233,53,o),
(202,58,o),
(172,64,c),
(172,369,l)
);
}
);
width = 514;
}
);
unicode = 254;
},
{
glyphname = q;
kernLeft = c;
lastChange = "2023-02-17 10:56:40 +0000";
layers = (
{
anchors = (
{
name = bottom;
pos = (257,0);
},
{
name = top;
pos = (257,520);
}
);
background = {
shapes = (
{
closed = 1;
nodes = (
(342,101,o),
(326,64,o),
(247,64,cs),
(163,64,o),
(159,97,o),
(159,153,cs),
(159,372,ls),
(159,444,o),
(170,466,o),
(249,466,cs),
(281,466,o),
(312,461,o),
(342,455,c),
(342,151,l,{
name = hr00;
})
);
},
{
closed = 1;
nodes = (
(424,502,l),
(349,524,o),
(284,531,o),
(247,531,cs),
(78,531,o),
(75,436,o),
(75,236,cs),
(75,71,o),
(93,0,o),
(212,0,cs),
(252,0,o),
(306,1,o),
(347,39,c),
(347,-182,l),
(424,-182,l)
);
}
);
};
layerId = master01;
shapes = (
{
closed = 1;
nodes = (
(342,101,o),
(326,64,o),
(247,64,cs),
(163,64,o),
(159,97,o),
(159,153,cs),
(159,372,ls),
(159,444,o),
(170,466,o),
(249,466,cs),
(281,466,o),
(312,461,o),
(342,455,c),
(342,151,l,{
name = hr00;
})
);
},
{
closed = 1;
nodes = (
(424,502,l),
(349,524,o),
(284,531,o),
(247,531,cs),
(78,531,o),
(75,436,o),
(75,236,cs),
(75,71,o),
(93,0,o),
(212,0,cs),
(252,0,o),
(306,1,o),
(347,39,c),
(347,-182,l),
(424,-182,l)
);
}
);
width = 514;
}
);
unicode = 113;
},
{
glyphname = r;
kernLeft = n;
lastChange = "2023-02-17 11:10:50 +0000";
layers = (
{
anchors = (
{
name = bottom;
pos = (130,0);
},
{
name = top;
pos = (205,520);
}
);
background = {
shapes = (
{
closed = 1;
nodes = (
(172,405,l),
(196,429,o),
(238,459,o),
(317,459,c),
(325,531,l),
(233,530,o),
(184,491,o),
(151,459,c),
(135,520,l,{
name = hr01;
}),
(90,520,l),
(90,0,l),
(172,0,l)
);
}
);
};
layerId = master01;
shapes = (
{
closed = 1;
nodes = (
(172,405,l),
(196,429,o),
(238,459,o),
(317,459,c),
(325,531,l),
(233,530,o),
(184,491,o),
(151,459,c),
(135,520,l,{
name = hr01;
}),
(90,520,l),
(90,0,l),
(172,0,l)
);
}
);
width = 323;
}
);
unicode = 114;
},
{
glyphname = racute;
kernLeft = n;
lastChange = "2023-02-17 11:10:50 +0000";
layers = (
{
background = {
shapes = (
{
closed = 1;
nodes = (
(172,405,l),
(196,429,o),
(238,459,o),
(317,459,c),
(325,531,l),
(233,530,o),
(184,491,o),
(151,459,c),
(135,520,l,{
name = hr01;
}),
(90,520,l),
(90,0,l),
(172,0,l)
);
},
{
closed = 1;
nodes = (
(134,586,l),
(322,689,l),
(276,756,l),
(111,620,l,{
name = hr00;
})
);
}
);
};
layerId = master01;
shapes = (
{
ref = r;
},
{
pos = (-35,0);
ref = acutecomb;
}
);
width = 323;
}
);
unicode = 341;
},
{
glyphname = rcaron;
kernLeft = n;
lastChange = "2023-02-17 11:10:50 +0000";
layers = (
{
background = {
shapes = (
{
closed = 1;
nodes = (
(172,405,l),
(196,429,o),
(238,459,o),
(317,459,c),
(325,531,l),
(233,530,o),
(184,491,o),
(151,459,c),
(135,520,l,{
name = hr01;
}),
(90,520,l),
(90,0,l),
(172,0,l)
);
},
{
closed = 1;
nodes = (
(73,710,l),
(207,594,l),
(340,710,l),
(310,747,l),
(207,680,l),
(104,747,l,{
name = hr00;
})
);
}
);
};
layerId = master01;
shapes = (
{
ref = r;
},
{
pos = (-11,0);
ref = caroncomb;
}
);
width = 323;
}
);
unicode = 345;
},
{
glyphname = rcommaaccent;
kernLeft = n;
lastChange = "2023-02-17 11:10:50 +0000";
layers = (
{
background = {
shapes = (
{
closed = 1;
nodes = (
(172,405,l),
(196,429,o),
(238,459,o),
(317,459,c),
(325,531,l),
(233,530,o),
(184,491,o),
(151,459,c),
(135,520,l,{
name = hr01;
}),
(90,520,l),
(90,0,l),
(172,0,l)
);
},
{
closed = 1;
nodes = (
(97,-50,o),
(75,-50,o),
(75,-105,cs),
(75,-140,o),
(83,-153,o),
(98,-158,c),
(70,-241,l),
(115,-265,l),
(156,-200,ls),
(169,-179,o),
(179,-159,o),
(185,-138,cs),
(187,-130,o),
(189,-119,o),
(189,-105,cs),
(189,-50,o),
(167,-50,o),
(132,-50,c,{
name = hr00;
})
);
}
);
};
layerId = master01;
shapes = (
{
ref = r;
},
{
pos = (11,0);
ref = commaaccentcomb;
}
);
width = 323;
}
);
unicode = 343;
},
{
glyphname = s;
kernLeft = c;
lastChange = "2023-02-17 10:56:40 +0000";
layers = (
{
anchors = (
{
name = bottom;
pos = (223,0);
},
{
name = top;
pos = (223,520);
}
);
background = {
shapes = (
{
closed = 1;
nodes = (
(147,309,o),
(145,334,o),
(145,383,cs),
(145,453,o),
(180,461,o),
(229,461,cs),
(273,461,o),
(322,450,o),
(356,442,c),
(371,498,l),
(333,518,o),
(279,531,o),
(216,531,cs),
(125,531,o),
(65,475,o),
(65,368,cs),
(65,300,o),
(81,240,o),
(166,228,cs),
(247,217,ls),
(300,209,o),
(306,175,o),
(306,141,cs),
(306,76,o),
(280,54,o),
(215,54,cs),
(167,54,o),
(113,64,o),
(76,71,c),
(60,21,l),
(101,1,o),
(158,-12,o),
(225,-12,cs),
(343,-12,o),
(386,56,o),
(386,141,cs),
(386,247,o),
(349,281,o),
(281,290,cs),
(200,301,l,{
name = hr00;
})
);
}
);
};
layerId = master01;
shapes = (
{
closed = 1;
nodes = (
(147,309,o),
(145,334,o),
(145,383,cs),
(145,453,o),
(180,461,o),
(229,461,cs),
(273,461,o),
(322,450,o),
(356,442,c),
(371,498,l),
(333,518,o),
(279,531,o),
(216,531,cs),
(125,531,o),
(65,475,o),
(65,368,cs),
(65,300,o),
(81,240,o),
(166,228,cs),
(247,217,ls),
(300,209,o),
(306,175,o),
(306,141,cs),
(306,76,o),
(280,54,o),
(215,54,cs),
(167,54,o),
(113,64,o),
(76,71,c),
(60,21,l),
(101,1,o),
(158,-12,o),
(225,-12,cs),
(343,-12,o),
(386,56,o),
(386,141,cs),
(386,247,o),
(349,281,o),
(281,290,cs),
(200,301,l,{
name = hr00;
})
);
}
);
width = 446;
}
);
unicode = 115;
},
{
glyphname = sacute;
kernLeft = c;
lastChange = "2023-02-17 10:56:40 +0000";
layers = (
{
background = {
shapes = (
{
closed = 1;
nodes = (
(147,309,o),
(145,334,o),
(145,383,cs),
(145,453,o),
(180,461,o),
(229,461,cs),
(273,461,o),
(322,450,o),
(356,442,c),
(371,498,l),
(333,518,o),
(279,531,o),
(216,531,cs),
(125,531,o),
(65,475,o),
(65,368,cs),
(65,300,o),
(81,240,o),
(166,228,cs),
(247,217,ls),
(300,209,o),
(306,175,o),
(306,141,cs),
(306,76,o),
(280,54,o),
(215,54,cs),
(167,54,o),
(113,64,o),
(76,71,c),
(60,21,l),
(101,1,o),
(158,-12,o),
(225,-12,cs),
(343,-12,o),
(386,56,o),
(386,141,cs),
(386,247,o),
(349,281,o),
(281,290,cs),
(200,301,l,{
name = hr00;
})
);
},
{
closed = 1;
nodes = (
(150,586,l),
(338,689,l),
(292,756,l),
(127,620,l,{
name = hr00;
})
);
}
);
};
layerId = master01;
shapes = (
{
ref = s;
},
{
pos = (-17,0);
ref = acutecomb;
}
);
width = 446;
}
);
unicode = 347;
},
{
glyphname = scaron;
kernLeft = c;
lastChange = "2023-02-17 10:56:40 +0000";
layers = (
{
background = {
shapes = (
{
closed = 1;
nodes = (
(147,309,o),
(145,334,o),
(145,383,cs),
(145,453,o),
(180,461,o),
(229,461,cs),
(273,461,o),
(322,450,o),
(356,442,c),
(371,498,l),
(333,518,o),
(279,531,o),
(216,531,cs),
(125,531,o),
(65,475,o),
(65,368,cs),
(65,300,o),
(81,240,o),
(166,228,cs),
(247,217,ls),
(300,209,o),
(306,175,o),
(306,141,cs),
(306,76,o),
(280,54,o),
(215,54,cs),
(167,54,o),
(113,64,o),
(76,71,c),
(60,21,l),
(101,1,o),
(158,-12,o),
(225,-12,cs),
(343,-12,o),
(386,56,o),
(386,141,cs),
(386,247,o),
(349,281,o),
(281,290,cs),
(200,301,l,{
name = hr00;
})
);
},
{
closed = 1;
nodes = (
(89,710,l),
(223,594,l),
(356,710,l),
(326,747,l),
(223,680,l),
(120,747,l,{
name = hr00;
})
);
}
);
};
layerId = master01;
shapes = (
{
ref = s;
},
{
pos = (7,0);
ref = caroncomb;
}
);
width = 446;
}
);
unicode = 353;
},
{
glyphname = scedilla;
kernLeft = c;
lastChange = "2023-02-17 10:56:40 +0000";
layers = (
{
background = {
shapes = (
{
closed = 1;
nodes = (
(147,309,o),
(145,334,o),
(145,383,cs),
(145,453,o),
(180,461,o),
(229,461,cs),
(273,461,o),
(322,450,o),
(356,442,c),
(371,498,l),
(333,518,o),
(279,531,o),
(216,531,cs),
(125,531,o),
(65,475,o),
(65,368,cs),
(65,300,o),
(81,240,o),
(166,228,cs),
(247,217,ls),
(300,209,o),
(306,175,o),
(306,141,cs),
(306,76,o),
(280,54,o),
(215,54,cs),
(167,54,o),
(113,64,o),
(76,71,c),
(60,21,l),
(101,1,o),
(158,-12,o),
(225,-12,cs),
(343,-12,o),
(386,56,o),
(386,141,cs),
(386,247,o),
(349,281,o),
(281,290,cs),
(200,301,l,{
name = hr00;
})
);
},
{
closed = 1;
nodes = (
(185,0,l),
(175,-70,l),
(190,-94,l),
(210,-94,ls),
(239,-94,o),
(239,-112,o),
(239,-122,cs),
(239,-136,o),
(239,-150,o),
(203,-150,cs),
(177,-150,o),
(173,-147,o),
(152,-142,c),
(142,-177,l),
(153,-183,o),
(179,-194,o),
(213,-194,cs),
(293,-194,o),
(304,-157,o),
(304,-118,cs),
(304,-85,o),
(294,-56,o),
(231,-56,cs),
(219,-56,l),
(226,0,l,{
name = hr00;
})
);
}
);
};
layerId = master01;
shapes = (
{
ref = s;
},
{
pos = (132,0);
ref = cedillacomb;
}
);
width = 446;
}
);
unicode = 351;
},
{
glyphname = scircumflex;
kernLeft = c;
lastChange = "2023-02-17 10:56:40 +0000";
layers = (
{
background = {
shapes = (
{
closed = 1;
nodes = (
(147,309,o),
(145,334,o),
(145,383,cs),
(145,453,o),
(180,461,o),
(229,461,cs),
(273,461,o),
(322,450,o),
(356,442,c),
(371,498,l),
(333,518,o),
(279,531,o),
(216,531,cs),
(125,531,o),
(65,475,o),
(65,368,cs),
(65,300,o),
(81,240,o),
(166,228,cs),
(247,217,ls),
(300,209,o),
(306,175,o),
(306,141,cs),
(306,76,o),
(280,54,o),
(215,54,cs),
(167,54,o),
(113,64,o),
(76,71,c),
(60,21,l),
(101,1,o),
(158,-12,o),
(225,-12,cs),
(343,-12,o),
(386,56,o),
(386,141,cs),
(386,247,o),
(349,281,o),
(281,290,cs),
(200,301,l,{
name = hr00;
})
);
},
{
closed = 1;
nodes = (
(356,640,l),
(222,756,l),
(89,640,l),
(119,603,l),
(222,670,l),
(325,603,l,{
name = hr00;
})
);
}
);
};
layerId = master01;
shapes = (
{
ref = s;
},
{
pos = (7,0);
ref = circumflexcomb;
}
);
width = 446;
}
);
unicode = 349;
},
{
glyphname = scommaaccent;
kernLeft = c;
lastChange = "2023-02-17 10:56:40 +0000";
layers = (
{
background = {
shapes = (
{
closed = 1;
nodes = (
(147,309,o),
(145,334,o),
(145,383,cs),
(145,453,o),
(180,461,o),
(229,461,cs),
(273,461,o),
(322,450,o),
(356,442,c),
(371,498,l),
(333,518,o),
(279,531,o),
(216,531,cs),
(125,531,o),
(65,475,o),
(65,368,cs),
(65,300,o),
(81,240,o),
(166,228,cs),
(247,217,ls),
(300,209,o),
(306,175,o),
(306,141,cs),
(306,76,o),
(280,54,o),
(215,54,cs),
(167,54,o),
(113,64,o),
(76,71,c),
(60,21,l),
(101,1,o),
(158,-12,o),
(225,-12,cs),
(343,-12,o),
(386,56,o),
(386,141,cs),
(386,247,o),
(349,281,o),
(281,290,cs),
(200,301,l,{
name = hr00;
})
);
},
{
closed = 1;
nodes = (
(190,-50,o),
(168,-50,o),
(168,-105,cs),
(168,-140,o),
(176,-153,o),
(191,-158,c),
(163,-241,l),
(208,-265,l),
(249,-200,ls),
(262,-179,o),
(272,-159,o),
(278,-138,cs),
(280,-130,o),
(282,-119,o),
(282,-105,cs),
(282,-50,o),
(260,-50,o),
(225,-50,c,{
name = hr00;
})
);
}
);
};
layerId = master01;
shapes = (
{
ref = s;
},
{
pos = (104,0);
ref = commaaccentcomb;
}
);
width = 446;
}
);
unicode = 537;
},
{
glyphname = germandbls;
lastChange = "2023-02-17 10:52:01 +0000";
layers = (
{
anchors = (
{
name = bottom;
pos = (296,0);
},
{
name = top;
pos = (296,901);
}
);
background = {
shapes = (
{
closed = 1;
nodes = (
(257,0,o),
(297,-12,o),
(340,-12,cs),
(476,-12,o),
(530,40,o),
(530,186,cs),
(530,299,o),
(489,347,o),
(414,370,c),
(414,376,l),
(469,400,o),
(502,433,o),
(502,520,cs,{
name = hr01;
}),
(502,617,o),
(502,729,o),
(310,729,cs),
(143,729,o),
(122,650,o),
(119,519,c),
(50,505,l),
(50,461,l),
(119,461,l),
(119,0,l),
(201,0,l),
(201,566,ls),
(201,618,o),
(201,658,o),
(309,658,cs),
(416,658,o),
(416,618,o),
(416,566,cs),
(416,454,o),
(416,410,o),
(331,410,cs),
(251,410,l),
(251,352,l),
(353,342,ls),
(443,333,o),
(443,243,o),
(443,183,cs,{
name = hr02;
}),
(443,86,o),
(442,53,o),
(346,53,cs),
(307,53,o),
(282,57,o),
(251,68,c),
(232,13,l)
);
}
);
};
layerId = master01;
shapes = (
{
closed = 1;
nodes = (
(257,0,o),
(297,-12,o),
(340,-12,cs),
(476,-12,o),
(530,40,o),
(530,186,cs),
(530,299,o),
(489,347,o),
(414,370,c),
(414,376,l),
(469,400,o),
(502,433,o),
(502,520,cs,{
name = hr01;
}),
(502,617,o),
(502,729,o),
(310,729,cs),
(143,729,o),
(122,650,o),
(119,519,c),
(50,505,l),
(50,461,l),
(119,461,l),
(119,0,l),
(201,0,l),
(201,566,ls),
(201,618,o),
(201,658,o),
(309,658,cs),
(416,658,o),
(416,618,o),
(416,566,cs),
(416,454,o),
(416,410,o),
(331,410,cs),
(251,410,l),
(251,352,l),
(353,342,ls),
(443,333,o),
(443,243,o),
(443,183,cs,{
name = hr02;
}),
(443,86,o),
(442,53,o),
(346,53,cs),
(307,53,o),
(282,57,o),
(251,68,c),
(232,13,l)
);
}
);
width = 592;
}
);
unicode = 223;
},
{
glyphname = t;
kernLeft = n;
lastChange = "2023-02-17 11:10:50 +0000";
layers = (
{
anchors = (
{
name = bottom;
pos = (199,0);
},
{
name = center;
pos = (169,260);
},
{
name = top;
pos = (169,520);
},
{
name = topright;
pos = (428,700);
}
);
background = {
shapes = (
{
closed = 1;
nodes = (
(121,520,l),
(50,505,l),
(50,461,l),
(121,461,l),
(121,125,ls),
(121,43,o),
(124,-12,o),
(227,-12,cs),
(255,-12,o),
(277,-7,o),
(298,0,c),
(291,50,l),
(276,47,o),
(264,46,o),
(254,46,cs),
(206,46,o),
(203,75,o),
(203,125,cs),
(203,461,l),
(295,461,l),
(295,520,l),
(203,520,l),
(203,610,l),
(166,610,l,{
name = hr00;
})
);
}
);
};
layerId = master01;
shapes = (
{
closed = 1;
nodes = (
(121,520,l),
(50,505,l),
(50,461,l),
(121,461,l),
(121,125,ls),
(121,43,o),
(124,-12,o),
(227,-12,cs),
(255,-12,o),
(277,-7,o),
(298,0,c),
(291,50,l),
(276,47,o),
(264,46,o),
(254,46,cs),
(206,46,o),
(203,75,o),
(203,125,cs),
(203,461,l),
(295,461,l),
(295,520,l),
(203,520,l),
(203,610,l),
(166,610,l,{
name = hr00;
})
);
}
);
width = 338;
}
);
unicode = 116;
},
{
glyphname = tbar;
kernLeft = n;
lastChange = "2023-02-17 11:10:50 +0000";
layers = (
{
background = {
shapes = (
{
closed = 1;
nodes = (
(121,520,l),
(50,505,l),
(50,461,l),
(121,461,l),
(121,125,ls),
(121,43,o),
(124,-12,o),
(227,-12,cs),
(255,-12,o),
(277,-7,o),
(298,0,c),
(291,50,l),
(276,47,o),
(264,46,o),
(254,46,cs),
(206,46,o),
(203,75,o),
(203,125,cs),
(203,461,l),
(295,461,l),
(295,520,l),
(203,520,l),
(203,610,l),
(166,610,l,{
name = hr00;
})
);
},
{
closed = 1;
nodes = (
(25,264,l),
(305,264,l),
(305,324,l),
(25,324,l,{
name = hr00;
})
);
}
);
};
layerId = master01;
shapes = (
{
alignment = -1;
ref = t;
},
{
alignment = -1;
pos = (-80,-41);
ref = ethbar;
}
);
width = 338;
}
);
unicode = 359;
},
{
glyphname = tcaron;
kernLeft = n;
lastChange = "2023-02-17 11:10:50 +0000";
layers = (
{
background = {
shapes = (
{
closed = 1;
nodes = (
(121,520,l),
(50,505,l),
(50,461,l),
(121,461,l),
(121,125,ls),
(121,43,o),
(124,-12,o),
(227,-12,cs),
(255,-12,o),
(277,-7,o),
(298,0,c),
(291,50,l),
(276,47,o),
(264,46,o),
(254,46,cs),
(206,46,o),
(203,75,o),
(203,125,cs),
(203,461,l),
(295,461,l),
(295,520,l),
(203,520,l),
(203,610,l),
(166,610,l,{
name = hr00;
})
);
},
{
closed = 1;
nodes = (
(305,730,o),
(283,730,o),
(283,675,cs),
(283,640,o),
(291,627,o),
(306,622,c),
(278,539,l),
(323,515,l),
(364,580,ls),
(377,601,o),
(387,621,o),
(393,642,cs),
(395,650,o),
(397,661,o),
(397,675,cs),
(397,730,o),
(375,730,o),
(340,730,c,{
name = hr00;
})
);
}
);
};
layerId = master01;
shapes = (
{
ref = t;
},
{
pos = (226,0);
ref = caroncomb.alt;
}
);
width = 338;
}
);
unicode = 357;
},
{
glyphname = tcedilla;
kernLeft = n;
lastChange = "2023-02-17 11:10:50 +0000";
layers = (
{
background = {
shapes = (
{
closed = 1;
nodes = (
(121,520,l),
(50,505,l),
(50,461,l),
(121,461,l),
(121,125,ls),
(121,43,o),
(124,-12,o),
(227,-12,cs),
(255,-12,o),
(277,-7,o),
(298,0,c),
(291,50,l),
(276,47,o),
(264,46,o),
(254,46,cs),
(206,46,o),
(203,75,o),
(203,125,cs),
(203,461,l),
(295,461,l),
(295,520,l),
(203,520,l),
(203,610,l),
(166,610,l,{
name = hr00;
})
);
},
{
closed = 1;
nodes = (
(161,0,l),
(151,-70,l),
(166,-94,l),
(186,-94,ls),
(215,-94,o),
(215,-112,o),
(215,-122,cs),
(215,-136,o),
(215,-150,o),
(179,-150,cs),
(153,-150,o),
(149,-147,o),
(128,-142,c),
(118,-177,l),
(129,-183,o),
(155,-194,o),
(189,-194,cs),
(269,-194,o),
(280,-157,o),
(280,-118,cs),
(280,-85,o),
(270,-56,o),
(207,-56,cs),
(195,-56,l),
(202,0,l,{
name = hr00;
})
);
}
);
};
layerId = master01;
shapes = (
{
ref = t;
},
{
pos = (108,0);
ref = cedillacomb;
}
);
width = 338;
}
);
unicode = 355;
},
{
glyphname = tcommaaccent;
kernLeft = n;
lastChange = "2023-02-17 11:10:50 +0000";
layers = (
{
background = {
shapes = (
{
closed = 1;
nodes = (
(121,520,l),
(50,505,l),
(50,461,l),
(121,461,l),
(121,125,ls),
(121,43,o),
(124,-12,o),
(227,-12,cs),
(255,-12,o),
(277,-7,o),
(298,0,c),
(291,50,l),
(276,47,o),
(264,46,o),
(254,46,cs),
(206,46,o),
(203,75,o),
(203,125,cs),
(203,461,l),
(295,461,l),
(295,520,l),
(203,520,l),
(203,610,l),
(166,610,l,{
name = hr00;
})
);
},
{
closed = 1;
nodes = (
(166,-50,o),
(144,-50,o),
(144,-105,cs),
(144,-140,o),
(152,-153,o),
(167,-158,c),
(139,-241,l),
(184,-265,l),
(225,-200,ls),
(238,-179,o),
(248,-159,o),
(254,-138,cs),
(256,-130,o),
(258,-119,o),
(258,-105,cs),
(258,-50,o),
(236,-50,o),
(201,-50,c,{
name = hr00;
})
);
}
);
};
layerId = master01;
shapes = (
{
ref = t;
},
{
pos = (80,0);
ref = commaaccentcomb;
}
);
width = 338;
}
);
unicode = 539;
},
{
glyphname = u;
kernLeft = n;
lastChange = "2023-02-17 11:10:50 +0000";
layers = (
{
anchors = (
{
name = bottom;
pos = (259,0);
},
{
name = ogonek;
pos = (477,15);
},
{
name = top;
pos = (259,520);
},
{
name = topright;
pos = (497,520);
}
);
background = {
shapes = (
{
closed = 1;
nodes = (
(80,153,ls),
(80,68,o),
(96,-12,o),
(215,-12,cs),
(261,-12,o),
(327,-10,o),
(369,49,c),
(382,0,l,{
name = hr01;
}),
(427,0,l),
(427,520,l),
(345,520,l),
(345,140,ls),
(345,90,o),
(329,53,o),
(250,53,cs,{
name = hr02;
}),
(166,53,o),
(162,86,o),
(162,142,cs),
(162,520,l),
(80,520,l)
);
}
);
};
layerId = master01;
shapes = (
{
closed = 1;
nodes = (
(80,153,ls),
(80,68,o),
(96,-12,o),
(215,-12,cs),
(261,-12,o),
(327,-10,o),
(369,49,c),
(382,0,l,{
name = hr01;
}),
(427,0,l),
(427,520,l),
(345,520,l),
(345,140,ls),
(345,90,o),
(329,53,o),
(250,53,cs,{
name = hr02;
}),
(166,53,o),
(162,86,o),
(162,142,cs),
(162,520,l),
(80,520,l)
);
}
);
width = 517;
}
);
unicode = 117;
},
{
glyphname = uacute;
kernLeft = n;
lastChange = "2023-02-17 11:10:50 +0000";
layers = (
{
background = {
shapes = (
{
closed = 1;
nodes = (
(80,153,ls),
(80,68,o),
(96,-12,o),
(215,-12,cs),
(261,-12,o),
(327,-10,o),
(369,49,c),
(382,0,l,{
name = hr01;
}),
(427,0,l),
(427,520,l),
(345,520,l),
(345,140,ls),
(345,90,o),
(329,53,o),
(250,53,cs,{
name = hr02;
}),
(166,53,o),
(162,86,o),
(162,142,cs),
(162,520,l),
(80,520,l)
);
},
{
closed = 1;
nodes = (
(186,586,l),
(374,689,l),
(328,756,l),
(163,620,l,{
name = hr00;
})
);
}
);
};
layerId = master01;
shapes = (
{
ref = u;
},
{
pos = (19,0);
ref = acutecomb;
}
);
width = 517;
}
);
unicode = 250;
},
{
glyphname = ubreve;
kernLeft = n;
lastChange = "2023-02-17 11:10:50 +0000";
layers = (
{
background = {
shapes = (
{
closed = 1;
nodes = (
(80,153,ls),
(80,68,o),
(96,-12,o),
(215,-12,cs),
(261,-12,o),
(327,-10,o),
(369,49,c),
(382,0,l,{
name = hr01;
}),
(427,0,l),
(427,520,l),
(345,520,l),
(345,140,ls),
(345,90,o),
(329,53,o),
(250,53,cs,{
name = hr02;
}),
(166,53,o),
(162,86,o),
(162,142,cs),
(162,520,l),
(80,520,l)
);
},
{
closed = 1;
nodes = (
(316,591,o),
(345,612,o),
(367,658,cs),
(388,702,l),
(343,724,l),
(327,693,o),
(312,661,o),
(259,661,cs),
(206,661,o),
(191,693,o),
(175,724,c),
(130,702,l),
(151,658,ls),
(173,612,o),
(202,591,o),
(259,591,c,{
name = hr00;
})
);
}
);
};
layerId = master01;
shapes = (
{
ref = u;
},
{
pos = (44,0);
ref = brevecomb;
}
);
width = 517;
}
);
unicode = 365;
},
{
glyphname = ucircumflex;
kernLeft = n;
lastChange = "2023-02-17 11:10:50 +0000";
layers = (
{
background = {
shapes = (
{
closed = 1;
nodes = (
(80,153,ls),
(80,68,o),
(96,-12,o),
(215,-12,cs),
(261,-12,o),
(327,-10,o),
(369,49,c),
(382,0,l,{
name = hr01;
}),
(427,0,l),
(427,520,l),
(345,520,l),
(345,140,ls),
(345,90,o),
(329,53,o),
(250,53,cs,{
name = hr02;
}),
(166,53,o),
(162,86,o),
(162,142,cs),
(162,520,l),
(80,520,l)
);
},
{
closed = 1;
nodes = (
(392,640,l),
(258,756,l),
(125,640,l),
(155,603,l),
(258,670,l),
(361,603,l,{
name = hr00;
})
);
}
);
};
layerId = master01;
shapes = (
{
ref = u;
},
{
pos = (43,0);
ref = circumflexcomb;
}
);
width = 517;
}
);
unicode = 251;
},
